<?xml version="1.0" encoding="UTF-8" standalone="no"?>
<svg
   width="410"
   height="255.1"
   enable-background="new 0 0 510.2 255.1"
   version="1.1"
   viewBox="0 0 410 255.1"
   xml:space="preserve"
   id="svg3489"
   sodipodi:docname="map_bazaar_outside.svg"
   inkscape:version="1.2.2 (732a01da63, 2022-12-09)"
   xmlns:inkscape="http://www.inkscape.org/namespaces/inkscape"
   xmlns:sodipodi="http://sodipodi.sourceforge.net/DTD/sodipodi-0.dtd"
   xmlns="http://www.w3.org/2000/svg"
   xmlns:svg="http://www.w3.org/2000/svg"><defs
   id="defs3493" /><sodipodi:namedview
   id="namedview3491"
   pagecolor="#505050"
   bordercolor="#eeeeee"
   borderopacity="1"
   inkscape:showpageshadow="0"
   inkscape:pageopacity="0"
   inkscape:pagecheckerboard="0"
   inkscape:deskcolor="#505050"
   showgrid="false"
   showguides="false"
   inkscape:zoom="3.0926829"
   inkscape:cx="182.36593"
   inkscape:cy="96.356467"
   inkscape:window-width="1920"
   inkscape:window-height="1057"
   inkscape:window-x="619"
   inkscape:window-y="-8"
   inkscape:window-maximized="1"
   inkscape:current-layer="g4655" />
<style
   type="text/css"
   id="style3251">
	.st0{fill:#262523;}
	.st1{fill:#e3e2dd;}
	.st2{fill:#fd6b5b;}
</style>
<g
   inkscape:groupmode="layer"
   id="layer1"
   inkscape:label="map"><rect
     class="st0"
     x="9.2"
     y="7.9"
     width="115"
     height="30"
     id="rect3253"
     inkscape:label="rect3253" /><path
     class="st1"
     d="m53.2 24.7c-0.1 0.9-0.4 1.9-0.7 2.5-0.1 0-0.4-0.2-0.5-0.2 0.3-0.6 0.5-1.5 0.6-2.4zm1.1-0.8v4.2h-0.7v-4.1c-0.6 0-1.1 0.1-1.6 0.1v-0.7h0.7c0.2-0.3 0.4-0.6 0.7-0.9-0.3-0.4-0.8-1-1.3-1.4l0.4-0.5 0.3 0.3c0.3-0.6 0.7-1.3 0.9-1.9l0.7 0.3c-0.3 0.7-0.8 1.4-1.1 2l0.6 0.6c0.4-0.6 0.7-1.3 1-1.8l0.6 0.3c-0.6 0.9-1.3 2.1-2 3l1.5-0.1c-0.1-0.3-0.3-0.6-0.5-0.9l0.5-0.2c0.4 0.6 0.8 1.5 0.9 2l-0.6 0.2c0-0.2-0.1-0.4-0.2-0.6zm0.9 0.6c0.3 0.6 0.5 1.3 0.6 1.8l-0.6 0.2c-0.1-0.5-0.4-1.2-0.6-1.8zm3.6 2.6h2.4v0.7h-5.7v-0.7h2.5v-1.6h-1.9v-0.7h1.9v-1.4h0.7v1.4h2v0.7h-2v1.6zm2-7.5c-0.4 1.1-1 1.9-1.8 2.6 0.7 0.4 1.5 0.8 2.3 1-0.1 0.2-0.3 0.4-0.5 0.6-0.9-0.2-1.7-0.6-2.4-1.1-0.7 0.5-1.5 0.9-2.4 1.2-0.1-0.2-0.3-0.5-0.4-0.6 0.8-0.2 1.6-0.6 2.3-1-0.6-0.6-1.1-1.2-1.4-2l0.4-0.1h-1v-0.7h4.4zm-3.7 0.5c0.3 0.6 0.7 1.2 1.3 1.7 0.6-0.5 1-1 1.4-1.7z"
     id="path3255" /><path
     class="st1"
     d="m70.8 20.5v1.9h-0.7v-1.3h-6.8v1.3h-0.7v-1.9h1.4c-0.2-0.4-0.5-0.8-0.8-1.2l0.6-0.3c0.4 0.4 0.8 0.9 0.9 1.3l-0.3 0.1h1.9c-0.1-0.4-0.5-0.9-0.7-1.4l0.6-0.2c0.3 0.4 0.7 1 0.8 1.4l-0.5 0.2h1.8c0.4-0.4 0.8-1 1-1.5l0.8 0.3c-0.3 0.4-0.6 0.9-1 1.2h1.7zm-3.9 3.7c-0.1 0.3-0.2 0.5-0.3 0.8h3.5v3h-0.7v-0.4h-5.3v0.4h-0.7v-3h2.5c0.1-0.2 0.2-0.5 0.2-0.8h-2v-2.3h5.3v2.3zm2.5 1.5h-5.3v1.3h5.3zm-4.6-2.1h3.8v-1.1h-3.8z"
     id="path3257" /><path
     class="st1"
     d="m75.2 24.9c-0.2-0.3-0.6-1-0.9-1.5v4.6h-0.7v-4.6c-0.3 1.1-0.8 2.1-1.3 2.8-0.1-0.2-0.3-0.5-0.4-0.7 0.6-0.8 1.3-2.4 1.6-3.8h-1.4v-0.7h1.4v-2.1h0.7v2.1h1.2v0.7h-1.2v0.8c0.3 0.4 1.1 1.5 1.3 1.8zm3.9 0c0.6 0.8 1.5 1.7 2.3 2.1-0.2 0.1-0.4 0.4-0.5 0.6-0.7-0.5-1.6-1.4-2.2-2.3v2.7h-0.7v-2.6c-0.6 0.9-1.6 1.8-2.5 2.3-0.1-0.2-0.3-0.4-0.5-0.6 0.9-0.4 2-1.3 2.6-2.2h-1.7v-3.4h2v-0.8h-2.4v-0.7h2.5v-1.1h0.7v1.1h2.4v0.6h-2.4v0.8h2.1v3.4h-1.7zm-2.5-2h1.4v-0.8h-1.4zm0 1.4h1.4v-0.9h-1.4zm2.1-2.2v0.8h1.4v-0.8zm1.4 1.3h-1.4v0.9h1.4z"
     id="path3259" /><rect
     class="st0"
     x="8.7"
     y="50.4"
     width="83"
     height="29"
     id="rect3261" /><path
     class="st1"
     d="m35.9 67.5c0.7 1.1 2 1.7 3.7 2-0.2 0.2-0.3 0.5-0.5 0.6-1.9-0.3-3.3-1.2-4.1-2.6h-0.1c-0.5 1-1.6 1.9-3.9 2.6-0.1-0.2-0.3-0.4-0.5-0.6 1.9-0.5 3-1.2 3.5-2h-3.4v-0.7h3.7c0.1-0.3 0.2-0.6 0.2-0.9h-2.5v-0.6h2.8v-0.9h-2.9v-0.6h2.9v-0.8h0.7v0.8h3.1v-1.1h-6.9v1.2h-0.7v-1.9h3.8v-1h0.7v1h3.8v1.9h-0.7v0.5h-3.1v0.9h2.9v0.6h-3c0 0.3-0.1 0.6-0.2 0.9h4.2v0.7z"
     id="path3263" /><path
     class="st1"
     d="m43.5 64.1c-0.9 0.4-1.8 0.8-2.5 1l-0.3-0.6c0.7-0.2 1.7-0.6 2.7-1zm0.5-2.1h-3.1v-0.6h3.8v3.3c0 0.3-0.1 0.5-0.3 0.6-0.3 0.1-0.7 0.1-1.3 0.1 0-0.2-0.1-0.4-0.2-0.5h1c0.1 0 0.1 0 0.1-0.2zm-2.3 0.1c0.5 0.2 1 0.6 1.3 0.9l-0.4 0.5c-0.3-0.3-0.8-0.7-1.3-1zm3.8 3.1c-0.1 0.3-0.3 0.5-0.4 0.8h3.3v4.1h-0.7v-0.4h-4.8v0.4h-0.9v-4.1h2.3c0.1-0.3 0.3-0.7 0.4-0.9zm2.1 1.3h-4.8v1h4.8zm0 2.6v-1h-4.8v1zm-2.5-4.7c0.7-0.2 1.8-0.6 2.8-1l0.1 0.5c-0.9 0.3-1.9 0.7-2.6 1zm4.1 0.3c0 0.3-0.1 0.5-0.3 0.6-0.3 0.1-0.7 0.1-1.3 0.1 0-0.2-0.1-0.4-0.2-0.6h1c0.1 0 0.2 0 0.2-0.2v-2.6h-3.1v-0.6h3.8v3.3zm-2.3-1.2c-0.3-0.3-0.8-0.7-1.3-1l0.4-0.4c0.5 0.2 1 0.6 1.3 0.9z"
     id="path3265" /><path
     class="st1"
     d="m59.6 68.5v0.7h-8.9v-0.7h4v-5.7h-3.5v-0.8h7.9v0.8h-3.6v5.7z"
     id="path3267" /><path
     class="st1"
     d="m63.8 66.8c-1 0.5-2.1 1-2.9 1.4l-0.3-0.7c0.4-0.2 0.8-0.4 1.4-0.6v-3.1h-1.2v-0.7h1.2v-2.1h0.7v2.1h1.1v0.7h-1.1v2.8l1-0.5zm1.8-1.2c-0.1 0.2-0.3 0.5-0.4 0.7h4.3v0.3c-0.2 2.1-0.3 2.8-0.6 3.1-0.1 0.2-0.3 0.2-0.6 0.2h-1c0-0.2-0.1-0.5-0.2-0.6h0.8c0.1 0 0.2 0 0.3-0.1 0.2-0.2 0.3-0.8 0.4-2.4h-0.6c-0.4 1.2-1.2 2.5-2 3.1-0.1-0.1-0.3-0.3-0.5-0.4 0.8-0.5 1.5-1.6 1.9-2.7h-1c-0.5 1-1.5 2.1-2.4 2.7-0.1-0.2-0.3-0.3-0.5-0.5 0.8-0.5 1.7-1.3 2.2-2.2h-1c-0.4 0.5-0.8 0.8-1.3 1.1l-0.5-0.5c0.8-0.5 1.5-1.2 2-2h-1.4v-0.4h6.3v0.6zm3.4-1.2h-4.6v-3.2h4.6zm-0.7-2.6h-3.2v0.8h3.2zm0 1.3h-3.2v0.8h3.2z"
     id="path3269" /><rect
     class="st0"
     x="8.7"
     y="202.2"
     width="64.4"
     height="33.8"
     id="rect3271" /><path
     class="st1"
     d="m30.3 221.6h-2.3v1.6c0 0.4-0.1 0.6-0.4 0.7s-0.9 0.1-1.7 0.1c0-0.2-0.2-0.5-0.2-0.6h1.4c0.2 0 0.2 0 0.2-0.2v-1.6h-5.9v-0.6h5.9v-0.8h-4.9v-3.2h3.1v-0.7h-3.8v-0.6h3.8v-0.8h0.7v0.8h3.9v0.6h-3.9v0.7h3.2v3.2h-1.3v0.8h2.3v0.6zm-6.8 0.2c0.6 0.4 1.2 1 1.6 1.4l-0.6 0.5c-0.3-0.4-1-1-1.5-1.4zm-0.4-3.5h2.4v-0.8h-2.4zm0 1.4h2.4v-0.8h-2.4zm3.1-2.2v0.8h2.4v-0.8zm2.4 1.4h-2.4v0.8h2.4z"
     id="path3273" /><path
     class="st1"
     d="m35.3 221.1c-1.4 0.4-2.8 0.8-3.9 1.1l-0.2-0.8c0.4-0.1 1-0.2 1.6-0.4v-4.2h-1.5v-0.7h3.7v0.7h-1.5v4l1.7-0.4zm4.3-3.7c-0.3 1.7-0.8 3-1.6 4 0.7 0.8 1.5 1.5 2.5 1.9-0.2 0.2-0.4 0.4-0.5 0.6-1-0.4-1.9-1.1-2.5-1.9-0.8 0.8-1.8 1.5-3.1 2-0.1-0.2-0.3-0.5-0.4-0.7 1.3-0.4 2.3-1 3.1-1.9-0.5-0.9-1-1.9-1.3-3.1-0.2 0.5-0.5 0.9-0.8 1.3-0.1-0.1-0.5-0.3-0.6-0.4 0.9-1 1.6-2.7 2-4.4l0.6 0.2c-0.2 0.6-0.3 1.2-0.5 1.7h3.9v0.7zm-3.4 0c0.3 1.3 0.7 2.4 1.3 3.4 0.6-0.9 1-2 1.3-3.4z"
     id="path3275" /><path
     class="st1"
     d="m44.7 220.9c-0.2-0.3-0.6-1-0.9-1.5v4.6h-0.8v-4.4c-0.4 1-0.9 2-1.4 2.6-0.1-0.2-0.2-0.5-0.4-0.7 0.6-0.7 1.3-2 1.7-3.1h-1.6v-0.7h1.7v-1.5c-0.5 0.1-0.9 0.2-1.4 0.2 0-0.2-0.1-0.4-0.2-0.6 1.1-0.2 2.4-0.5 3.2-0.8l0.4 0.6c-0.4 0.2-0.8 0.3-1.3 0.4v1.7h1.5v0.7h-1.5v0.2c0.3 0.4 1.2 1.4 1.4 1.7zm4.5 0.5v2.6h-0.7v-2.5l-3.3 0.5-0.1-0.7 3.4-0.5v-5.9h0.7v5.8l1.2-0.2 0.1 0.7zm-1.9-1.3c-0.4-0.4-1.1-1.1-1.8-1.5l0.5-0.4c0.6 0.4 1.4 1 1.8 1.4zm0.2-2.7c-0.3-0.4-1-1-1.6-1.4l0.5-0.4c0.6 0.4 1.3 1 1.6 1.4z"
     id="path3277" /><path
     class="st1"
     d="m54.4 220.9c-0.2-0.3-0.6-1-0.9-1.5v4.6h-0.7v-4.6c-0.3 1.1-0.8 2.1-1.3 2.8-0.1-0.2-0.3-0.5-0.4-0.7 0.6-0.8 1.3-2.4 1.6-3.8h-1.4v-0.7h1.4v-2.1h0.7v2.1h1.2v0.7h-1.2v0.8c0.3 0.4 1.1 1.5 1.3 1.8zm3.9-0.1c0.6 0.8 1.5 1.7 2.3 2.1-0.2 0.1-0.4 0.4-0.5 0.6-0.7-0.5-1.6-1.4-2.2-2.3v2.8h-0.7v-2.6c-0.6 0.9-1.6 1.8-2.5 2.3-0.1-0.2-0.3-0.4-0.5-0.6 0.9-0.4 2-1.3 2.6-2.2h-1.7v-3.4h2v-0.8h-2.4v-0.7h2.4v-1.1h0.7v1.1h2.4v0.6h-2.4v0.8h2.2v3.4zm-2.5-1.9h1.4v-0.9h-1.4zm0 1.4h1.4v-0.9h-1.4zm2.1-2.3v0.8h1.4v-0.8zm1.4 1.4h-1.4v0.9h1.4z"
     id="path3279" /><rect
     class="st2"
     x="80.7"
     y="174.4"
     width="74.6"
     height="39.4"
     style="fill:#262523"
     id="rect3281" /><path
     class="st0"
     d="m92.8 191.9c-0.3 0.8-0.8 1.8-1.3 2.7 0.9 0.7 1.7 1.5 2.4 2.2l-1 1.1c-0.7-0.8-1.4-1.5-2.2-2.2-0.9 1.1-2 2.2-3.7 3.1l-1.1-1c1.6-0.8 2.8-1.8 3.8-2.9-0.7-0.6-1.7-1.3-2.7-1.9l0.8-1c0.8 0.5 1.8 1.2 2.7 1.8 0.5-0.8 0.8-1.6 1.1-2.4 0.1-0.3 0.2-0.7 0.2-0.9l1.5 0.5c-0.2 0.2-0.4 0.6-0.5 0.9z"
     style="fill:#e3e2dd"
     id="path3283" /><path
     class="st0"
     d="m99 192.6c1-0.6 2.2-1.6 2.8-2.4l1.1 1c-0.8 0.8-1.7 1.5-2.7 2.2v4c0 0.4 0 1.1 0.1 1.3h-1.6c0-0.2 0.1-0.9 0.1-1.3v-3.2c-1 0.5-2.3 1.1-3.5 1.4l-0.6-1.3c1.7-0.3 3.2-1 4.3-1.7z"
     style="fill:#e3e2dd"
     id="path3285" /><path
     class="st0"
     d="m107.8 196.1c1.7-1 3-2.5 3.6-3.9l0.8 1.4c-0.8 1.3-2.1 2.7-3.7 3.7-1 0.6-2.3 1.2-3.7 1.4l-0.8-1.3c1.5-0.2 2.8-0.7 3.8-1.3zm0-3.3-1 1c-0.5-0.6-1.8-1.6-2.5-2.2l0.9-1c0.7 0.6 2 1.6 2.6 2.2z"
     style="fill:#e3e2dd"
     id="path3287" /><path
     class="st0"
     d="m119.7 192.2c-0.3 0.8-0.9 1.8-1.6 2.7 1 0.9 2.2 2.1 2.8 2.9l-1.1 1c-0.6-0.9-1.6-1.9-2.5-2.8-1.1 1.1-2.4 2.2-3.8 2.8l-1-1.1c1.6-0.6 3.2-1.8 4.1-2.9 0.7-0.8 1.3-1.7 1.5-2.4h-3.4c-0.4 0-1 0.1-1.2 0.1v-1.5c0.3 0 0.9 0.1 1.2 0.1h3.5c0.4 0 0.8-0.1 1-0.1l0.8 0.6c0 0.1-0.2 0.4-0.3 0.6z"
     style="fill:#e3e2dd"
     id="path3289" /><path
     class="st0"
     d="m123 193.3h6.5c0.2 0 0.6 0 0.9-0.1v1.3h-3.3c-0.1 1-0.3 1.9-0.6 2.6s-1.1 1.5-2 1.9l-1.2-0.8c0.7-0.3 1.4-0.8 1.8-1.4s0.6-1.4 0.6-2.2h-3.7v-1.3c0.3-0.1 0.6 0 1 0zm1.2-2.6h4c0.3 0 0.7 0 1.1-0.1v1.3h-6.2v-1.3c0.4 0.1 0.8 0.1 1.1 0.1z"
     style="fill:#e3e2dd"
     id="path3291" /><path
     class="st0"
     d="m133.2 193.8h5.4c0.5 0 0.9 0 1.2-0.1v1.6c-0.2 0-0.8-0.1-1.2-0.1h-5.4c-0.6 0-1.2 0-1.6 0.1v-1.6c0.3 0 1.1 0.1 1.6 0.1z"
     style="fill:#e3e2dd"
     id="path3293" /><path
     class="st0"
     d="m144 194.1-0.7 1.1c-0.6-0.4-1.6-1.1-2.3-1.4l0.7-1.1c0.6 0.4 1.7 1.1 2.3 1.4zm0.8 2.3c1.7-1 3.1-2.3 3.9-3.7l0.8 1.4c-0.9 1.4-2.3 2.6-4 3.6-1 0.6-2.5 1.1-3.3 1.2l-0.7-1.3c1-0.2 2.2-0.6 3.3-1.2zm0.7-4.5-0.7 1.1c-0.6-0.4-1.6-1.1-2.3-1.4l0.7-1.1c0.7 0.3 1.8 1 2.3 1.4zm3 0.3-0.9 0.4c-0.3-0.6-0.5-1.1-0.9-1.6l0.8-0.3c0.3 0.4 0.7 1 1 1.5zm1.4-0.5-0.9 0.3c-0.3-0.6-0.6-1-0.9-1.5l0.8-0.3c0.3 0.4 0.7 1 1 1.5z"
     style="fill:#e3e2dd"
     id="path3295" /><polygon
     class="st0"
     points="310.1 222.4 310.1 194.4 206.1 194.4 206.1 164.4 310.1 164.4 310.1 135.4 173.1 135.4 173.1 222.4"
     id="polygon3297" /><path
     class="st1"
     d="m 247.7,170.4 v 0.8 h -9.1 v -0.8 z"
     id="path3299"
     style="fill:#262523;fill-opacity:1" /><path
     class="st1"
     d="m 252.3,171.1 v 3.6 c 0,0.3 -0.1,0.5 -0.3,0.6 -0.2,0.1 -0.6,0.1 -1.1,0.1 0,-0.2 -0.1,-0.4 -0.2,-0.6 h 0.9 c 0.1,0 0.2,0 0.2,-0.2 v -3.5 c -0.6,0.1 -1.2,0.1 -1.8,0.2 0,1.3 -0.1,3 -0.8,4.1 -0.1,-0.1 -0.4,-0.3 -0.5,-0.3 0.7,-1 0.7,-2.5 0.7,-3.7 l -0.6,0.1 -0.1,-0.6 0.7,-0.1 v -3.1 h 0.9 c 0.1,-0.4 0.3,-1 0.4,-1.4 l 0.8,0.2 c -0.2,0.4 -0.3,0.8 -0.5,1.2 h 1.5 v 2.8 l 0.5,-0.1 v 0.6 z m -2.4,-0.4 c 0.5,0 1.2,-0.1 1.8,-0.2 v -2.2 h -1.8 z m 0.8,-2 c 0.3,0.4 0.5,1 0.6,1.3 l -0.5,0.2 c -0.1,-0.4 -0.3,-0.9 -0.5,-1.4 z m 0.3,5.2 h -0.5 v -2.3 h 0.5 z m 6.3,-3.1 c -0.3,1.2 -0.9,2.2 -1.6,2.9 0.6,0.5 1.3,0.9 2.2,1.1 -0.2,0.1 -0.4,0.4 -0.5,0.6 -0.9,-0.3 -1.6,-0.7 -2.2,-1.2 -0.7,0.6 -1.4,1 -2.2,1.3 -0.1,-0.2 -0.3,-0.5 -0.4,-0.6 0.8,-0.2 1.5,-0.6 2.1,-1.1 -0.5,-0.6 -1,-1.4 -1.3,-2.2 l 0.6,-0.1 h -1 v -0.7 h 3.8 z m -3,-2.8 c 0,0.8 -0.2,1.7 -1,2.4 -0.1,-0.1 -0.4,-0.4 -0.5,-0.4 0.7,-0.6 0.8,-1.3 0.8,-2 v -1.3 h 2.9 v 2.6 h 0.7 c 0,0 0.1,-0.1 0.1,-0.2 v -0.8 c 0.1,0.1 0.4,0.2 0.5,0.3 0,0.4 0,0.8 -0.1,0.9 -0.1,0.2 -0.2,0.3 -0.3,0.3 -0.1,0.1 -0.3,0.1 -0.4,0.1 h -0.5 c -0.2,0 -0.4,0 -0.5,-0.2 -0.1,-0.1 -0.2,-0.3 -0.2,-0.8 v -1.6 h -1.5 z m -0.3,3.3 c 0.3,0.7 0.7,1.4 1.2,1.9 0.5,-0.5 0.9,-1.2 1.2,-1.9 z"
     id="path3301"
     style="fill:#262523;fill-opacity:1" /><path
     class="st1"
     d="m 261.8,172.3 c -0.2,-0.3 -0.6,-1 -0.9,-1.5 v 4.6 h -0.7 v -4.6 c -0.3,1.1 -0.8,2.1 -1.3,2.8 -0.1,-0.2 -0.3,-0.5 -0.4,-0.7 0.6,-0.8 1.3,-2.4 1.6,-3.8 h -1.4 v -0.7 h 1.4 v -2.1 h 0.7 v 2.1 h 1.2 v 0.7 h -1.2 v 0.8 c 0.3,0.4 1.1,1.5 1.3,1.8 z m 3.8,0 c 0.6,0.8 1.5,1.7 2.3,2.1 -0.2,0.1 -0.4,0.4 -0.5,0.6 -0.7,-0.5 -1.6,-1.4 -2.2,-2.3 v 2.8 h -0.7 v -2.6 c -0.6,0.9 -1.6,1.8 -2.5,2.3 -0.1,-0.2 -0.3,-0.4 -0.5,-0.6 0.9,-0.4 2,-1.3 2.6,-2.2 h -1.7 V 169 h 2 v -0.8 H 262 v -0.6 h 2.4 v -1.1 h 0.7 v 1.1 h 2.4 v 0.6 h -2.4 v 0.8 h 2.1 v 3.4 h -1.6 z m -2.5,-2 h 1.4 v -0.8 h -1.4 z m 0,1.4 h 1.4 v -0.9 h -1.4 z m 2.1,-2.3 v 0.8 h 1.4 v -0.8 z m 1.4,1.4 h -1.4 v 0.9 h 1.4 z"
     id="path3303"
     style="fill:#262523;fill-opacity:1" /><path
     class="st1"
     d="m229.2 210.4v3.6h-0.7v-3.4c-0.6 0.2-1.2 0.4-1.6 0.5l-0.2-0.7c0.5-0.1 1.1-0.3 1.8-0.5v-2.2h-0.9c-0.1 0.6-0.3 1.1-0.4 1.5-0.1-0.1-0.4-0.3-0.6-0.3 0.4-0.8 0.6-2.1 0.7-3.3l0.6 0.1c0 0.5-0.1 0.9-0.2 1.3h0.8v-2h0.7v2h1v0.7h-1v2l1.2-0.4 0.1 0.7zm6.5-3.8v0.4c-0.2 4.5-0.4 6.1-0.8 6.6-0.2 0.3-0.4 0.4-0.7 0.4h-1.1c0-0.2-0.1-0.5-0.2-0.7h1c0.2 0 0.3 0 0.4-0.2 0.3-0.3 0.5-1.8 0.7-5.8h-0.5c-0.5 2.6-1.6 5.3-3.3 6.6-0.1-0.2-0.4-0.3-0.6-0.4 1.6-1.2 2.7-3.6 3.2-6.1h-0.8c-0.4 1.7-1.4 3.6-2.5 4.5-0.1-0.2-0.4-0.3-0.6-0.4 1.1-0.8 1.9-2.5 2.4-4.1h-0.9c-0.3 0.7-0.7 1.4-1.1 1.9-0.1-0.1-0.4-0.3-0.6-0.4 0.8-0.9 1.4-2.3 1.7-3.8l0.7 0.1c-0.1 0.5-0.3 1-0.4 1.5h4z"
     id="path3305" /><path
     class="st1"
     d="m238.2 206.9c-0.1 0.6-0.4 1.3-0.9 1.8-0.1-0.2-0.3-0.4-0.5-0.5 0.7-0.6 0.8-1.4 0.8-2.1v-1l0.6 0.2c0.9-0.1 1.8-0.2 2.3-0.4l0.5 0.5c-0.7 0.2-1.8 0.4-2.7 0.4v0.6h3v0.6h-1.3v1.2h-0.7v-1.2h-1.1zm2.2 6c-0.8 0.5-2.1 0.9-3 1.2-0.1-0.1-0.4-0.4-0.5-0.6 1-0.2 2.2-0.6 2.9-1zm-2.3-4.5h6.5v4.1h-6.5zm0.7 1.2h5v-0.7h-5zm0 1.1h5v-0.7h-5zm0 1.2h5v-0.7h-5zm6.9-5.6v0.6h-1.5v1.3h-0.7v-1.3h-1.4c-0.1 0.5-0.4 1-1 1.4-0.1-0.2-0.3-0.4-0.5-0.5 0.8-0.5 1-1.2 1-1.7v-0.9l0.6 0.1c0.9-0.1 1.9-0.2 2.5-0.4l0.5 0.5c-0.8 0.2-1.9 0.3-2.9 0.4v0.5zm-3 6.3c1.1 0.3 2.3 0.8 3 1.1l-0.8 0.4c-0.6-0.3-1.7-0.7-2.8-1.1z"
     id="path3307" /><path
     class="st1"
     d="m249.8 210.9c-0.2-0.3-0.6-1-0.9-1.5v4.6h-0.7v-4.6c-0.3 1.1-0.8 2.1-1.3 2.8-0.1-0.2-0.3-0.5-0.4-0.7 0.6-0.8 1.3-2.4 1.6-3.8h-1.4v-0.7h1.4v-2.1h0.7v2.1h1.2v0.7h-1.2v0.8c0.3 0.4 1.1 1.5 1.3 1.8zm3.9 0c0.6 0.8 1.5 1.7 2.3 2.1-0.2 0.1-0.4 0.4-0.5 0.6-0.7-0.5-1.6-1.4-2.2-2.3v2.8h-0.7v-2.6c-0.6 0.9-1.6 1.8-2.5 2.3-0.1-0.2-0.3-0.4-0.5-0.6 0.9-0.4 2-1.3 2.6-2.2h-1.7v-3.4h2v-0.8h-2.4v-0.8h2.4v-1.1h0.7v1.1h2.4v0.6h-2.4v0.8h2.1v3.4h-1.6zm-2.5-2h1.4v-0.9h-1.4zm0 1.4h1.4v-0.9h-1.4zm2.1-2.3v0.8h1.4v-0.8zm1.4 1.4h-1.4v0.9h1.4z"
     id="path3309" /><rect
     class="st0"
     x="97.7"
     y="50.4"
     width="26"
     height="29"
     id="rect3311" /><path
     class="st1"
     d="m102.7 64.3h1.7v0.5h-1.7v0.7h1.4v1.9c0 0.2 0 0.4-0.2 0.5s-0.4 0.1-0.8 0.1c0-0.1-0.1-0.3-0.2-0.5h0.6c0.1 0 0.1 0 0.1-0.1v-1.4h-1v2.5h-0.5v-2.5h-0.9v2h-0.5v-2.4h1.4v-0.7h-1.7v-0.5h1.7v-0.7h-0.9c-0.1 0.3-0.2 0.5-0.4 0.7-0.1-0.1-0.3-0.2-0.5-0.2 0.3-0.5 0.6-1.2 0.7-1.8l0.5 0.1c-0.1 0.2-0.1 0.5-0.2 0.7h0.7v-1h0.5v1h1.4v0.5h-1.4v0.6zm2.7 2.3h-0.5v-3.9h0.5zm1.2-4.4v5.6c0 0.3-0.1 0.5-0.3 0.6s-0.6 0.1-1.1 0.1c0-0.1-0.1-0.4-0.2-0.5h0.9c0.1 0 0.1 0 0.1-0.2v-5.6z"
     id="path3313" /><path
     class="st1"
     d="m109.2 63.6c-0.1 0.3-0.3 0.6-0.5 0.9v4h-0.5v-3.3c-0.2 0.3-0.4 0.5-0.6 0.7-0.1-0.1-0.2-0.4-0.3-0.5 0.5-0.5 1.1-1.2 1.4-2zm-0.2-1.3c-0.3 0.6-0.9 1.2-1.4 1.6-0.1-0.1-0.2-0.3-0.3-0.4 0.4-0.4 0.9-0.9 1.2-1.4zm2.8 4.9v0.4c-1 0.2-2 0.3-2.8 0.4l-0.1-0.5h0.4v-2.2h0.4v2.1l0.6-0.1v-2.6h-1.2v-0.5h1.2v-1.1h-0.5c-0.1 0.3-0.3 0.6-0.4 0.9-0.1-0.1-0.3-0.2-0.4-0.2 0.3-0.5 0.6-1.1 0.7-1.8l0.5 0.1c0 0.2-0.1 0.4-0.2 0.7h1.7v0.5h-0.9v1.1h0.9v0.5h-0.9v0.8h0.9v0.4h-0.9v1.2zm1.9-0.3c0 0.2 0 0.4-0.2 0.5-0.1 0.1-0.4 0.1-0.7 0.1 0-0.1-0.1-0.3-0.1-0.5h0.5c0.1 0 0.1 0 0.1-0.1v-3.8h-0.8v5.4h-0.5v-5.9h1.8v4.3z"
     id="path3315" /><path
     class="st1"
     d="m116.7 66.3c-0.1-0.2-0.4-0.7-0.6-1.1v3.3h-0.5v-3.3c-0.2 0.8-0.6 1.5-0.9 2-0.1-0.1-0.2-0.3-0.3-0.5 0.4-0.6 0.9-1.7 1.1-2.6h-1v-0.5h1v-1.5h0.5v1.5h0.9v0.5h-0.9v0.5c0.2 0.3 0.8 1.1 0.9 1.3zm2.7 0c0.4 0.6 1.1 1.2 1.6 1.5l-0.4 0.4c-0.5-0.4-1.1-1-1.5-1.6v1.9h-0.5v-1.9c-0.5 0.7-1.1 1.2-1.7 1.6-0.1-0.1-0.2-0.3-0.4-0.4 0.7-0.3 1.4-0.9 1.8-1.5h-1.2v-2.4h1.4v-0.6h-1.7v-0.4h1.7v-0.8h0.5v0.8h1.7v0.4h-1.7v0.6h1.5v2.4zm-1.8-1.4h1v-0.6h-1zm0 1h1v-0.6h-1zm1.5-1.6v0.6h1v-0.6zm1 1h-1v0.6h1z"
     id="path3317" /><polygon
     class="st0"
     points="242.1 42.4 242.1 8.4 173.1 8.4 173.1 42.4 190.1 42.4 190.1 60.4 173.1 60.4 173.1 94.4 242.1 94.4 242.1 60.4 203.1 60.4 203.1 42.4"
     id="polygon3319" /><path
     class="st1"
     d="m196.9 22v8.6h-0.8v-0.5h-6.7v0.5h-0.7v-8.6zm-0.7 7.4v-6.7h-6.7v6.7zm-1.1-0.5c-0.5-0.5-1.3-1-2.2-1.5-0.8 0.7-1.6 1.3-2.6 1.8-0.1-0.1-0.3-0.4-0.5-0.6 0.9-0.4 1.7-0.9 2.4-1.6-0.7-0.4-1.4-0.7-2.1-1l0.4-0.5c0.7 0.3 1.5 0.6 2.2 1 0.8-0.9 1.5-1.9 2-3.1l0.7 0.2c-0.5 1.2-1.2 2.3-2.1 3.2 0.8 0.5 1.6 1 2.1 1.4zm-4.1-3.5c-0.1-0.5-0.5-1.2-0.9-1.7l0.5-0.2c0.4 0.5 0.8 1.2 0.9 1.7zm1.7-0.2c-0.1-0.5-0.4-1.3-0.7-1.9l0.6-0.2c0.4 0.6 0.7 1.3 0.8 1.8z"
     id="path3321" /><path
     class="st1"
     d="m207.2 26.6v0.5h-8.8v-0.5h4v-0.6h-3.3v-0.5h3.3v-0.5h-3.1v-0.5h3.1v-0.6h-4v-0.6h4v-0.6h-2.9v-0.5h2.9v-0.7h0.7v0.7h2.9v1.1h1.2v0.6h-1.2v1.1h-2.9v0.5h3.4v0.5h-3.4v0.6zm-7.5 1h6.4v3.1h-0.7v-0.3h-4.9v0.3h-0.7v-3.1zm0.7 0.5v0.6h4.9v-0.6zm4.9 1.7v-0.6h-4.9v0.6zm-2.1-6.5h2.1v-0.6h-2.1zm0 1.1h2.1v-0.6h-2.1z"
     id="path3323" /><path
     class="st1"
     d="m211.2 27.7c0.5 0.7 1.1 1.6 1.3 2.2l-0.6 0.3c-0.1-0.2-0.2-0.5-0.4-0.9-1 0.3-2.1 0.6-3 0.8l-0.2-0.7 0.7-0.2v-5.2c-0.1 0.1-0.3 0.2-0.4 0.4-0.1-0.1-0.3-0.4-0.5-0.5 1-0.7 1.6-1.8 2-2.6h0.7c0.6 0.5 1.3 1.2 1.6 1.7l-0.5 0.5c-0.3-0.5-0.9-1.2-1.4-1.7-0.3 0.6-0.8 1.3-1.5 2h1.2v-0.9h0.6v0.9h1.1v3.2h-2.4v1.9c0.5-0.1 1-0.2 1.5-0.4-0.2-0.3-0.4-0.6-0.5-0.8zm-1.6-3v0.8h1.7v-0.8zm1.7 2.1v-0.8h-1.7v0.8zm2.4-0.1v0.8h3.3v3.1h-0.7v-0.4h-2.7v0.5h-0.6v-6.4h-0.6v-1.7h2v-1.1h0.7v1.1h2.1v1.7h-0.6v2.4zm-0.6-3.5v1h3.5v-1zm2.9 1.6h-2.3v1.2h2.3zm-2.3 3.3v1.4h2.7v-1.4z"
     id="path3325" /><path
     class="st1"
     d="m221.4 27.5c-0.2-0.3-0.6-1-0.9-1.5v4.6h-0.7v-4.6c-0.3 1.1-0.8 2.1-1.3 2.8-0.1-0.2-0.3-0.5-0.4-0.7 0.6-0.8 1.3-2.4 1.6-3.8h-1.4v-0.7h1.4v-2.1h0.7v2.1h1.2v0.7h-1.2v0.8c0.3 0.4 1.1 1.5 1.3 1.8zm3.9 0c0.6 0.8 1.5 1.7 2.3 2.1-0.2 0.1-0.4 0.4-0.5 0.6-0.7-0.5-1.6-1.4-2.2-2.3v2.8h-0.7v-2.7c-0.6 0.9-1.6 1.8-2.5 2.3-0.1-0.2-0.3-0.4-0.5-0.6 0.9-0.4 2-1.3 2.6-2.2h-1.7v-3.4h2v-0.8h-2.4v-0.6h2.4v-1.1h0.7v1.1h2.4v0.6h-2.4v0.8h2.1v3.4zm-2.5-2h1.4v-0.8h-1.4zm0 1.4h1.4v-0.9h-1.4zm2.1-2.2v0.8h1.4v-0.8zm1.4 1.3h-1.4v0.9h1.4z"
     id="path3327" /><path
     class="st1"
     d="m 207.40962,79.353115 h -4 v 1.9 c 0,0.4 -0.1,0.7 -0.5,0.8 -0.4,0.1 -0.9,0.1 -1.8,0.1 0,-0.2 -0.2,-0.5 -0.3,-0.7 h 1.6 c 0.2,0 0.3,-0.1 0.3,-0.2 v -1.9 h -4 v -0.7 h 4 v -0.7 h 0.4 c 0.5,-0.2 1,-0.6 1.4,-0.9 h -4.1 v -0.7 h 5.1 l 0.5,0.4 c -0.6,0.6 -1.5,1.3 -2.4,1.7 v 0.2 h 4 v 0.7 z m -7.9,-2.4 h -0.7 v -2.2 h 1.5 c -0.2,-0.4 -0.5,-0.9 -0.8,-1.2 l 0.6,-0.3 c 0.4,0.4 0.8,1 1,1.4 l -0.3,0.2 h 2 c -0.1,-0.4 -0.4,-1 -0.7,-1.5 l 0.6,-0.2 c 0.3,0.5 0.7,1.1 0.8,1.5 l -0.4,0.2 h 1.8 c 0.4,-0.5 0.8,-1.1 1.1,-1.6 l 0.8,0.3 c -0.3,0.4 -0.7,0.9 -1,1.3 h 1.5 v 2.2 h -0.7 v -1.5 h -7 v 1.4 z"
     id="path3329" /><path
     class="st1"
     d="m 217.40962,81.153115 v 0.7 h -8.9 v -0.7 h 4 v -2.5 h -3 v -0.7 h 3 v -2.2 h -2.3 c -0.3,0.6 -0.7,1.2 -1,1.6 -0.1,-0.1 -0.5,-0.3 -0.7,-0.4 0.8,-0.9 1.5,-2.3 1.8,-3.7 l 0.7,0.2 c -0.2,0.5 -0.3,1.1 -0.6,1.6 h 2 v -2 h 0.8 v 1.9 h 3.6 v 0.7 h -3.4 v 2.2 h 3.2 v 0.7 h -3.2 v 2.5 h 4 z"
     id="path3331" /><path
     class="st1"
     d="m 223.30962,73.053115 c 1,1.5 2.8,2.8 4.4,3.4 -0.2,0.2 -0.3,0.4 -0.5,0.7 -1.5,-0.7 -3.3,-2.1 -4.2,-3.4 -0.8,1.2 -2.4,2.6 -4.1,3.4 -0.1,-0.2 -0.3,-0.4 -0.4,-0.6 1.7,-0.8 3.4,-2.3 4.1,-3.5 z m -4.4,5 h 8.2 v 0.7 h -4.7 c -0.3,0.7 -0.8,1.6 -1.2,2.3 1.2,0 2.6,-0.1 4,-0.1 -0.4,-0.5 -0.9,-1 -1.3,-1.3 l 0.6,-0.3 c 0.9,0.8 1.9,1.9 2.3,2.6 l -0.7,0.4 c -0.1,-0.2 -0.3,-0.4 -0.5,-0.7 -2.4,0.1 -5,0.2 -6.7,0.3 l -0.1,-0.7 h 1.5 c 0.4,-0.7 0.8,-1.6 1.1,-2.3 h -2.6 v -0.9 z m 6.5,-1.9 v 0.7 h -4.7 v -0.7 z"
     id="path3333" /><path
     class="st1"
     d="m 231.40962,79.253115 c 0.5,0.7 1.1,1.6 1.3,2.2 l -0.6,0.3 c -0.1,-0.2 -0.2,-0.5 -0.4,-0.9 -1,0.3 -2.1,0.6 -3,0.8 l -0.2,-0.7 0.7,-0.2 v -5.2 c -0.1,0.1 -0.3,0.2 -0.4,0.4 -0.1,-0.1 -0.3,-0.4 -0.5,-0.5 1,-0.7 1.6,-1.8 2,-2.6 h 0.7 c 0.6,0.5 1.3,1.2 1.6,1.7 l -0.5,0.5 c -0.3,-0.5 -0.9,-1.2 -1.4,-1.7 -0.3,0.6 -0.8,1.3 -1.5,2 h 1.2 v -0.9 h 0.6 v 0.9 h 1.1 v 3.2 h -2.4 v 1.9 c 0.5,-0.1 1,-0.2 1.5,-0.4 -0.2,-0.3 -0.4,-0.6 -0.5,-0.8 z m -1.6,-3 v 0.8 h 1.7 v -0.8 z m 1.7,2.1 v -0.8 h -1.7 v 0.8 z m 2.4,-0.1 v 0.8 h 3.3 v 3.1 h -0.7 v -0.4 h -2.7 v 0.5 h -0.7 v -6.4 h -0.6 v -1.7 h 2 v -1.1 h 0.7 v 1.1 h 2.1 v 1.7 h -0.6 v 2.4 z m -0.6,-3.5 v 1 h 3.5 v -1 z m 2.8,1.6 h -2.3 v 1.2 h 2.3 z m -2.2,3.3 v 1.4 h 2.7 v -1.4 z"
     id="path3335" /><rect
     class="st0"
     x="255.1"
     y="60.4"
     width="47"
     height="34"
     id="rect3337" /><path
     class="st1"
     d="m264.6 70.6c0 0.2-0.1 0.5-0.1 0.8 0.6 0 1.2 0 1.6-0.1v0.6c-0.5 0-1 0.1-1.6 0.1h-0.1c-0.1 0.5-0.1 1-0.2 1.4h0.2c0.5 0 1.1 0 1.7-0.1v0.6c-0.5 0.1-1 0.1-1.6 0.1h-0.3v0.8c0 0.8 0.4 1.3 1.3 1.3 1.2 0 2-0.5 2-1.4 0-0.5-0.3-1.1-0.9-1.6l0.7-0.1c0.6 0.6 0.8 1.2 0.8 1.8 0 1.2-1.1 1.9-2.6 1.9-1.1 0-2-0.5-2-1.8 0-0.2 0-0.5 0.1-0.9-0.6 0-1.2-0.1-1.7-0.3v-0.6c0.5 0.2 1.1 0.3 1.7 0.3 0-0.5 0.1-1 0.2-1.4-0.6 0-1.2-0.2-1.7-0.3v-0.6c0.5 0.2 1.2 0.3 1.8 0.3 0-0.3 0.1-0.6 0.1-0.8v-0.6h0.7c-0.1 0.2-0.1 0.4-0.1 0.6z"
     id="path3339" /><path
     class="st1"
     d="m272.9 76.6-0.4-0.6c0.3 0 0.5-0.1 0.7-0.1 1-0.2 2-1 2-2.4 0-1.2-0.8-2.2-2.1-2.3-0.1 0.7-0.3 1.6-0.5 2.3-0.5 1.6-1.1 2.5-1.9 2.5-0.7 0-1.4-0.8-1.4-2.1 0-1.7 1.5-3.3 3.5-3.3 1.9 0 3.1 1.3 3.1 2.9 0 1.7-1.1 2.8-3 3.1zm-2.1-1.4c0.4 0 0.8-0.5 1.2-1.9 0.2-0.7 0.4-1.4 0.4-2.2-1.5 0.2-2.5 1.5-2.5 2.6s0.5 1.5 0.9 1.5z"
     id="path3341" /><path
     class="st1"
     d="m277.7 72c0.7-0.2 2.2-0.8 3.4-0.8 1.3 0 2.4 0.8 2.4 2.1 0 1.9-1.9 2.8-4.4 3l-0.3-0.7c2.1-0.1 4-0.7 4-2.3 0-0.8-0.6-1.5-1.7-1.5-1.3 0-3.3 0.9-4 1.1l-0.3-0.7c0.3 0 0.6-0.1 0.9-0.2zm5.3-0.9-0.4 0.2c-0.2-0.3-0.4-0.8-0.6-1.1l0.4-0.2c0.2 0.3 0.5 0.8 0.6 1.1zm0.9-0.3-0.4 0.2c-0.2-0.3-0.4-0.8-0.7-1.1l0.4-0.2c0.3 0.3 0.6 0.8 0.7 1.1z"
     id="path3343" /><path
     class="st1"
     d="m288.1 70.9c-0.5 0.5-1.7 1.4-2.3 1.9-0.5 0.4-0.5 0.5 0 1 0.7 0.6 2.1 1.7 3 2.6l-0.6 0.5-0.6-0.6c-0.6-0.6-1.8-1.6-2.5-2.2-0.8-0.6-0.7-1 0.1-1.6l2.4-2 0.5-0.5 0.6 0.5c-0.2 0-0.4 0.2-0.6 0.4z"
     id="path3345" /><path
     class="st1"
     d="m291.5 72.2c0.3-0.8 1.2-1.8 2.2-1.8 1.1 0 1.8 1.1 1.8 2.7 0 2.2-1.4 3.2-3.4 3.6l-0.4-0.6c1.7-0.3 3.1-1 3.1-3 0-1.3-0.4-2.2-1.3-2.2-1 0-1.9 1.5-2 2.5v1h-0.6c0-0.3-0.1-0.8-0.1-1.3 0-0.8 0.2-1.9 0.2-2.6 0-0.2 0-0.5 0.1-0.7h0.7c-0.1 0.8-0.2 1.9-0.3 2.4z"
     id="path3347" /><path
     class="st1"
     d="m278.3 85.3v0.6h-7.1v-0.6h3.2v-4.6h-2.8v-0.6h6.3v0.6h-2.9v4.6z"
     id="path3349" /><path
     class="st1"
     d="m282.8 83.6c0 0.2-0.1 0.4-0.1 0.6h2.8v0.2c-0.1 1.2-0.2 1.7-0.4 1.9-0.1 0.1-0.3 0.2-0.5 0.2h-1.1c0-0.1-0.1-0.4-0.2-0.5h1c0.2 0 0.2 0 0.3-0.1s0.2-0.5 0.3-1.3h-2.3c-0.3 0.8-0.9 1.4-2.1 1.8-0.1-0.1-0.2-0.4-0.3-0.5 1.6-0.4 2-1.3 2.1-2.5h-1.7c-0.1 1-0.4 2-1 2.8-0.1-0.1-0.4-0.3-0.5-0.3 0.9-1 1-2.5 1-3.5v-1.8h5.6v1.7h-2.3v0.7h3v0.5h-3.6zm3.3-3.4h-6.7v-0.5h6.7zm-5.5 2.3v0.6h2.2v-0.7zm0-1.3v0.8h4.5v-0.8z"
     id="path3351" /><rect
     class="st2"
     x="331.6"
     y="135.4"
     width="58.5"
     height="82"
     style="fill:#262523"
     id="rect3353" /><path
     class="st0"
     d="m345.6 173.8h-1.7c0.2 0.2 0.3 0.5 0.4 0.7l-0.9 0.4h1.4v2.6h-3.1v0.6h3.7v0.4c-0.1 1.3-0.2 2-0.5 2.2-0.2 0.2-0.4 0.3-0.8 0.3h-1.3c0-0.3-0.2-0.8-0.3-1.1 0.4 0 0.8 0.1 1 0 0.1 0 0.2 0 0.3-0.1s0.2-0.4 0.2-0.9h-2.4v2.5h-1.1v-2c-0.9 0.8-2 1.5-3.2 1.9-0.2-0.3-0.5-0.7-0.7-0.9 1-0.3 2.2-0.8 3-1.4h-1.2l-0.1 0.2-1.2-0.1c0.2-0.7 0.5-1.8 0.7-2.6h2.7v-0.6h-3.1v-1h1.3c-0.1-0.3-0.3-0.7-0.5-1h-0.1c-0.3 0.4-0.6 0.8-0.9 1.1-0.2-0.2-0.7-0.5-1-0.6 0.6-0.5 1.2-1.4 1.6-2.3l1.1 0.3c-0.1 0.2-0.2 0.4-0.2 0.5h2.2v0.8c0.4-0.5 0.7-1 1-1.6l1.1 0.3c-0.1 0.2-0.2 0.4-0.2 0.6h2.8zm-5.1 3.6h-1.7l-0.1 0.6h1.9v-0.6zm-1-3.6c0.1 0.2 0.2 0.5 0.3 0.7l-0.8 0.4h2.3c-0.2-0.2-0.7-0.5-0.9-0.6 0.1-0.1 0.3-0.2 0.4-0.4h-1.3zm3.8 1.1c-0.1-0.3-0.4-0.7-0.6-1h-0.4c-0.3 0.4-0.6 0.8-0.9 1zm0.3 0.9h-2v0.6h2z"
     style="fill:#e3e2dd"
     id="path3355" /><path
     class="st0"
     d="m355.7 176.1v1.3h-9.2v-1.3z"
     style="fill:#e3e2dd"
     id="path3357" /><path
     class="st0"
     d="m359.5 172.5c-0.2 0.6-0.5 1.3-0.8 1.9v7h-1.1v-5.1c-0.2 0.3-0.4 0.5-0.6 0.8-0.1-0.3-0.4-0.9-0.7-1.2 0.8-0.9 1.6-2.3 2.1-3.7zm4 2.5c0.5 1.5 1.5 3.1 2.4 4-0.3 0.2-0.7 0.6-0.9 0.9-0.3-0.3-0.5-0.7-0.8-1.1v0.9h-1.3v1.6h-1.2v-1.6h-1.3v-0.9c-0.3 0.4-0.6 0.8-0.9 1.1-0.2-0.3-0.6-0.7-0.8-0.9 1-0.9 1.9-2.5 2.5-4.1h-2v-1.1h2.5v-1.7h1.2v1.7h2.8v1.1h-2.2zm-1.7 3.7v-2.5c-0.3 0.9-0.8 1.8-1.2 2.5zm2.3 0c-0.5-0.8-0.9-1.7-1.2-2.6v2.6z"
     style="fill:#e3e2dd"
     id="path3359" /><path
     class="st0"
     d="m373.5 174c0.7 0.5 1.6 1.2 2 1.7l-1 0.7-0.6-0.6c-2.5 0.1-5.1 0.2-6.8 0.2v-1.1h1.4c0.2-0.3 0.4-0.6 0.5-0.8h-2.3v-1h3.8v-0.8h1.2v0.8h3.8v1h-2zm0.7 6.4c0 0.6-0.1 0.8-0.5 1-0.4 0.1-1 0.2-1.8 0.2-0.1-0.3-0.2-0.7-0.3-1h1.3c0.2 0 0.2 0 0.2-0.2v-0.5h-3.8v1.6h-1.3v-5.1h6.2zm-5-3.1v0.5h3.8v-0.5zm3.8 1.8v-0.5h-3.8v0.5zm-2.6-5.1c-0.2 0.3-0.5 0.6-0.7 0.8h3.1c-0.2-0.2-0.4-0.4-0.6-0.5l0.5-0.3z"
     style="fill:#e3e2dd"
     id="path3361" /><path
     class="st0"
     d="m382.3 177.5v0.6h3.1v3.2h-1.1v-0.3h-2v0.5h-1.1v-6.4h-0.6v-1.1l-0.6 0.7c-0.2-0.4-0.8-1.1-1.2-1.5-0.3 0.5-0.7 1.1-1.3 1.7h0.9v-0.9h1v0.8h1v3.4h-2.3v1.4c0.3-0.1 0.7-0.2 1.1-0.2-0.1-0.2-0.3-0.5-0.4-0.7l0.9-0.4c0.5 0.7 1 1.7 1.1 2.3l-1 0.5c-0.1-0.2-0.1-0.5-0.3-0.8-1 0.3-2 0.6-2.8 0.8l-0.3-1.1c0.2 0 0.4-0.1 0.6-0.1v-4.7l-0.1 0.1c-0.1-0.2-0.5-0.6-0.7-0.8 0.9-0.7 1.5-1.6 1.8-2.4h1.1c0.5 0.4 1.2 1 1.5 1.5v-0.5h1.9v-1h1.1v1h2v1.9h-0.6v2.5zm-4.2-1.8v0.5h1.2v-0.5zm1.2 1.7v-0.5h-1.2v0.5zm2.4-3.3v0.7h2.8v-0.7zm2.2 1.7h-1.6v0.8h1.6zm-1.6 3.3v0.9h2v-0.9z"
     style="fill:#e3e2dd"
     id="path3363" /><polygon
     class="st0"
     points="110.7 109.4 110.7 89.4 8.7 89.4 8.7 109.4 49.7 109.4 49.7 135.9 8.7 135.9 8.7 155.9 110.7 155.9 110.7 135.9 69.7 135.9 69.7 109.4"
     id="polygon3365" /><path
     class="st1"
     d="m53.3 101.4c-0.3 0.6-0.7 1.1-1.2 1.6 0.3 0.5 0.6 0.8 1 0.8 0.3 0 0.4-0.2 0.4-1.1 0.1 0.1 0.4 0.3 0.5 0.3-0.1 1.1-0.3 1.4-1 1.4-0.6 0-1.1-0.4-1.4-1-0.5 0.4-1.1 0.7-1.7 1-0.1-0.1-0.3-0.3-0.4-0.5 0.7-0.3 1.3-0.6 1.9-1.1-0.2-0.5-0.4-1.1-0.5-1.9h-1.6c0 0.2 0 0.4-0.1 0.6 0.5 0.3 1.1 0.7 1.4 1l-0.4 0.5c-0.2-0.2-0.7-0.5-1.1-0.8-0.2 0.9-0.6 1.7-1.3 2.2-0.1-0.1-0.3-0.4-0.4-0.5 0.9-0.6 1.2-1.7 1.3-2.9h-0.7v-0.6l-0.3 0.4c-0.1-0.3-0.4-0.9-0.7-1.4v5h-0.7v-4.6c-0.3 1.1-0.7 2.1-1.1 2.7-0.1-0.2-0.2-0.5-0.4-0.6 0.6-0.8 1.1-2.4 1.4-3.8h-1.2v-0.7h1.3v-2.2h0.7v2.2h1v0.7h-1.1v0.4c0.3 0.4 0.9 1.4 1.1 1.7v0.1h2.8c-0.2-1.4-0.3-3.2-0.3-5.1h0.7c0 1.9 0.1 3.7 0.3 5.1h1.4c-0.2-0.2-0.6-0.4-0.8-0.6l0.3-0.4c0.4 0.2 0.8 0.5 1.1 0.7l-0.2 0.2h0.8v0.6h-2.4c0.1 0.5 0.2 1 0.4 1.4 0.3-0.4 0.6-0.8 0.8-1.2zm-5.1-2.4c0.2-0.3 0.4-0.6 0.7-1-0.3-0.3-0.7-0.7-1.1-1l0.3-0.4c0.1 0.1 0.2 0.1 0.2 0.2 0.2-0.4 0.5-1 0.6-1.4l0.6 0.2c-0.3 0.5-0.6 1.1-0.8 1.5 0.2 0.1 0.3 0.3 0.4 0.4 0.2-0.4 0.5-0.8 0.6-1.2l0.5 0.3c-0.4 0.7-1 1.6-1.5 2.3l1-0.1-0.3-0.6 0.5-0.2c0.3 0.4 0.5 1.1 0.6 1.4l-0.5 0.4c0-0.1 0-0.2-0.1-0.3-0.7 0.1-1.4 0.1-2 0.2l-0.1-0.7zm3.4-0.1c0.2-0.2 0.4-0.5 0.6-0.9-0.2-0.3-0.7-0.7-1-1l0.3-0.4c0.1 0.1 0.2 0.1 0.2 0.2 0.2-0.4 0.5-1 0.6-1.4l0.6 0.2c-0.2 0.5-0.6 1.1-0.8 1.5l0.4 0.4c0.2-0.4 0.5-0.8 0.6-1.2l0.5 0.3c-0.4 0.7-1 1.6-1.4 2.2l1.1-0.1-0.3-0.6 0.5-0.2c0.3 0.5 0.5 1.1 0.6 1.4l-0.5 0.2c0-0.1-0.1-0.3-0.1-0.4-0.7 0.1-1.5 0.1-2.1 0.2l-0.1-0.6z"
     id="path3367" /><path
     class="st1"
     d="m59 97.5h-3.1v1.4h-0.7v-1.9h3.8v-0.6h-3.2v-0.6h7.3v0.6h-3.3v0.6h3.9v1.9h-0.7v-1.4h-3.2v2.3h-0.8zm3.7 6.2c0.5 0 0.6-0.2 0.7-1.2 0.2 0.1 0.4 0.2 0.6 0.2-0.1 1.2-0.3 1.5-1.3 1.5h-2.3c-1.1 0-1.4-0.2-1.4-1v-0.2h-2.2v0.5h-0.7v-3.5h6.7v2.9h-3.1v0.3c0 0.3 0.1 0.4 0.8 0.4h2.2zm-6.5-4.7h2.3v0.5h-2.3zm2.3-0.5h-2.1v-0.5h2.1zm-1.7 2.1v0.7h2.2v-0.7zm2.2 1.9v-0.7h-2.2v0.7zm3.1-1.9h-2.4v0.7h2.4zm0 1.9v-0.7h-2.4v0.7zm0.3-4.5v0.5h-2.1v-0.5zm-2.1 1h2.4v0.5h-2.4z"
     id="path3369" /><path
     class="st1"
     d="m68 101.3c-0.2-0.3-0.6-1-0.9-1.5v4.6h-0.7v-4.6c-0.3 1.1-0.8 2.1-1.3 2.8-0.1-0.2-0.3-0.5-0.4-0.7 0.6-0.8 1.3-2.4 1.6-3.8h-1.3v-0.7h1.4v-2.1h0.7v2.1h1.2v0.7h-1.2v0.8c0.3 0.4 1.1 1.5 1.3 1.8zm3.9 0c0.6 0.8 1.5 1.7 2.3 2.1-0.2 0.1-0.4 0.4-0.5 0.6-0.7-0.5-1.6-1.4-2.2-2.3v2.8h-0.7v-2.6c-0.6 0.9-1.6 1.8-2.5 2.3-0.1-0.2-0.3-0.4-0.5-0.6 0.9-0.4 2-1.3 2.6-2.2h-1.7v-3.4h2v-0.8h-2.4v-0.6h2.4v-1.1h0.7v1.1h2.4v0.6h-2.4v0.8h2.1v3.4h-1.6zm-2.5-2h1.4v-0.8h-1.4zm0 1.4h1.4v-0.9h-1.4zm2.1-2.3v0.8h1.4v-0.8zm1.4 1.4h-1.4v0.9h1.4z"
     id="path3371" /><path
     class="st1"
     d="m54.2 143.2h-2.2c0.2 0.3 0.4 0.6 0.5 0.8l-0.7 0.2c-0.1-0.3-0.4-0.7-0.7-1h-0.8l-0.6 0.6h0.3v0.8h3.9v1.9h-0.7v-1.3h-6.9v1.3h-0.7v-1.9h3.8v-0.6c-0.1-0.1-0.3-0.2-0.4-0.2 0.2-0.2 0.4-0.3 0.6-0.5h-1.8c0.2 0.3 0.3 0.6 0.4 0.8l-0.7 0.2c-0.1-0.3-0.3-0.7-0.5-1h-0.4c-0.3 0.4-0.6 0.8-0.9 1.1-0.1-0.1-0.4-0.3-0.6-0.4 0.6-0.5 1.1-1.3 1.4-2.1l0.7 0.2-0.3 0.6h2.6v0.6c0.4-0.4 0.7-0.9 0.9-1.4l0.7 0.2-0.3 0.6h3.4zm-6.6 5.2h5.4v2.4h-0.7v-0.3h-4.7v0.3h-0.7v-5.1h5.5v2h-4.8zm0-2v0.8h4v-0.8zm0 2.6v1h4.7v-1z"
     id="path3373" /><path
     class="st1"
     d="m58.3 148.8c-1.1 0.4-2.2 0.8-3.1 1l-0.2-0.8c0.4-0.1 0.8-0.2 1.3-0.4v-2.6h-1.1v-0.7h1.1v-2.2h-1.2v-0.7h3.1v0.7h-1.1v2.2h1v0.7h-1v2.5l1.1-0.4zm6 1.1v0.7h-6.4v-0.7h3v-1.4h-2.3v-0.7h2.3v-1.2h-2.1v-4.4h5.1v4.4h-2.2v1.2h2.3v0.7h-2.3v1.4zm-4.9-5.7h1.5v-1.3h-1.5zm0 1.8h1.5v-1.3h-1.5zm3.7-3.1h-1.5v1.3h1.5zm0 1.9h-1.5v1.3h1.5z"
     id="path3375" /><path
     class="st1"
     d="m68.2 147.8c-0.2-0.3-0.6-1-0.9-1.5v4.6h-0.7v-4.6c-0.3 1.1-0.8 2.1-1.3 2.8-0.1-0.2-0.3-0.5-0.4-0.7 0.6-0.8 1.3-2.4 1.6-3.8h-1.4v-0.7h1.4v-2.1h0.7v2.1h1.2v0.7h-1.2v0.8c0.3 0.4 1.1 1.5 1.3 1.8zm3.9-0.1c0.6 0.8 1.5 1.7 2.3 2.1-0.2 0.1-0.4 0.4-0.5 0.6-0.7-0.5-1.6-1.4-2.2-2.3v2.8h-0.7v-2.6c-0.6 0.9-1.6 1.8-2.5 2.3-0.1-0.2-0.3-0.4-0.5-0.6 0.9-0.4 2-1.3 2.6-2.2h-1.7v-3.4h2v-0.8h-2.4v-0.6h2.5v-1.1h0.7v1.1h2.4v0.6h-2.4v0.8h2.1v3.4h-1.7zm-2.5-1.9h1.4v-0.8h-1.4zm0 1.4h1.4v-0.9h-1.4zm2.1-2.3v0.8h1.4v-0.8zm1.4 1.4h-1.4v0.9h1.4z"
     id="path3377" /><rect
     class="st0"
     x="331.6"
     y="73.4"
     width="58.5"
     height="23"
     id="rect3379" /><path
     class="st1"
     d="m356.4 81.1c1.1 1.2 2.8 2.3 4.4 2.9-0.2 0.2-0.3 0.4-0.5 0.6-0.8-0.3-1.6-0.8-2.4-1.3v0.4h-3.6v-0.4c-0.7 0.5-1.5 1-2.4 1.4-0.1-0.2-0.3-0.4-0.4-0.6 1.7-0.7 3.4-2 4.2-3zm-2.6 6c-0.2 1.1-0.6 2.3-1.6 3.1-0.1-0.1-0.4-0.4-0.6-0.5 1.3-1.2 1.5-2.8 1.5-4v-1.4h5.9v2.8zm4.5-0.6v-0.6h-4.5v0.6zm-4.4-1.7v0.6h4.5v-0.6zm0 2.8h5.5v2.6h-0.7v-0.3h-4.1v0.3h-0.7zm3.8-4.4c-0.6-0.5-1.2-0.9-1.6-1.4-0.4 0.4-0.9 0.9-1.5 1.4zm-3.1 5v1.2h4.1v-1.2z"
     id="path3381" /><path
     class="st1"
     d="m363 82.7v2.4c0 1.5-0.1 3.7-1 5.2-0.1-0.1-0.4-0.4-0.6-0.4 0.8-1.4 0.9-3.3 0.9-4.7v-3.2h3.7v-0.9h0.8v0.9h3.8v0.7zm7.6 6.4h-3.5v1.2h-0.7v-1.2h-3.3v-0.6h3.3v-0.7h-2.5v-3h2.5v-0.7h-2.9v-0.6h2.9v-0.7h0.7v0.7h3.1v0.6h-3.1v0.7h2.6v3h-2.6v0.7h3.5zm-6-3.1h1.8v-0.7h-1.8zm1.8 1.2v-0.8h-1.8v0.8zm0.8-2v0.8h1.9v-0.7h-1.9zm1.9 1.3h-1.9v0.8h1.9z"
     id="path3383" /><path
     class="st0"
     d="m148.2 237v4.1h-1v-0.6h-5.9v0.6h-0.9v-4.1h0.9v2.6h2.4v-3.2h-3v-3.5h0.9v2.6h2v-3.5h0.9v3.5h2.1v-2.6h1v3.5h-3.1v3.2h2.5v-2.6z"
     id="path3385" /><path
     class="st0"
     d="m154.9 232.6c0 1.8 0.2 5.5 4 7.8-0.2 0.2-0.6 0.6-0.7 0.8-2.3-1.4-3.3-3.4-3.8-5.2-0.7 2.4-2 4.2-3.8 5.3-0.2-0.2-0.6-0.6-0.9-0.8 2.1-1.1 3.4-3.1 3.9-5.8l0.5 0.1c-0.1-0.4-0.1-0.8-0.1-1.2h-2.4v-0.9h3.3z"
     id="path3387" /><path
     class="st0"
     d="m168.1 233v7.9h-1v-0.8h-5.6v0.8h-1v-8h7.6zm-1 6.2v-5.2h-5.6v5.2z"
     id="path3389" /><rect
     class="st0"
     x="80.7"
     y="218.4"
     width="50.9"
     height="17.5"
     id="rect3391" /><path
     class="st1"
     d="m91.1 226.2c0.7 1.5 2 3 3.5 3.7-0.2 0.1-0.4 0.4-0.5 0.6-1.4-0.7-2.6-2.1-3.4-3.7v2.8h1.7v0.7h-1.7v1.7h-0.7v-1.7h-1.8v-0.7h1.8v-2.8c-0.8 1.6-2 2.9-3.4 3.7-0.1-0.2-0.3-0.4-0.5-0.5 1.4-0.7 2.7-2.2 3.4-3.7h-3.1v-0.7h3.6v-1.9h0.7v1.9h3.6v0.7h-3.2z"
     id="path3393" /><path
     class="st1"
     d="m95.3 227.1h4.6v0.6h-4.6zm4.5-1.9h-4.3v-0.6h1.8v-1h0.6v1h1.8v0.6zm-3.9 3.3h3.5v3.3h-0.6v-0.5h-2.2v0.5h-0.6v-3.3zm0.6-1.5c0-0.4-0.2-1-0.4-1.5l0.6-0.1c0.2 0.4 0.4 1.1 0.4 1.4zm0 2.1v1.7h2.2v-1.7zm1.6-2.2c0.2-0.4 0.4-1.1 0.5-1.5l0.6 0.2c-0.2 0.5-0.4 1.1-0.6 1.5zm5.4-2.4c-0.4 0.8-0.8 1.9-1.3 2.7 0.9 0.8 1.1 1.5 1.1 2.2 0 0.5-0.1 1-0.4 1.2-0.2 0.1-0.4 0.2-0.6 0.2h-0.8c0-0.2-0.1-0.5-0.2-0.7h0.7c0.1 0 0.3 0 0.4-0.1 0.2-0.1 0.2-0.4 0.2-0.7 0-0.6-0.3-1.2-1.2-2 0.4-0.8 0.8-1.7 1-2.4h-1.7v7.1h-0.6v-7.7h2.7z"
     id="path3395" /><path
     class="st1"
     d="m107.1 227.8c0 0.5-0.4 1-1 1s-1-0.4-1-1 0.4-1 1-1 1 0.4 1 1z"
     id="path3397" /><path
     class="st1"
     d="m115.6 228.1c-0.5 1-1.2 1.7-2.1 2.3 1 0.4 2.1 0.7 3.3 0.9-0.1 0.1-0.3 0.4-0.4 0.6-1.4-0.2-2.6-0.6-3.6-1.1-1.1 0.6-2.3 0.9-3.6 1.1-0.1-0.2-0.3-0.5-0.4-0.6 1.2-0.2 2.4-0.5 3.4-0.9-0.7-0.5-1.4-1.1-1.8-1.9h0.1-0.4v-0.6h5zm-5.9-0.1h-0.7v-1.8h1.4c-0.1-0.3-0.4-0.8-0.6-1.2l0.6-0.2c0.3 0.4 0.5 0.9 0.6 1.2l-0.5 0.2h3.9c0.3-0.5 0.6-1.1 0.8-1.5l0.7 0.2c-0.2 0.4-0.6 0.9-0.8 1.3h1.5v1.8h-0.6v-1.2h-6.4v1.2zm6.5-3.8c-1.8 0.4-4.6 0.6-6.9 0.7 0-0.2-0.1-0.4-0.2-0.6 2.3-0.1 5.1-0.3 6.6-0.7zm-5.1 4.3c0.4 0.6 1 1.1 1.8 1.5 0.7-0.4 1.3-0.9 1.7-1.5zm1.6-2.3c-0.1-0.4-0.2-0.9-0.5-1.3l0.6-0.1c0.2 0.4 0.4 1 0.5 1.3z"
     id="path3399" /><path
     class="st1"
     d="m120.7 223.9c-0.3 0.7-0.6 1.3-1 2v6h-0.7v-4.9c-0.3 0.4-0.6 0.8-0.9 1.1-0.1-0.2-0.3-0.5-0.4-0.7 0.9-0.9 1.8-2.2 2.3-3.6zm5.2 2.4h-1.1v4.6c0 0.5-0.1 0.7-0.5 0.8s-1 0.1-1.9 0.1c0-0.2-0.2-0.5-0.3-0.7h1.7c0.2 0 0.3-0.1 0.3-0.3v-4.6h-3.6v-0.7h3.6v-1.9h0.7v1.9h1.1zm-3.5 3.5c-0.3-0.6-0.8-1.5-1.3-2.2l0.6-0.3c0.5 0.7 1.1 1.6 1.4 2.2z"
     id="path3401" /><path
     class="st0"
     d="m404.1 106.1v4.1h-1v-0.6h-5.9v0.6h-0.9v-4.1h0.9v2.6h2.4v-3.2h-3v-3.5h0.9v2.6h2v-3.5h0.9v3.5h2.1v-2.6h1v3.5h-3.1v3.2h2.5v-2.6z"
     id="path3403" /><path
     class="st0"
     d="m400.8 111.7c0 1.8 0.2 5.5 4 7.8-0.2 0.2-0.6 0.6-0.7 0.8-2.3-1.4-3.3-3.4-3.8-5.2-0.7 2.4-2 4.2-3.8 5.3-0.2-0.2-0.6-0.6-0.9-0.7 2.1-1.1 3.4-3.1 3.9-5.8l0.5 0.1c-0.1-0.4-0.1-0.8-0.1-1.2h-2.4v-0.9h3.3z"
     id="path3405" /><path
     class="st0"
     d="m404 122.1v7.9h-1v-0.8h-5.6v0.8h-1v-8h7.6zm-1 6.2v-5.3h-5.6v5.2h5.6z"
     id="path3407" /></g><g
   inkscape:groupmode="layer"
   id="layer2"
   inkscape:label="target"
   inkscape:highlight-color="#fd6b5b"><g
     transform="translate(86.113,-1.1409)"
     id="g3415"><rect
       x="8.5872"
       y="158.14"
       width="16"
       height="16"
       style="fill:#fd6b5b;paint-order:markers stroke fill;stroke-linecap:round;stroke-linejoin:round;stroke-width:1.7078"
       id="rect3409" /><g
       aria-label="⑥"
       id="text3413"
       style="font-size:13.797px;font-family:'Mplus 1p';fill:#262523;stroke-width:0.34493"><path
         d="m 14.945114,165.63056 q 0.248346,-0.27594 0.593271,-0.4553 0.55188,-0.31733 1.296917,-0.31733 1.227933,0 1.890189,0.66226 0.68985,0.67605 0.68985,1.84879 0,1.28313 -0.745038,1.98677 -0.758835,0.71745 -2.041955,0.71745 -1.448685,0 -2.179926,-0.9382 -0.607068,-0.78643 -0.607068,-2.24891 0,-2.41448 0.786429,-3.50444 0.841617,-1.17274 2.428271,-1.17274 0.800226,0 1.586655,0.23455 v 0.8968 q -0.731241,-0.28974 -1.559061,-0.28974 -0.993383,0 -1.55906,0.73124 -0.496692,0.62087 -0.593271,1.8488 z m 3.421655,1.75222 q 0,-0.80022 -0.469098,-1.26932 -0.469098,-0.4691 -1.269323,-0.4691 -0.786429,0 -1.255527,0.4691 -0.482895,0.48289 -0.482895,1.26932 0,0.88301 0.469098,1.3659 0.469098,0.4829 1.269324,0.4829 0.814022,0 1.28312,-0.4691 0.455301,-0.4553 0.455301,-1.3797 z m 0.648459,4.51162 q -1.158948,0.49669 -2.428271,0.49669 -1.269324,0 -2.428272,-0.49669 -1.158948,-0.49669 -2.000565,-1.32451 -0.82782,-0.84162 -1.324512,-2.00057 -0.496692,-1.15894 -0.496692,-2.42827 0,-1.26932 0.496692,-2.42827 0.496692,-1.15895 1.324512,-1.98677 0.841617,-0.84162 2.000565,-1.33831 1.158948,-0.49669 2.428272,-0.49669 1.269323,0 2.428271,0.49669 1.158948,0.49669 1.986768,1.33831 0.841617,0.82782 1.338309,1.98677 0.496692,1.15895 0.496692,2.42827 0,1.26933 -0.496692,2.42827 -0.496692,1.15895 -1.338309,2.00057 -0.82782,0.82782 -1.986768,1.32451 z M 12.71,170.01801 q 1.614249,1.60045 3.876957,1.60045 2.262707,0 3.863159,-1.60045 1.614249,-1.61425 1.614249,-3.87696 0,-2.26271 -1.614249,-3.86316 -1.600452,-1.61425 -3.863159,-1.61425 -2.262708,0 -3.876957,1.61425 -1.600452,1.60045 -1.600452,3.86316 0,2.26271 1.600452,3.87696 z"
         id="path9092" /></g></g><g
     transform="translate(0.11284,-1.1409)"
     id="g3423"><rect
       x="8.5872"
       y="158.14"
       width="16"
       height="16"
       style="fill:#fd6b5b;paint-order:markers stroke fill;stroke-linecap:round;stroke-linejoin:round;stroke-width:1.7078"
       id="rect3417"
       inkscape:label="rect3417" /><g
       aria-label="①"
       id="text3421"
       style="font-size:13.797px;font-family:'Mplus 1p';fill:#262523;stroke-width:0.34493"><path
         d="m 16.242032,162.31928 h 1.103759 v 7.64354 h -1.103759 v -6.47079 h -0.0138 l -2.179926,1.65564 v -1.18654 z m 2.773196,9.57512 q -1.158948,0.49669 -2.428271,0.49669 -1.269324,0 -2.428272,-0.49669 -1.158948,-0.49669 -2.000565,-1.32451 -0.82782,-0.84162 -1.324512,-2.00057 -0.496692,-1.15894 -0.496692,-2.42827 0,-1.26932 0.496692,-2.42827 0.496692,-1.15895 1.324512,-1.98677 0.841617,-0.84162 2.000565,-1.33831 1.158948,-0.49669 2.428272,-0.49669 1.269323,0 2.428271,0.49669 1.158948,0.49669 1.986768,1.33831 0.841617,0.82782 1.338309,1.98677 0.496692,1.15895 0.496692,2.42827 0,1.26933 -0.496692,2.42827 -0.496692,1.15895 -1.338309,2.00057 -0.82782,0.82782 -1.986768,1.32451 z M 12.71,170.01801 q 1.614249,1.60045 3.876957,1.60045 2.262707,0 3.863159,-1.60045 1.614249,-1.61425 1.614249,-3.87696 0,-2.26271 -1.614249,-3.86316 -1.600452,-1.61425 -3.863159,-1.61425 -2.262708,0 -3.876957,1.61425 -1.600452,1.60045 -1.600452,3.86316 0,2.26271 1.600452,3.87696 z"
         id="path9085" /></g></g><g
     transform="translate(17.313,-1.1409)"
     id="g3431"><rect
       x="8.5872"
       y="158.14"
       width="16"
       height="16"
       style="fill:#fd6b5b;paint-order:markers stroke fill;stroke-linecap:round;stroke-linejoin:round;stroke-width:1.7078"
       id="rect3425" /><g
       aria-label="②"
       id="text3429"
       style="font-size:13.797px;font-family:'Mplus 1p';fill:#262523;stroke-width:0.34493"><path
         d="m 15.593573,169.06602 v 0.0138 h 3.449249 v 0.88301 h -4.897934 v -0.88301 q 2.235114,-1.77981 2.993948,-2.7456 0.758835,-0.96579 0.758835,-1.835 0,-0.67605 -0.372519,-1.03478 -0.386316,-0.35872 -1.117556,-0.35872 -0.96579,0 -2.110941,0.60707 v -1.00718 q 1.034775,-0.49669 2.248911,-0.49669 1.172744,0 1.821203,0.57947 0.634662,0.57947 0.634662,1.61425 0,1.00718 -0.731241,2.02816 -0.703647,0.97959 -2.676617,2.63523 z M 12.71,170.01801 q 1.614249,1.60045 3.876957,1.60045 2.262707,0 3.863159,-1.60045 1.614249,-1.61425 1.614249,-3.87696 0,-2.26271 -1.614249,-3.86316 -1.600452,-1.61425 -3.863159,-1.61425 -2.262708,0 -3.876957,1.61425 -1.600452,1.60045 -1.600452,3.86316 0,2.26271 1.600452,3.87696 z m 6.305228,1.87639 q -1.158948,0.49669 -2.428271,0.49669 -1.269324,0 -2.428272,-0.49669 -1.158948,-0.49669 -2.000565,-1.32451 -0.82782,-0.84162 -1.324512,-2.00057 -0.496692,-1.15894 -0.496692,-2.42827 0,-1.26932 0.496692,-2.42827 0.496692,-1.15895 1.324512,-1.98677 0.841617,-0.84162 2.000565,-1.33831 1.158948,-0.49669 2.428272,-0.49669 1.269323,0 2.428271,0.49669 1.158948,0.49669 1.986768,1.33831 0.841617,0.82782 1.338309,1.98677 0.496692,1.15895 0.496692,2.42827 0,1.26933 -0.496692,2.42827 -0.496692,1.15895 -1.338309,2.00057 -0.82782,0.82782 -1.986768,1.32451 z"
         id="path9078" /></g></g><g
     transform="translate(34.513,-1.1409)"
     id="g3439"><rect
       x="8.5872"
       y="158.14"
       width="16"
       height="16"
       style="fill:#fd6b5b;paint-order:markers stroke fill;stroke-linecap:round;stroke-linejoin:round;stroke-width:1.7078"
       id="rect3433" /><g
       aria-label="③"
       id="text3437"
       style="font-size:13.797px;font-family:'Mplus 1p';fill:#262523;stroke-width:0.34493"><path
         d="m 16.462784,165.49259 v 0.0276 h 0.344924 q 1.048572,0 1.628046,0.53808 0.579474,0.53808 0.579474,1.53147 0,1.21413 -0.717444,1.84879 -0.717444,0.63467 -2.069549,0.63467 -1.10376,0 -2.028159,-0.40012 v -0.97958 q 0.993384,0.49669 1.986768,0.49669 0.86921,0 1.310714,-0.40011 0.455301,-0.38632 0.455301,-1.18655 0,-0.68985 -0.455301,-0.99338 -0.455301,-0.33113 -1.545263,-0.33113 h -0.800226 v -0.78643 l 2.414474,-2.2765 v -0.0138 h -3.421655 v -0.88301 h 4.759964 v 0.88301 z M 12.71,170.01801 q 1.614249,1.60045 3.876957,1.60045 2.262707,0 3.863159,-1.60045 1.614249,-1.61425 1.614249,-3.87696 0,-2.26271 -1.614249,-3.86316 -1.600452,-1.61425 -3.863159,-1.61425 -2.262708,0 -3.876957,1.61425 -1.600452,1.60045 -1.600452,3.86316 0,2.26271 1.600452,3.87696 z m 6.305228,1.87639 q -1.158948,0.49669 -2.428271,0.49669 -1.269324,0 -2.428272,-0.49669 -1.158948,-0.49669 -2.000565,-1.32451 -0.82782,-0.84162 -1.324512,-2.00057 -0.496692,-1.15894 -0.496692,-2.42827 0,-1.26932 0.496692,-2.42827 0.496692,-1.15895 1.324512,-1.98677 0.841617,-0.84162 2.000565,-1.33831 1.158948,-0.49669 2.428272,-0.49669 1.269323,0 2.428271,0.49669 1.158948,0.49669 1.986768,1.33831 0.841617,0.82782 1.338309,1.98677 0.496692,1.15895 0.496692,2.42827 0,1.26933 -0.496692,2.42827 -0.496692,1.15895 -1.338309,2.00057 -0.82782,0.82782 -1.986768,1.32451 z"
         id="path9071" /></g></g><g
     transform="translate(51.713,-1.1409)"
     id="g3447"><rect
       x="8.5872"
       y="158.14"
       width="16"
       height="16"
       style="fill:#fd6b5b;paint-order:markers stroke fill;stroke-linecap:round;stroke-linejoin:round;stroke-width:1.7078"
       id="rect3441" /><g
       aria-label="④"
       id="text3445"
       style="font-size:13.797px;font-family:'Mplus 1p';fill:#262523;stroke-width:0.34493"><path
         d="m 17.787295,167.39658 h 1.24173 v 0.85541 h -1.24173 v 1.71083 h -1.048571 v -1.71083 h -3.656205 v -0.85541 l 3.656205,-5.0773 h 1.048571 z m -1.048571,0 v -3.64241 h -0.0138 l -2.607633,3.61481 v 0.0276 z M 12.71,170.01801 q 1.614249,1.60045 3.876957,1.60045 2.262707,0 3.863159,-1.60045 1.614249,-1.61425 1.614249,-3.87696 0,-2.26271 -1.614249,-3.86316 -1.600452,-1.61425 -3.863159,-1.61425 -2.262708,0 -3.876957,1.61425 -1.600452,1.60045 -1.600452,3.86316 0,2.26271 1.600452,3.87696 z m 6.305228,1.87639 q -1.158948,0.49669 -2.428271,0.49669 -1.269324,0 -2.428272,-0.49669 -1.158948,-0.49669 -2.000565,-1.32451 -0.82782,-0.84162 -1.324512,-2.00057 -0.496692,-1.15894 -0.496692,-2.42827 0,-1.26932 0.496692,-2.42827 0.496692,-1.15895 1.324512,-1.98677 0.841617,-0.84162 2.000565,-1.33831 1.158948,-0.49669 2.428272,-0.49669 1.269323,0 2.428271,0.49669 1.158948,0.49669 1.986768,1.33831 0.841617,0.82782 1.338309,1.98677 0.496692,1.15895 0.496692,2.42827 0,1.26933 -0.496692,2.42827 -0.496692,1.15895 -1.338309,2.00057 -0.82782,0.82782 -1.986768,1.32451 z"
         id="path9064" /></g></g><g
     transform="translate(68.913,-1.1409)"
     id="g3455"><rect
       x="8.5872"
       y="158.14"
       width="16"
       height="16"
       style="fill:#fd6b5b;paint-order:markers stroke fill;stroke-linecap:round;stroke-linejoin:round;stroke-width:1.7078"
       id="rect3449" /><g
       aria-label="⑤"
       id="text3453"
       style="font-size:13.797px;font-family:'Mplus 1p';fill:#262523;stroke-width:0.34493"><path
         d="m 15.372821,165.42361 h 0.02759 q 0.579474,-0.31733 1.310715,-0.31733 1.131353,0 1.766015,0.60706 0.634662,0.60707 0.634662,1.72463 0,1.21414 -0.634662,1.86259 -0.745038,0.77264 -2.317895,0.77264 -0.979587,0 -1.903986,-0.38632 v -0.95199 q 1.034775,0.4553 1.876392,0.4553 1.048571,0 1.517669,-0.51049 0.400113,-0.41391 0.400113,-1.24173 0,-0.73124 -0.372519,-1.10376 -0.386316,-0.38632 -1.14515,-0.38632 -0.758835,0 -1.296918,0.44151 h -0.924399 l 0.206955,-4.07012 h 4.263272 v 0.88301 H 15.483197 Z M 12.71,170.01801 q 1.614249,1.60045 3.876957,1.60045 2.262707,0 3.863159,-1.60045 1.614249,-1.61425 1.614249,-3.87696 0,-2.26271 -1.614249,-3.86316 -1.600452,-1.61425 -3.863159,-1.61425 -2.262708,0 -3.876957,1.61425 -1.600452,1.60045 -1.600452,3.86316 0,2.26271 1.600452,3.87696 z m 6.305228,1.87639 q -1.158948,0.49669 -2.428271,0.49669 -1.269324,0 -2.428272,-0.49669 -1.158948,-0.49669 -2.000565,-1.32451 -0.82782,-0.84162 -1.324512,-2.00057 -0.496692,-1.15894 -0.496692,-2.42827 0,-1.26932 0.496692,-2.42827 0.496692,-1.15895 1.324512,-1.98677 0.841617,-0.84162 2.000565,-1.33831 1.158948,-0.49669 2.428272,-0.49669 1.269323,0 2.428271,0.49669 1.158948,0.49669 1.986768,1.33831 0.841617,0.82782 1.338309,1.98677 0.496692,1.15895 0.496692,2.42827 0,1.26933 -0.496692,2.42827 -0.496692,1.15895 -1.338309,2.00057 -0.82782,0.82782 -1.986768,1.32451 z"
         id="path9057" /></g></g><g
     transform="translate(86.761,-35.71)"
     id="g3463"><rect
       x="7.9387"
       y="158.14"
       width="16"
       height="16"
       style="fill:#fd6b5b;paint-order:markers stroke fill;stroke-linecap:round;stroke-linejoin:round;stroke-width:1.7078"
       id="rect3457" /><g
       aria-label="⑧"
       id="text3461"
       style="font-size:13.797px;font-family:'Mplus 1p';text-align:center;text-anchor:middle;fill:#262523;stroke-width:0.34493"><path
         d="m 15.855897,166.32041 q -0.82782,0.20696 -1.255527,0.55188 -0.482895,0.40012 -0.482895,0.97959 0,0.63466 0.482895,1.02098 0.510489,0.40011 1.338309,0.40011 0.855414,0 1.338309,-0.40011 0.469098,-0.38632 0.469098,-1.02098 0,-0.57947 -0.469098,-0.96579 -0.455301,-0.35872 -1.421091,-0.56568 z m -1.821204,-3.60101 q 0.676053,-0.51049 1.903986,-0.51049 1.227933,0 1.903986,0.51049 0.68985,0.52428 0.68985,1.3659 0,0.63466 -0.482895,1.14515 -0.372519,0.37252 -0.96579,0.60707 v 0.0276 q 1.710828,0.55188 1.710828,2.02816 0,1.00718 -0.758835,1.58666 -0.786429,0.59327 -2.097144,0.59327 -1.310715,0 -2.097144,-0.59327 -0.758835,-0.57948 -0.758835,-1.58666 0,-0.67605 0.455301,-1.17274 0.427707,-0.4691 1.227933,-0.75884 v -0.0276 q -0.593271,-0.26215 -0.979587,-0.70365 -0.441504,-0.52429 -0.441504,-1.14515 0,-0.84162 0.68985,-1.3659 z m 3.076731,0.62086 q -0.41391,-0.33113 -1.172745,-0.33113 -0.745038,0 -1.158948,0.33113 -0.41391,0.31733 -0.41391,0.84162 0,0.49669 0.455301,0.85541 0.41391,0.33113 1.145151,0.49669 0.634662,-0.15176 1.062369,-0.46909 0.496692,-0.37252 0.496692,-0.88301 0,-0.52429 -0.41391,-0.84162 z m -5.049702,6.67775 q 1.614249,1.60045 3.876957,1.60045 2.262708,0 3.86316,-1.60045 1.614249,-1.61425 1.614249,-3.87696 0,-2.26271 -1.614249,-3.86316 -1.600452,-1.61425 -3.86316,-1.61425 -2.262708,0 -3.876957,1.61425 -1.600452,1.60045 -1.600452,3.86316 0,2.26271 1.600452,3.87696 z m 6.305229,1.87639 q -1.158948,0.49669 -2.428272,0.49669 -1.269324,0 -2.428272,-0.49669 -1.158948,-0.49669 -2.000565,-1.32451 -0.82782,-0.84162 -1.324512,-2.00057 -0.4966922,-1.15894 -0.4966922,-2.42827 0,-1.26932 0.4966922,-2.42827 0.496692,-1.15895 1.324512,-1.98677 0.841617,-0.84162 2.000565,-1.33831 1.158948,-0.49669 2.428272,-0.49669 1.269324,0 2.428272,0.49669 1.158948,0.49669 1.986768,1.33831 0.841617,0.82782 1.338309,1.98677 0.496692,1.15895 0.496692,2.42827 0,1.26933 -0.496692,2.42827 -0.496692,1.15895 -1.338309,2.00057 -0.82782,0.82782 -1.986768,1.32451 z"
         id="path9050" /></g></g><g
     transform="translate(69.561,-35.71)"
     id="g3471"><rect
       x="7.9387"
       y="158.14"
       width="16"
       height="16"
       style="fill:#fd6b5b;paint-order:markers stroke fill;stroke-linecap:round;stroke-linejoin:round;stroke-width:1.7078"
       id="rect3465" /><g
       aria-label="⑨"
       id="text3469"
       style="font-size:13.797px;font-family:'Mplus 1p';text-align:center;text-anchor:middle;fill:#262523;stroke-width:0.34493"><path
         d="m 15.441987,169.23158 q 1.020978,0 1.600452,-0.73124 0.496692,-0.62087 0.55188,-1.8488 h -0.0138 q -0.193158,0.23455 -0.620865,0.4553 -0.593271,0.31733 -1.269324,0.31733 -1.200339,0 -1.890189,-0.67605 -0.68985,-0.67605 -0.68985,-1.90399 0,-1.24173 0.745038,-1.93158 0.758835,-0.70364 2.041956,-0.70364 1.338309,0 2.055753,0.78643 0.731241,0.80022 0.731241,2.33169 0,2.51105 -0.772632,3.58722 -0.841617,1.15895 -2.442069,1.15895 -0.82782,0 -1.683234,-0.23455 v -0.89681 q 0.772632,0.28974 1.65564,0.28974 z m -1.283121,-4.40124 q 0,0.86921 0.469098,1.33831 0.469098,0.46909 1.269324,0.46909 0.800226,0 1.269324,-0.48289 0.469098,-0.4829 0.469098,-1.32451 0,-0.82782 -0.482895,-1.31072 -0.469098,-0.4691 -1.255527,-0.4691 -0.814023,0 -1.283121,0.4691 -0.455301,0.4553 -0.455301,1.31072 z m -2.097144,5.18767 q 1.614249,1.60045 3.876957,1.60045 2.262708,0 3.86316,-1.60045 1.614249,-1.61425 1.614249,-3.87696 0,-2.26271 -1.614249,-3.86316 -1.600452,-1.61425 -3.86316,-1.61425 -2.262708,0 -3.876957,1.61425 -1.600452,1.60045 -1.600452,3.86316 0,2.26271 1.600452,3.87696 z m 6.305229,1.87639 q -1.158948,0.49669 -2.428272,0.49669 -1.269324,0 -2.428272,-0.49669 -1.158948,-0.49669 -2.000565,-1.32451 -0.82782,-0.84162 -1.324512,-2.00057 -0.4966922,-1.15894 -0.4966922,-2.42827 0,-1.26932 0.4966922,-2.42827 0.496692,-1.15895 1.324512,-1.98677 0.841617,-0.84162 2.000565,-1.33831 1.158948,-0.49669 2.428272,-0.49669 1.269324,0 2.428272,0.49669 1.158948,0.49669 1.986768,1.33831 0.841617,0.82782 1.338309,1.98677 0.496692,1.15895 0.496692,2.42827 0,1.26933 -0.496692,2.42827 -0.496692,1.15895 -1.338309,2.00057 -0.82782,0.82782 -1.986768,1.32451 z"
         id="path9043" /></g></g><g
     transform="translate(69.561,-55.199)"
     id="g3479"><rect
       x="7.9387"
       y="158.14"
       width="16"
       height="16"
       style="fill:#fd6b5b;paint-order:markers stroke fill;stroke-linecap:round;stroke-linejoin:round;stroke-width:1.7078"
       id="rect3473" /><g
       aria-label="⑩"
       id="text3477"
       style="font-size:13.797px;font-family:'Mplus 1p';text-align:center;text-anchor:middle;fill:#262523;stroke-width:0.34493"><path
         d="m 13.386234,162.31928 h 0.96579 v 7.64354 h -0.96579 v -6.20865 h -0.0138 l -1.531467,1.58666 v -1.44869 z m 4.953123,6.09828 q 0.303534,-0.71745 0.303534,-2.27651 0,-1.55906 -0.303534,-2.2765 -0.289737,-0.66226 -0.855414,-0.66226 -0.565677,0 -0.855414,0.66226 -0.303534,0.71744 -0.303534,2.2765 0,1.55906 0.303534,2.27651 0.289737,0.66225 0.855414,0.66225 0.565677,0 0.855414,-0.66225 z m 0.717444,-5.25666 q 0.524286,0.96579 0.524286,2.98015 0,2.01436 -0.524286,2.98015 -0.524286,0.952 -1.572858,0.952 -1.048572,0 -1.572858,-0.952 -0.524286,-0.96579 -0.524286,-2.98015 0,-2.01436 0.524286,-2.98015 0.524286,-0.95199 1.572858,-0.95199 1.048572,0 1.572858,0.95199 z m -6.995079,6.85711 q 1.614249,1.60045 3.876957,1.60045 2.262708,0 3.86316,-1.60045 1.614249,-1.61425 1.614249,-3.87696 0,-2.26271 -1.614249,-3.86316 -1.600452,-1.61425 -3.86316,-1.61425 -2.262708,0 -3.876957,1.61425 -1.600452,1.60045 -1.600452,3.86316 0,2.26271 1.600452,3.87696 z m 6.305229,1.87639 q -1.158948,0.49669 -2.428272,0.49669 -1.269324,0 -2.428272,-0.49669 -1.158948,-0.49669 -2.000565,-1.32451 -0.82782,-0.84162 -1.324512,-2.00057 -0.4966922,-1.15894 -0.4966922,-2.42827 0,-1.26932 0.4966922,-2.42827 0.496692,-1.15895 1.324512,-1.98677 0.841617,-0.84162 2.000565,-1.33831 1.158948,-0.49669 2.428272,-0.49669 1.269324,0 2.428272,0.49669 1.158948,0.49669 1.986768,1.33831 0.841617,0.82782 1.338309,1.98677 0.496692,1.15895 0.496692,2.42827 0,1.26933 -0.496692,2.42827 -0.496692,1.15895 -1.338309,2.00057 -0.82782,0.82782 -1.986768,1.32451 z"
         id="path9036" /></g></g><g
     transform="translate(86.761,-55.199)"
     id="g3487"><rect
       x="7.9387"
       y="158.14"
       width="16"
       height="16"
       style="fill:#fd6b5b;paint-order:markers stroke fill;stroke-linecap:round;stroke-linejoin:round;stroke-width:1.7078"
       id="rect3481" /><g
       aria-label="⑪"
       id="text3485"
       style="font-size:13.797px;font-family:'Mplus 1p';text-align:center;text-anchor:middle;fill:#262523;stroke-width:0.34493"><path
         d="m 17.677101,162.31928 h 0.951993 v 7.64354 h -0.951993 v -6.20865 h -0.0138 l -1.531467,1.58666 v -1.44869 z m -4.014927,0 h 0.96579 v 7.64354 h -0.96579 v -6.20865 h -0.0138 l -1.531467,1.58666 v -1.44869 z m -1.600452,7.69873 q 1.614249,1.60045 3.876957,1.60045 2.262708,0 3.86316,-1.60045 1.614249,-1.61425 1.614249,-3.87696 0,-2.26271 -1.614249,-3.86316 -1.600452,-1.61425 -3.86316,-1.61425 -2.262708,0 -3.876957,1.61425 -1.600452,1.60045 -1.600452,3.86316 0,2.26271 1.600452,3.87696 z m 6.305229,1.87639 q -1.158948,0.49669 -2.428272,0.49669 -1.269324,0 -2.428272,-0.49669 -1.158948,-0.49669 -2.000565,-1.32451 -0.82782,-0.84162 -1.324512,-2.00057 -0.4966922,-1.15894 -0.4966922,-2.42827 0,-1.26932 0.4966922,-2.42827 0.496692,-1.15895 1.324512,-1.98677 0.841617,-0.84162 2.000565,-1.33831 1.158948,-0.49669 2.428272,-0.49669 1.269324,0 2.428272,0.49669 1.158948,0.49669 1.986768,1.33831 0.841617,0.82782 1.338309,1.98677 0.496692,1.15895 0.496692,2.42827 0,1.26933 -0.496692,2.42827 -0.496692,1.15895 -1.338309,2.00057 -0.82782,0.82782 -1.986768,1.32451 z"
         id="path9029" /></g></g><g
     transform="translate(146.21279,-21.883532)"
     id="g3618"><rect
       x="8.5872002"
       y="158.14"
       width="16"
       height="16"
       style="fill:#fd6b5b;stroke-width:1.7078;stroke-linecap:round;stroke-linejoin:round;paint-order:markers stroke fill"
       id="rect3612" /><g
       aria-label="⑦"
       id="text3616"
       style="font-size:13.797px;font-family:'Mplus 1p';-inkscape-font-specification:'Mplus 1p, Normal';fill:#262523;stroke-width:0.34493"><path
         d="m 18.118423,163.22988 v -0.0276 h -4.04252 v -0.88301 h 5.077295 v 0.88301 q -1.724625,2.88357 -2.952557,6.76053 h -1.131354 q 1.24173,-3.76658 3.049136,-6.73294 z M 12.71,170.01801 q 1.614249,1.60045 3.876957,1.60045 2.262707,0 3.863159,-1.60045 1.614249,-1.61425 1.614249,-3.87696 0,-2.26271 -1.614249,-3.86316 -1.600452,-1.61425 -3.863159,-1.61425 -2.262708,0 -3.876957,1.61425 -1.600452,1.60045 -1.600452,3.86316 0,2.26271 1.600452,3.87696 z m 6.305228,1.87639 q -1.158948,0.49669 -2.428271,0.49669 -1.269324,0 -2.428272,-0.49669 -1.158948,-0.49669 -2.000565,-1.32451 -0.82782,-0.84162 -1.324512,-2.00057 -0.496692,-1.15894 -0.496692,-2.42827 0,-1.26932 0.496692,-2.42827 0.496692,-1.15895 1.324512,-1.98677 0.841617,-0.84162 2.000565,-1.33831 1.158948,-0.49669 2.428272,-0.49669 1.269323,0 2.428271,0.49669 1.158948,0.49669 1.986768,1.33831 0.841617,0.82782 1.338309,1.98677 0.496692,1.15895 0.496692,2.42827 0,1.26933 -0.496692,2.42827 -0.496692,1.15895 -1.338309,2.00057 -0.82782,0.82782 -1.986768,1.32451 z"
         id="path9022" /></g></g><g
     transform="translate(144.78291,-80.235791)"
     id="g4524"><rect
       x="7.9387002"
       y="158.14"
       width="16"
       height="16"
       style="fill:#fd6b5b;stroke-width:1.7078;stroke-linecap:round;stroke-linejoin:round;paint-order:markers stroke fill"
       id="rect4518" /><g
       aria-label="⑫"
       id="text4522"
       style="font-size:13.797px;font-family:'Mplus 1p';-inkscape-font-specification:'Mplus 1p, Normal';text-align:center;text-anchor:middle;fill:#262523;stroke-width:0.34493"><path
         d="m 16.904469,168.90045 v 0.0138 h 2.386881 v 1.04857 h -3.601017 v -1.04857 q 1.586655,-1.75222 2.097144,-2.64903 0.524286,-0.92439 0.524286,-1.72462 0,-0.66226 -0.289737,-0.97959 -0.248346,-0.27594 -0.68985,-0.27594 -0.676053,0 -1.51767,0.59327 V 162.678 q 0.772632,-0.46909 1.641843,-0.46909 0.855414,0 1.338309,0.59327 0.469098,0.56567 0.469098,1.62804 0,0.9382 -0.510489,1.93158 -0.482895,0.952 -1.848798,2.53865 z m -3.518235,-6.58117 h 0.96579 v 7.64354 h -0.96579 v -6.20865 h -0.0138 l -1.531467,1.58666 v -1.44869 z m -1.324512,7.69873 q 1.614249,1.60045 3.876957,1.60045 2.262708,0 3.86316,-1.60045 1.614249,-1.61425 1.614249,-3.87696 0,-2.26271 -1.614249,-3.86316 -1.600452,-1.61425 -3.86316,-1.61425 -2.262708,0 -3.876957,1.61425 -1.600452,1.60045 -1.600452,3.86316 0,2.26271 1.600452,3.87696 z m 6.305229,1.87639 q -1.158948,0.49669 -2.428272,0.49669 -1.269324,0 -2.428272,-0.49669 -1.158948,-0.49669 -2.000565,-1.32451 -0.82782,-0.84162 -1.324512,-2.00057 -0.4966922,-1.15894 -0.4966922,-2.42827 0,-1.26932 0.4966922,-2.42827 0.496692,-1.15895 1.324512,-1.98677 0.841617,-0.84162 2.000565,-1.33831 1.158948,-0.49669 2.428272,-0.49669 1.269324,0 2.428272,0.49669 1.158948,0.49669 1.986768,1.33831 0.841617,0.82782 1.338309,1.98677 0.496692,1.15895 0.496692,2.42827 0,1.26933 -0.496692,2.42827 -0.496692,1.15895 -1.338309,2.00057 -0.82782,0.82782 -1.986768,1.32451 z"
         id="path9015" /></g></g><g
     transform="translate(166.9561,-41.957937)"
     id="g4534"><rect
       x="7.9387002"
       y="158.14"
       width="16"
       height="16"
       style="fill:#fd6b5b;stroke-width:1.7078;stroke-linecap:round;stroke-linejoin:round;paint-order:markers stroke fill"
       id="rect4528" /><g
       aria-label="⑬"
       id="text4532"
       style="font-size:13.797px;font-family:'Mplus 1p';-inkscape-font-specification:'Mplus 1p, Normal';text-align:center;text-anchor:middle;fill:#262523;stroke-width:0.34493"><path
         d="m 16.94586,166.3894 h -0.524286 v -0.88301 l 1.641843,-2.12474 v -0.0138 h -2.386881 v -1.04857 h 3.504438 v 1.04857 l -1.697031,2.12474 v 0.0138 h 0.220752 q 0.731241,0 1.145151,0.55188 0.41391,0.55188 0.41391,1.53147 0,1.20034 -0.524286,1.84879 -0.510489,0.63467 -1.490076,0.63467 -0.82782,0 -1.51767,-0.38632 v -1.14515 q 0.745038,0.49669 1.448685,0.49669 0.55188,0 0.869211,-0.35872 0.303534,-0.35872 0.303534,-1.06237 0,-0.64846 -0.317331,-0.9382 -0.165564,-0.16556 -0.469098,-0.23454 -0.234549,-0.0552 -0.620865,-0.0552 z m -3.559626,-4.07012 h 0.96579 v 7.64354 h -0.96579 v -6.20865 h -0.0138 l -1.531467,1.58666 v -1.44869 z m -1.324512,7.69873 q 1.614249,1.60045 3.876957,1.60045 2.262708,0 3.86316,-1.60045 1.614249,-1.61425 1.614249,-3.87696 0,-2.26271 -1.614249,-3.86316 -1.600452,-1.61425 -3.86316,-1.61425 -2.262708,0 -3.876957,1.61425 -1.600452,1.60045 -1.600452,3.86316 0,2.26271 1.600452,3.87696 z m 6.305229,1.87639 q -1.158948,0.49669 -2.428272,0.49669 -1.269324,0 -2.428272,-0.49669 -1.158948,-0.49669 -2.000565,-1.32451 -0.82782,-0.84162 -1.324512,-2.00057 -0.4966922,-1.15894 -0.4966922,-2.42827 0,-1.26932 0.4966922,-2.42827 0.496692,-1.15895 1.324512,-1.98677 0.841617,-0.84162 2.000565,-1.33831 1.158948,-0.49669 2.428272,-0.49669 1.269324,0 2.428272,0.49669 1.158948,0.49669 1.986768,1.33831 0.841617,0.82782 1.338309,1.98677 0.496692,1.15895 0.496692,2.42827 0,1.26933 -0.496692,2.42827 -0.496692,1.15895 -1.338309,2.00057 -0.82782,0.82782 -1.986768,1.32451 z"
         id="path9008" /></g></g><g
     transform="translate(185.61498,-41.957937)"
     id="g4542"><rect
       x="7.9387002"
       y="158.14"
       width="16"
       height="16"
       style="fill:#fd6b5b;stroke-width:1.7078;stroke-linecap:round;stroke-linejoin:round;paint-order:markers stroke fill"
       id="rect4536" /><g
       aria-label="⑭"
       id="text4540"
       style="font-size:13.797px;font-family:'Mplus 1p';-inkscape-font-specification:'Mplus 1p, Normal';text-align:center;text-anchor:middle;fill:#262523;stroke-width:0.34493"><path
         d="m 17.77368,163.96113 h -0.0138 l -1.724625,3.35267 v 0.0276 h 1.738422 z m -4.387446,-1.64185 h 0.96579 v 7.64354 h -0.96579 v -6.20865 h -0.0138 l -1.531467,1.58666 v -1.44869 z m 5.270454,6.04309 v 1.60045 H 17.77368 v -1.60045 h -2.580039 v -1.02098 l 2.580039,-5.02211 h 0.883008 v 5.02211 h 0.869211 v 1.02098 z m -6.594966,1.65564 q 1.614249,1.60045 3.876957,1.60045 2.262708,0 3.86316,-1.60045 1.614249,-1.61425 1.614249,-3.87696 0,-2.26271 -1.614249,-3.86316 -1.600452,-1.61425 -3.86316,-1.61425 -2.262708,0 -3.876957,1.61425 -1.600452,1.60045 -1.600452,3.86316 0,2.26271 1.600452,3.87696 z m 6.305229,1.87639 q -1.158948,0.49669 -2.428272,0.49669 -1.269324,0 -2.428272,-0.49669 -1.158948,-0.49669 -2.000565,-1.32451 -0.82782,-0.84162 -1.324512,-2.00057 -0.4966922,-1.15894 -0.4966922,-2.42827 0,-1.26932 0.4966922,-2.42827 0.496692,-1.15895 1.324512,-1.98677 0.841617,-0.84162 2.000565,-1.33831 1.158948,-0.49669 2.428272,-0.49669 1.269324,0 2.428272,0.49669 1.158948,0.49669 1.986768,1.33831 0.841617,0.82782 1.338309,1.98677 0.496692,1.15895 0.496692,2.42827 0,1.26933 -0.496692,2.42827 -0.496692,1.15895 -1.338309,2.00057 -0.82782,0.82782 -1.986768,1.32451 z"
         id="path9001" /></g></g><g
     transform="translate(204.27386,-41.957937)"
     id="g4550"><rect
       x="7.9387002"
       y="158.14"
       width="16"
       height="16"
       style="fill:#fd6b5b;stroke-width:1.7078;stroke-linecap:round;stroke-linejoin:round;paint-order:markers stroke fill"
       id="rect4544" /><g
       aria-label="⑮"
       id="text4548"
       style="font-size:13.797px;font-family:'Mplus 1p';-inkscape-font-specification:'Mplus 1p, Normal';text-align:center;text-anchor:middle;fill:#262523;stroke-width:0.34493"><path
         d="m 16.711311,165.36842 h 0.0138 q 0.400113,-0.28974 0.869211,-0.28974 0.841617,0 1.283121,0.60707 0.455301,0.62087 0.455301,1.73842 0,1.25553 -0.496692,1.91779 -0.524286,0.73124 -1.669437,0.73124 -0.745038,0 -1.393497,-0.34493 v -1.11756 q 0.731241,0.42771 1.365903,0.42771 0.676053,0 1.007181,-0.4691 0.289737,-0.4277 0.289737,-1.14515 0,-0.63466 -0.262143,-1.00718 -0.248346,-0.34492 -0.745038,-0.34492 -0.427707,0 -0.800226,0.4277 h -0.82782 l 0.13797,-4.18049 h 3.159513 v 1.04857 h -2.317896 z m -3.325077,-3.04914 h 0.96579 v 7.64354 h -0.96579 v -6.20865 h -0.0138 l -1.531467,1.58666 v -1.44869 z m -1.324512,7.69873 q 1.614249,1.60045 3.876957,1.60045 2.262708,0 3.86316,-1.60045 1.614249,-1.61425 1.614249,-3.87696 0,-2.26271 -1.614249,-3.86316 -1.600452,-1.61425 -3.86316,-1.61425 -2.262708,0 -3.876957,1.61425 -1.600452,1.60045 -1.600452,3.86316 0,2.26271 1.600452,3.87696 z m 6.305229,1.87639 q -1.158948,0.49669 -2.428272,0.49669 -1.269324,0 -2.428272,-0.49669 -1.158948,-0.49669 -2.000565,-1.32451 -0.82782,-0.84162 -1.324512,-2.00057 -0.4966922,-1.15894 -0.4966922,-2.42827 0,-1.26932 0.4966922,-2.42827 0.496692,-1.15895 1.324512,-1.98677 0.841617,-0.84162 2.000565,-1.33831 1.158948,-0.49669 2.428272,-0.49669 1.269324,0 2.428272,0.49669 1.158948,0.49669 1.986768,1.33831 0.841617,0.82782 1.338309,1.98677 0.496692,1.15895 0.496692,2.42827 0,1.26933 -0.496692,2.42827 -0.496692,1.15895 -1.338309,2.00057 -0.82782,0.82782 -1.986768,1.32451 z"
         id="path8994" /></g></g><g
     transform="translate(232.28811,-41.957937)"
     id="g4558"><rect
       x="7.9387002"
       y="158.14"
       width="16"
       height="16"
       style="fill:#fd6b5b;stroke-width:1.7078;stroke-linecap:round;stroke-linejoin:round;paint-order:markers stroke fill"
       id="rect4552" /><g
       aria-label="⑯"
       id="text4556"
       style="font-size:13.797px;font-family:'Mplus 1p';-inkscape-font-specification:'Mplus 1p, Normal';text-align:center;text-anchor:middle;fill:#262523;stroke-width:0.34493"><path
         d="m 17.677101,164.85793 q 0.869211,0 1.365903,0.66226 0.496692,0.66225 0.496692,1.84879 0,1.25553 -0.538083,1.98677 -0.538083,0.71745 -1.490076,0.71745 -0.96579,0 -1.503873,-0.81403 -0.538083,-0.81402 -0.538083,-2.46966 0,-2.45587 0.676053,-3.57342 0.593271,-1.00718 1.669437,-1.00718 0.579474,0 1.172745,0.23455 v 1.02097 q -0.55188,-0.30353 -1.145151,-0.30353 -0.593271,0 -0.96579,0.53808 -0.400113,0.59327 -0.482895,1.80741 0.0138,-0.0276 0.04139,-0.0552 0.02759,-0.0276 0.04139,-0.0552 0.455301,-0.53808 1.200339,-0.53808 z m -4.290867,-2.53865 h 0.96579 v 7.64354 h -0.96579 v -6.20865 h -0.0138 l -1.531467,1.58666 v -1.44869 z m 4.125303,6.80192 q 0.510489,0 0.82782,-0.4415 0.317331,-0.4691 0.317331,-1.28312 0,-0.78643 -0.317331,-1.22793 -0.303534,-0.42771 -0.82782,-0.42771 -0.510489,0 -0.82782,0.4415 -0.317331,0.4691 -0.317331,1.21414 0,0.81402 0.317331,1.28312 0.303534,0.4415 0.82782,0.4415 z m -5.449815,0.89681 q 1.614249,1.60045 3.876957,1.60045 2.262708,0 3.86316,-1.60045 1.614249,-1.61425 1.614249,-3.87696 0,-2.26271 -1.614249,-3.86316 -1.600452,-1.61425 -3.86316,-1.61425 -2.262708,0 -3.876957,1.61425 -1.600452,1.60045 -1.600452,3.86316 0,2.26271 1.600452,3.87696 z m 6.305229,1.87639 q -1.158948,0.49669 -2.428272,0.49669 -1.269324,0 -2.428272,-0.49669 -1.158948,-0.49669 -2.000565,-1.32451 -0.82782,-0.84162 -1.324512,-2.00057 -0.4966922,-1.15894 -0.4966922,-2.42827 0,-1.26932 0.4966922,-2.42827 0.496692,-1.15895 1.324512,-1.98677 0.841617,-0.84162 2.000565,-1.33831 1.158948,-0.49669 2.428272,-0.49669 1.269324,0 2.428272,0.49669 1.158948,0.49669 1.986768,1.33831 0.841617,0.82782 1.338309,1.98677 0.496692,1.15895 0.496692,2.42827 0,1.26933 -0.496692,2.42827 -0.496692,1.15895 -1.338309,2.00057 -0.82782,0.82782 -1.986768,1.32451 z"
         id="path8987" /></g></g><g
     transform="translate(251.9613,-41.956885)"
     id="g4566"><rect
       x="7.9387002"
       y="158.14"
       width="16"
       height="16"
       style="fill:#fd6b5b;stroke-width:1.7078;stroke-linecap:round;stroke-linejoin:round;paint-order:markers stroke fill"
       id="rect4560" /><g
       aria-label="⑰"
       id="text4564"
       style="font-size:13.797px;font-family:'Mplus 1p';-inkscape-font-specification:'Mplus 1p, Normal';text-align:center;text-anchor:middle;fill:#262523;stroke-width:0.34493"><path
         d="m 18.18759,166.49977 q -0.510489,1.66944 -0.938196,3.46305 h -0.979587 q 0.938196,-3.73899 2.193723,-6.56737 v -0.0276 h -2.828385 v -1.04857 h 3.72519 v 1.04857 q -0.717444,1.68324 -1.172745,3.13192 z m -3.835566,-4.18049 v 7.64354 h -0.96579 v -6.20865 h -0.0138 l -1.531467,1.58666 v -1.44869 l 1.545264,-1.57286 z m 4.014927,9.57512 q -1.158948,0.49669 -2.428272,0.49669 -1.269324,0 -2.428272,-0.49669 -1.158948,-0.49669 -2.000565,-1.32451 -0.82782,-0.84162 -1.324512,-2.00057 -0.4966922,-1.15894 -0.4966922,-2.42827 0,-1.26932 0.4966922,-2.42827 0.496692,-1.15895 1.324512,-1.98677 0.841617,-0.84162 2.000565,-1.33831 1.158948,-0.49669 2.428272,-0.49669 1.269324,0 2.428272,0.49669 1.158948,0.49669 1.986768,1.33831 0.841617,0.82782 1.338309,1.98677 0.496692,1.15895 0.496692,2.42827 0,1.26933 -0.496692,2.42827 -0.496692,1.15895 -1.338309,2.00057 -0.82782,0.82782 -1.986768,1.32451 z m -6.305229,-1.87639 q 1.614249,1.60045 3.876957,1.60045 2.262708,0 3.86316,-1.60045 1.614249,-1.61425 1.614249,-3.87696 0,-2.26271 -1.614249,-3.86316 -1.600452,-1.61425 -3.86316,-1.61425 -2.262708,0 -3.876957,1.61425 -1.600452,1.60045 -1.600452,3.86316 0,2.26271 1.600452,3.87696 z"
         id="path8980" /></g></g><g
     transform="translate(277.2113,-41.956885)"
     id="g4574"><rect
       x="7.9387002"
       y="158.14"
       width="16"
       height="16"
       style="fill:#fd6b5b;stroke-width:1.7078;stroke-linecap:round;stroke-linejoin:round;paint-order:markers stroke fill"
       id="rect4568" /><g
       aria-label="⑱"
       id="text4572"
       style="font-size:13.797px;font-family:'Mplus 1p';-inkscape-font-specification:'Mplus 1p, Normal';text-align:center;text-anchor:middle;fill:#262523;stroke-width:0.34493"><path
         d="m 18.353154,165.83752 v 0.0276 q 0.510489,0.24835 0.82782,0.70365 0.400113,0.57947 0.400113,1.32451 0,0.99338 -0.565677,1.58666 -0.565677,0.59327 -1.531467,0.59327 -0.979587,0 -1.545264,-0.59327 -0.55188,-0.56568 -0.55188,-1.58666 0,-0.68985 0.386316,-1.22793 0.317331,-0.42771 0.800226,-0.67606 v -0.0138 q -0.441504,-0.30354 -0.68985,-0.70365 -0.317331,-0.51049 -0.317331,-1.15895 0,-0.85541 0.510489,-1.3797 0.510489,-0.52428 1.407294,-0.52428 0.896805,0 1.407294,0.52428 0.510489,0.52429 0.510489,1.3797 0,0.59327 -0.331128,1.06237 -0.27594,0.40011 -0.717444,0.66226 z m -4.96692,-3.51824 h 0.96579 v 7.64354 h -0.96579 v -6.20865 h -0.0138 l -1.531467,1.58666 v -1.44869 z m 4.125303,3.18711 q 0.510489,-0.19316 0.758835,-0.52429 0.248346,-0.33112 0.248346,-0.75883 0,-0.4691 -0.27594,-0.78643 -0.262143,-0.30353 -0.758835,-0.30353 -0.496692,0 -0.758835,0.30353 -0.262143,0.30353 -0.262143,0.78643 0,0.4691 0.248346,0.77263 0.262143,0.33113 0.800226,0.51049 z m -0.110376,0.8968 q -0.538083,0.22076 -0.841617,0.57948 -0.27594,0.35872 -0.27594,0.85541 0,0.59327 0.331128,0.952 0.331128,0.35872 0.869211,0.35872 0.538083,0 0.869211,-0.35872 0.317331,-0.33113 0.317331,-0.952 0,-0.55188 -0.317331,-0.8968 -0.303534,-0.30354 -0.951993,-0.53809 z m -5.339439,3.61482 q 1.614249,1.60045 3.876957,1.60045 2.262708,0 3.86316,-1.60045 1.614249,-1.61425 1.614249,-3.87696 0,-2.26271 -1.614249,-3.86316 -1.600452,-1.61425 -3.86316,-1.61425 -2.262708,0 -3.876957,1.61425 -1.600452,1.60045 -1.600452,3.86316 0,2.26271 1.600452,3.87696 z m 6.305229,1.87639 q -1.158948,0.49669 -2.428272,0.49669 -1.269324,0 -2.428272,-0.49669 -1.158948,-0.49669 -2.000565,-1.32451 -0.82782,-0.84162 -1.324512,-2.00057 -0.4966922,-1.15894 -0.4966922,-2.42827 0,-1.26932 0.4966922,-2.42827 0.496692,-1.15895 1.324512,-1.98677 0.841617,-0.84162 2.000565,-1.33831 1.158948,-0.49669 2.428272,-0.49669 1.269324,0 2.428272,0.49669 1.158948,0.49669 1.986768,1.33831 0.841617,0.82782 1.338309,1.98677 0.496692,1.15895 0.496692,2.42827 0,1.26933 -0.496692,2.42827 -0.496692,1.15895 -1.338309,2.00057 -0.82782,0.82782 -1.986768,1.32451 z"
         id="path8973" /></g></g><g
     transform="translate(295.50736,-41.957937)"
     id="g4582"><rect
       x="7.9387002"
       y="158.14"
       width="16"
       height="16"
       style="fill:#fd6b5b;stroke-width:1.7078;stroke-linecap:round;stroke-linejoin:round;paint-order:markers stroke fill"
       id="rect4576" /><g
       aria-label="⑲"
       id="text4580"
       style="font-size:13.797px;font-family:'Mplus 1p';-inkscape-font-specification:'Mplus 1p, Normal';text-align:center;text-anchor:middle;fill:#262523;stroke-width:0.34493"><path
         d="m 15.911085,168.81767 q 0.565677,0.30353 1.214136,0.30353 0.648459,0 1.007181,-0.52428 0.386316,-0.57948 0.455301,-1.82121 -0.0138,0.0276 -0.05519,0.069 -0.02759,0.0276 -0.04139,0.0414 -0.455301,0.53808 -1.200339,0.53808 -0.869211,0 -1.365903,-0.67605 -0.496692,-0.68985 -0.496692,-1.90399 0,-1.21413 0.55188,-1.93158 0.538083,-0.70364 1.490076,-0.70364 0.951993,0 1.490076,0.80022 0.538083,0.81403 0.538083,2.41448 0,2.26271 -0.565677,3.43545 -0.593271,1.21414 -1.779813,1.21414 -0.607068,0 -1.24173,-0.23455 z m -2.524851,-6.49839 h 0.96579 v 7.64354 h -0.96579 v -6.20865 h -0.0138 l -1.531467,1.58666 v -1.44869 z m 4.083912,0.84162 q -0.538083,0 -0.841617,0.42771 -0.303534,0.4277 -0.303534,1.22793 0,0.81402 0.317331,1.28312 0.317331,0.4415 0.82782,0.4415 0.524286,0 0.82782,-0.4415 0.303534,-0.4415 0.303534,-1.28312 0,-0.74504 -0.317331,-1.21414 -0.317331,-0.4415 -0.814023,-0.4415 z m -5.408424,6.85711 q 1.614249,1.60045 3.876957,1.60045 2.262708,0 3.86316,-1.60045 1.614249,-1.61425 1.614249,-3.87696 0,-2.26271 -1.614249,-3.86316 -1.600452,-1.61425 -3.86316,-1.61425 -2.262708,0 -3.876957,1.61425 -1.600452,1.60045 -1.600452,3.86316 0,2.26271 1.600452,3.87696 z m 6.305229,1.87639 q -1.158948,0.49669 -2.428272,0.49669 -1.269324,0 -2.428272,-0.49669 -1.158948,-0.49669 -2.000565,-1.32451 -0.82782,-0.84162 -1.324512,-2.00057 -0.4966922,-1.15894 -0.4966922,-2.42827 0,-1.26932 0.4966922,-2.42827 0.496692,-1.15895 1.324512,-1.98677 0.841617,-0.84162 2.000565,-1.33831 1.158948,-0.49669 2.428272,-0.49669 1.269324,0 2.428272,0.49669 1.158948,0.49669 1.986768,1.33831 0.841617,0.82782 1.338309,1.98677 0.496692,1.15895 0.496692,2.42827 0,1.26933 -0.496692,2.42827 -0.496692,1.15895 -1.338309,2.00057 -0.82782,0.82782 -1.986768,1.32451 z"
         id="path8966" /></g></g><g
     transform="translate(169.4613,-88.486884)"
     id="g4655"><rect
       x="7.9387002"
       y="158.14"
       width="16"
       height="16"
       style="fill:#fd6b5b;stroke-width:1.7078;stroke-linecap:round;stroke-linejoin:round;paint-order:markers stroke fill"
       id="rect4649" /><g
       aria-label="㉒"
       id="text4653"
       style="font-size:13.797px;font-family:'Mplus 1p';-inkscape-font-specification:'Mplus 1p, Normal';text-align:center;text-anchor:middle;fill:#262523;stroke-width:0.34493"><path
         d="m 17.470146,168.90045 v 0.0138 h 2.20752 v 1.04857 h -3.352671 v -1.04857 q 0.676053,-0.81402 1.089963,-1.35211 0.620865,-0.84161 0.855414,-1.29692 0.496692,-0.9106 0.496692,-1.72462 0,-0.59327 -0.234549,-0.9382 -0.234549,-0.31733 -0.662256,-0.31733 -0.648459,0 -1.421091,0.59327 V 162.678 q 0.717444,-0.46909 1.531467,-0.46909 0.786429,0 1.227933,0.59327 0.441504,0.59327 0.441504,1.62804 0,0.97959 -0.469098,1.93158 -0.482895,0.99339 -1.710828,2.53865 z m -4.125303,0 v 0.0138 h 2.20752 v 1.04857 h -3.338874 v -1.04857 q 0.538083,-0.63466 1.076166,-1.35211 0.662256,-0.8968 0.869211,-1.29692 0.482895,-0.883 0.482895,-1.72462 0,-0.59327 -0.234549,-0.9382 -0.234549,-0.31733 -0.662256,-0.31733 -0.648459,0 -1.421091,0.59327 V 162.678 q 0.717444,-0.46909 1.531467,-0.46909 0.800226,0 1.24173,0.59327 0.427707,0.56567 0.427707,1.62804 0,0.96579 -0.455301,1.93158 -0.455301,0.9382 -1.724625,2.53865 z m -1.283121,1.11756 q 1.614249,1.60045 3.876957,1.60045 2.262708,0 3.86316,-1.60045 1.614249,-1.61425 1.614249,-3.87696 0,-2.26271 -1.614249,-3.86316 -1.600452,-1.61425 -3.86316,-1.61425 -2.262708,0 -3.876957,1.61425 -1.600452,1.60045 -1.600452,3.86316 0,2.26271 1.600452,3.87696 z m 6.305229,1.87639 q -1.158948,0.49669 -2.428272,0.49669 -1.269324,0 -2.428272,-0.49669 -1.158948,-0.49669 -2.000565,-1.32451 -0.82782,-0.84162 -1.324512,-2.00057 -0.4966922,-1.15894 -0.4966922,-2.42827 0,-1.26932 0.4966922,-2.42827 0.496692,-1.15895 1.324512,-1.98677 0.841617,-0.84162 2.000565,-1.33831 1.158948,-0.49669 2.428272,-0.49669 1.269324,0 2.428272,0.49669 1.158948,0.49669 1.986768,1.33831 0.841617,0.82782 1.338309,1.98677 0.496692,1.15895 0.496692,2.42827 0,1.26933 -0.496692,2.42827 -0.496692,1.15895 -1.338309,2.00057 -0.82782,0.82782 -1.986768,1.32451 z"
         id="path8959" /></g></g><g
     transform="translate(200.44426,-9.7389476)"
     id="g6970"><rect
       x="7.9387002"
       y="158.14"
       width="16"
       height="16"
       style="fill:#fd6b5b;stroke-width:1.7078;stroke-linecap:round;stroke-linejoin:round;paint-order:markers stroke fill"
       id="rect6964" /><g
       aria-label="⑳"
       id="text6968"
       style="font-size:13.797px;font-family:'Mplus 1p';-inkscape-font-specification:'Mplus 1p, Normal';text-align:center;text-anchor:middle;fill:#262523;stroke-width:0.34493"><path
         d="m 13.344843,168.90045 v 0.0138 h 2.20752 v 1.04857 h -3.338874 v -1.04857 q 0.814023,-0.99339 1.10376,-1.3797 0.538083,-0.71745 0.841617,-1.26933 0.482895,-0.883 0.482895,-1.72462 0,-0.59327 -0.234549,-0.9382 -0.234549,-0.31733 -0.662256,-0.31733 -0.648459,0 -1.421091,0.59327 V 162.678 q 0.717444,-0.46909 1.531467,-0.46909 0.800226,0 1.24173,0.59327 0.427707,0.56567 0.427707,1.62804 0,1.00718 -0.455301,1.93158 -0.455301,0.9382 -1.724625,2.53865 z m 3.849363,-0.52428 q 0.262143,0.70364 0.800226,0.70364 0.538083,0 0.814023,-0.70364 0.262143,-0.71745 0.262143,-2.23512 0,-1.51767 -0.262143,-2.23511 -0.27594,-0.70365 -0.814023,-0.70365 -0.538083,0 -0.800226,0.70365 -0.262143,0.71744 -0.262143,2.23511 0,1.51767 0.262143,2.23512 z m 0.800226,1.69703 q -1.007181,0 -1.476279,-0.99339 -0.469098,-0.96579 -0.469098,-2.93876 0,-1.97297 0.469098,-2.93876 0.469098,-0.99338 1.476279,-0.99338 1.007181,0 1.490076,0.99338 0.455301,0.9244 0.455301,2.93876 0,2.01436 -0.455301,2.93876 -0.482895,0.99339 -1.490076,0.99339 z m -5.93271,-0.0552 q 1.614249,1.60045 3.876957,1.60045 2.262708,0 3.86316,-1.60045 1.614249,-1.61425 1.614249,-3.87696 0,-2.26271 -1.614249,-3.86316 -1.600452,-1.61425 -3.86316,-1.61425 -2.262708,0 -3.876957,1.61425 -1.600452,1.60045 -1.600452,3.86316 0,2.26271 1.600452,3.87696 z m 6.305229,1.87639 q -1.158948,0.49669 -2.428272,0.49669 -1.269324,0 -2.428272,-0.49669 -1.158948,-0.49669 -2.000565,-1.32451 -0.82782,-0.84162 -1.324512,-2.00057 -0.4966922,-1.15894 -0.4966922,-2.42827 0,-1.26932 0.4966922,-2.42827 0.496692,-1.15895 1.324512,-1.98677 0.841617,-0.84162 2.000565,-1.33831 1.158948,-0.49669 2.428272,-0.49669 1.269324,0 2.428272,0.49669 1.158948,0.49669 1.986768,1.33831 0.841617,0.82782 1.338309,1.98677 0.496692,1.15895 0.496692,2.42827 0,1.26933 -0.496692,2.42827 -0.496692,1.15895 -1.338309,2.00057 -0.82782,0.82782 -1.986768,1.32451 z"
         id="path8952" /></g></g><g
     transform="translate(238.28307,-9.7399994)"
     id="g7704"><rect
       x="7.9387002"
       y="158.14"
       width="16"
       height="16"
       style="fill:#fd6b5b;stroke-width:1.7078;stroke-linecap:round;stroke-linejoin:round;paint-order:markers stroke fill"
       id="rect7698" /><g
       aria-label="㉑"
       id="text7702"
       style="font-size:13.797px;font-family:'Mplus 1p';-inkscape-font-specification:'Mplus 1p, Normal';text-align:center;text-anchor:middle;fill:#262523;stroke-width:0.34493"><path
         d="m 18.04962,162.31928 h 0.896805 v 7.64354 H 18.04962 v -6.19485 h -0.0138 l -1.407294,1.57286 v -1.44869 z m -4.566807,6.58117 v 0.0138 h 2.20752 v 1.04857 h -3.338874 v -1.04857 q 0.538083,-0.63466 1.076166,-1.35211 0.662256,-0.8968 0.869211,-1.29692 0.482895,-0.883 0.482895,-1.72462 0,-0.59327 -0.234549,-0.9382 -0.234549,-0.31733 -0.662256,-0.31733 -0.648459,0 -1.421091,0.59327 V 162.678 q 0.717444,-0.46909 1.531467,-0.46909 0.800226,0 1.24173,0.59327 0.427707,0.56567 0.427707,1.62804 0,0.96579 -0.455301,1.93158 -0.455301,0.9382 -1.724625,2.53865 z m 4.884138,2.99395 q -1.158948,0.49669 -2.428272,0.49669 -1.269324,0 -2.428272,-0.49669 -1.158948,-0.49669 -2.000565,-1.32451 -0.82782,-0.84162 -1.324512,-2.00057 -0.4966922,-1.15894 -0.4966922,-2.42827 0,-1.26932 0.4966922,-2.42827 0.496692,-1.15895 1.324512,-1.98677 0.841617,-0.84162 2.000565,-1.33831 1.158948,-0.49669 2.428272,-0.49669 1.269324,0 2.428272,0.49669 1.158948,0.49669 1.986768,1.33831 0.841617,0.82782 1.338309,1.98677 0.496692,1.15895 0.496692,2.42827 0,1.26933 -0.496692,2.42827 -0.496692,1.15895 -1.338309,2.00057 -0.82782,0.82782 -1.986768,1.32451 z m -6.305229,-1.87639 q 1.614249,1.60045 3.876957,1.60045 2.262708,0 3.86316,-1.60045 1.614249,-1.61425 1.614249,-3.87696 0,-2.26271 -1.614249,-3.86316 -1.600452,-1.61425 -3.86316,-1.61425 -2.262708,0 -3.876957,1.61425 -1.600452,1.60045 -1.600452,3.86316 0,2.26271 1.600452,3.87696 z"
         id="path8945" /></g></g><g
     aria-label="11番教室"
     id="text7708"
     style="font-size:6.66667px;font-family:'Mplus 1p';-inkscape-font-specification:'Mplus 1p';fill:#e3e2dd"><path
       d="m 203.15962,146.63644 h 2.68 v -0.50666 h -0.98667 v -4.38 h -0.46666 c -0.26,0.16 -0.57334,0.27333 -1.01334,0.34666 v 0.39334 h 0.87334 v 3.64 h -1.08667 z"
       style="-inkscape-font-specification:'Source Han Sans VF'"
       id="path8922" /><path
       d="m 206.85962,146.63644 h 2.68 v -0.50666 h -0.98666 v -4.38 h -0.46667 c -0.26,0.16 -0.57333,0.27333 -1.01333,0.34666 v 0.39334 h 0.87333 v 3.64 h -1.08667 z"
       style="-inkscape-font-specification:'Source Han Sans VF'"
       id="path8924" /><path
       d="m 210.37296,142.90311 v 0.42 h 5.87334 v -0.42 z m 2.66,-1.28 v 2.85333 h 0.5 v -2.85333 z m 2.26667,-0.50667 c -1.04667,0.23333 -2.96,0.38667 -4.55334,0.45334 0.0467,0.1 0.1,0.28 0.11334,0.38666 1.60666,-0.0533 3.54667,-0.20666 4.77333,-0.46667 z m -2.49334,1.91334 c -0.56666,0.66 -1.66666,1.29333 -2.60666,1.59333 0.11333,0.1 0.25333,0.28 0.32,0.39333 0.95333,-0.34666 2.06666,-1.04666 2.69333,-1.79333 z m 0.95334,0.02 -0.38667,0.17333 c 0.62667,0.73333 1.74667,1.42 2.71334,1.74 0.08,-0.12667 0.22,-0.32 0.34,-0.42 -0.97334,-0.26667 -2.09334,-0.86 -2.66667,-1.49333 z m 1.04667,-1.26 c -0.12667,0.30666 -0.36667,0.75333 -0.56,1.04 l 0.42,0.14666 c 0.2,-0.26666 0.46,-0.67333 0.67333,-1.03333 z m -3.46001,0.28 c 0.20667,0.27333 0.42,0.66 0.50667,0.90666 l 0.45333,-0.18 c -0.0867,-0.25333 -0.31333,-0.62 -0.53333,-0.89333 z m -0.12,2.53333 v 2.58 h 0.48667 v -2.18667 h 3.26 v 2.16 h 0.50667 v -2.55333 z m 0.22,0.97333 v 0.36 h 3.80667 v -0.36 z m 0,0.97334 v 0.4 h 3.80667 v -0.4 z m 1.6,-1.73334 v 1.99334 h 0.48001 v -1.99334 z"
       style="-inkscape-font-specification:'Source Han Sans VF'"
       id="path8926" /><path
       d="m 217.45296,143.76978 v 0.40666 h 2.01334 v -0.40666 z m -0.27333,-2.03334 v 0.44 h 2.18 v -0.44 z m -0.26667,1.09334 v 0.44 h 3.23334 v -0.44 z m 1.14667,-1.79334 v 2.02667 h 0.47333 v -2.02667 z m 1.77333,0.15333 c -0.6,1.54001 -1.66666,2.74667 -3.06,3.46001 0.10667,0.0867 0.28667,0.28 0.36,0.38 1.39334,-0.79334 2.49334,-2.04667 3.16667,-3.70001 z m -1.50666,3.47334 v 1.97333 c 0,0.0733 -0.02,0.0933 -0.11334,0.1 -0.0933,0 -0.37333,0 -0.70666,-0.007 0.0667,0.12666 0.13333,0.31333 0.16,0.44 0.42666,0 0.71333,-0.007 0.9,-0.0733 0.18,-0.0733 0.23333,-0.2 0.23333,-0.46 v -1.97333 z m 1.04,-0.89333 v 0.08 c -0.2,0.28666 -0.6,0.67333 -0.94,0.9 0.08,0.0667 0.2,0.18 0.26,0.26666 0.39333,-0.26 0.85333,-0.67333 1.16666,-1.06 l -0.29333,-0.21333 -0.0933,0.0267 z m -2.48667,1.63333 0.06,0.46 c 0.84667,-0.0933 2.07333,-0.22667 3.23333,-0.35333 v -0.44 c -1.21333,0.13333 -2.48,0.26 -3.29333,0.33333 z m 3.78667,-3.12 v 0.46667 h 2.37333 v -0.46667 z m 0.18,-1.24667 c -0.2,1.14667 -0.55334,2.24667 -1.09334,2.94 0.11334,0.08 0.32667,0.25334 0.41334,0.34 0.55333,-0.76 0.95333,-1.94666 1.18,-3.2 z m 1.28,1.5 c -0.27333,2.12 -0.91334,3.46 -2.5,4.20667 0.1,0.10667 0.24666,0.33333 0.3,0.44667 1.68,-0.86667 2.38667,-2.29334 2.70667,-4.6 z m -1.20667,0.14 -0.45333,0.0733 c 0.33333,2.02666 0.96666,3.66 2.27333,4.42666 0.0733,-0.13333 0.23334,-0.32666 0.35334,-0.42666 -1.24667,-0.65334 -1.88001,-2.23334 -2.17334,-4.07334 z"
       style="-inkscape-font-specification:'Source Han Sans VF'"
       id="path8928" /><path
       d="m 226.3663,144.44311 v 2.26 h 0.51333 v -2.26 z m -1.91333,-1.76667 v 0.44 h 4.41333 v -0.44 z m -0.76,3.86 v 0.44667 h 5.91333 v -0.44667 z m 0.61333,-1.28 v 0.44 h 4.71334 v -0.44 z m 1.48,-2.34666 c -0.18667,0.40666 -0.52667,1 -0.79333,1.36666 l 0.4,0.14 c 0.28,-0.34666 0.63333,-0.89333 0.90666,-1.36 z m -1.6,1.19333 0.0267,0.46 c 1.12,-0.0267 2.82666,-0.08 4.44,-0.14667 l 0.0267,-0.42666 c -1.64667,0.0467 -3.39334,0.1 -4.49334,0.11333 z m 3.22,-0.58667 c 0.56,0.37334 1.22667,0.93334 1.53334,1.32 l 0.38666,-0.28666 c -0.32,-0.38667 -1,-0.92667 -1.56,-1.28667 z m -1.04,-2.47333 v 0.81333 h 0.51333 v -0.81333 z m -2.59333,0.5 v 1.23333 h 0.48666 v -0.77333 h 4.75334 v 0.77333 h 0.50667 v -1.23333 z"
       style="-inkscape-font-specification:'Source Han Sans VF'"
       id="path8930" /></g><g
     aria-label="12番教室"
     id="text7988"
     style="font-size:6.66667px;font-family:'Mplus 1p';-inkscape-font-specification:'Mplus 1p';fill:#e3e2dd"><path
       d="m 240.99844,146.63644 h 2.68 v -0.50666 h -0.98667 v -4.38 h -0.46666 c -0.26,0.16 -0.57334,0.27333 -1.01334,0.34666 v 0.39334 h 0.87334 v 3.64 h -1.08667 z"
       style="-inkscape-font-specification:'Source Han Sans VF'"
       id="path8901" /><path
       d="m 244.40511,146.63644 h 3.06667 v -0.52 h -1.35333 c -0.24667,0 -0.54001,0.02 -0.80001,0.0467 1.15334,-1.08667 1.92001,-2.08 1.92001,-3.06 0,-0.87333 -0.54667,-1.44 -1.42,-1.44 -0.62001,0 -1.04667,0.28667 -1.44667,0.72 l 0.35333,0.34 c 0.27333,-0.32 0.62,-0.56667 1.02,-0.56667 0.60667,0 0.89334,0.41334 0.89334,0.97334 0,0.83333 -0.7,1.81333 -2.23334,3.15333 z"
       style="-inkscape-font-specification:'Source Han Sans VF'"
       id="path8903" /><path
       d="m 248.21178,142.90311 v 0.42 h 5.87334 v -0.42 z m 2.66,-1.28 v 2.85333 h 0.5 v -2.85333 z m 2.26667,-0.50667 c -1.04667,0.23333 -2.96,0.38667 -4.55333,0.45334 0.0467,0.1 0.1,0.28 0.11333,0.38666 1.60667,-0.0533 3.54667,-0.20666 4.77333,-0.46667 z m -2.49333,1.91334 c -0.56667,0.66 -1.66667,1.29333 -2.60667,1.59333 0.11333,0.1 0.25333,0.28 0.32,0.39333 0.95333,-0.34666 2.06667,-1.04666 2.69333,-1.79333 z m 0.95333,0.02 -0.38667,0.17333 c 0.62667,0.73333 1.74667,1.42 2.71334,1.74 0.08,-0.12667 0.22,-0.32 0.34,-0.42 -0.97334,-0.26667 -2.09334,-0.86 -2.66667,-1.49333 z m 1.04667,-1.26 c -0.12667,0.30666 -0.36667,0.75333 -0.56,1.04 l 0.42,0.14666 c 0.2,-0.26666 0.46,-0.67333 0.67333,-1.03333 z m -3.46,0.28 c 0.20666,0.27333 0.42,0.66 0.50666,0.90666 l 0.45334,-0.18 c -0.0867,-0.25333 -0.31334,-0.62 -0.53334,-0.89333 z m -0.12,2.53333 v 2.58 h 0.48666 v -2.18667 h 3.26 v 2.16 h 0.50667 v -2.55333 z m 0.22,0.97333 v 0.36 h 3.80666 v -0.36 z m 0,0.97334 v 0.4 h 3.80666 v -0.4 z m 1.6,-1.73334 v 1.99334 h 0.48 v -1.99334 z"
       style="-inkscape-font-specification:'Source Han Sans VF'"
       id="path8905" /><path
       d="m 255.29178,143.76978 v 0.40666 h 2.01334 v -0.40666 z m -0.27333,-2.03334 v 0.44 h 2.18 v -0.44 z m -0.26667,1.09334 v 0.44 h 3.23334 v -0.44 z m 1.14667,-1.79334 v 2.02667 h 0.47334 v -2.02667 z m 1.77334,0.15333 c -0.6,1.54001 -1.66667,2.74667 -3.06001,3.46001 0.10667,0.0867 0.28667,0.28 0.36,0.38 1.39334,-0.79334 2.49334,-2.04667 3.16667,-3.70001 z m -1.50667,3.47334 v 1.97333 c 0,0.0733 -0.02,0.0933 -0.11334,0.1 -0.0933,0 -0.37333,0 -0.70666,-0.007 0.0667,0.12666 0.13333,0.31333 0.16,0.44 0.42666,0 0.71333,-0.007 0.9,-0.0733 0.18,-0.0733 0.23333,-0.2 0.23333,-0.46 v -1.97333 z m 1.04,-0.89333 v 0.08 c -0.2,0.28666 -0.6,0.67333 -0.94,0.9 0.08,0.0667 0.2,0.18 0.26,0.26666 0.39333,-0.26 0.85333,-0.67333 1.16667,-1.06 l -0.29334,-0.21333 -0.0933,0.0267 z m -2.48667,1.63333 0.06,0.46 c 0.84667,-0.0933 2.07334,-0.22667 3.23334,-0.35333 v -0.44 c -1.21334,0.13333 -2.48001,0.26 -3.29334,0.33333 z m 3.78667,-3.12 v 0.46667 h 2.37333 v -0.46667 z m 0.18,-1.24667 c -0.2,1.14667 -0.55333,2.24667 -1.09333,2.94 0.11333,0.08 0.32666,0.25334 0.41333,0.34 0.55333,-0.76 0.95333,-1.94666 1.18,-3.2 z m 1.28,1.5 c -0.27333,2.12 -0.91333,3.46 -2.5,4.20667 0.1,0.10667 0.24667,0.33333 0.3,0.44667 1.68,-0.86667 2.38667,-2.29334 2.70667,-4.6 z m -1.20667,0.14 -0.45333,0.0733 c 0.33333,2.02666 0.96667,3.66 2.27333,4.42666 0.0733,-0.13333 0.23334,-0.32666 0.35334,-0.42666 -1.24667,-0.65334 -1.88,-2.23334 -2.17334,-4.07334 z"
       style="-inkscape-font-specification:'Source Han Sans VF'"
       id="path8907" /><path
       d="m 264.20512,144.44311 v 2.26 h 0.51334 v -2.26 z m -1.91333,-1.76667 v 0.44 h 4.41333 v -0.44 z m -0.76,3.86 v 0.44667 h 5.91333 v -0.44667 z m 0.61333,-1.28 v 0.44 h 4.71334 v -0.44 z m 1.48,-2.34666 c -0.18666,0.40666 -0.52667,1 -0.79333,1.36666 l 0.4,0.14 c 0.28,-0.34666 0.63333,-0.89333 0.90667,-1.36 z m -1.6,1.19333 0.0267,0.46 c 1.12,-0.0267 2.82667,-0.08 4.44,-0.14667 l 0.0267,-0.42666 c -1.64667,0.0467 -3.39334,0.1 -4.49334,0.11333 z m 3.22,-0.58667 c 0.56,0.37334 1.22667,0.93334 1.53334,1.32 l 0.38666,-0.28666 c -0.32,-0.38667 -1,-0.92667 -1.56,-1.28667 z m -1.04,-2.47333 v 0.81333 h 0.51334 v -0.81333 z m -2.59333,0.5 v 1.23333 h 0.48666 v -0.77333 h 4.75334 v 0.77333 h 0.50667 v -1.23333 z"
       style="-inkscape-font-specification:'Source Han Sans VF'"
       id="path8909" /></g><g
     aria-label="(1F)"
     id="text7992"
     style="font-size:6.66667px;font-family:'Mplus 1p';-inkscape-font-specification:'Mplus 1p';fill:#e3e2dd"><path
       d="m 185.24481,153.89089 0.37333,-0.17333 c -0.57333,-0.94667 -0.85333,-2.07333 -0.85333,-3.20667 0,-1.13333 0.28,-2.26 0.85333,-3.20667 l -0.37333,-0.18 c -0.62,1 -0.98667,2.08001 -0.98667,3.38667 0,1.31334 0.36667,2.38 0.98667,3.38 z"
       style="-inkscape-font-specification:'Source Han Sans VF'"
       id="path8884" /><path
       d="m 186.49147,152.57756 h 2.68 v -0.50667 h -0.98666 v -4.24 h -0.46667 c -0.26,0.15333 -0.57334,0.26667 -1.01334,0.34667 v 0.39333 h 0.87334 v 3.5 h -1.08667 z"
       style="-inkscape-font-specification:'Source Han Sans VF'"
       id="path8886" /><path
       d="m 190.27147,152.57756 h 0.62001 v -2.19333 h 1.86 v -0.51334 h -1.86 v -1.66 h 2.19333 v -0.52 h -2.81334 z"
       style="-inkscape-font-specification:'Source Han Sans VF'"
       id="path8888" /><path
       d="m 193.94481,153.89089 c 0.61333,-1 0.98,-2.06666 0.98,-3.38 0,-1.30666 -0.36667,-2.38667 -0.98,-3.38667 l -0.38,0.18 c 0.57333,0.94667 0.85333,2.07334 0.85333,3.20667 0,1.13334 -0.28,2.26 -0.85333,3.20667 z"
       style="-inkscape-font-specification:'Source Han Sans VF'"
       id="path8890" /></g></g></svg>
