<svg width="510" height="290" enable-background="new 0 0 510.2 255.1" version="1.1" viewBox="0 0 510 290" xml:space="preserve" xmlns="http://www.w3.org/2000/svg">
<style type="text/css">
	.st0{fill:#262523;}
	.st1{fill:#e3e2dd;}
	.st2{fill:#fd6b5b;}
</style>
<rect class="st0" x="9.95" y="52.284" width="115" height="30"/>

	<path class="st1" d="m53.95 69.084c-0.1 0.9-0.4 1.9-0.7 2.5-0.1 0-0.4-0.2-0.5-0.2 0.3-0.6 0.5-1.5 0.6-2.4zm1.1-0.8v4.2h-0.7v-4.1c-0.6 0-1.1 0.1-1.6 0.1v-0.7h0.7c0.2-0.3 0.4-0.6 0.7-0.9-0.3-0.4-0.8-1-1.3-1.4l0.4-0.5 0.3 0.3c0.3-0.6 0.7-1.3 0.9-1.9l0.7 0.3c-0.3 0.7-0.8 1.4-1.1 2l0.6 0.6c0.4-0.6 0.7-1.3 1-1.8l0.6 0.3c-0.6 0.9-1.3 2.1-2 3l1.5-0.1c-0.1-0.3-0.3-0.6-0.5-0.9l0.5-0.2c0.4 0.6 0.8 1.5 0.9 2l-0.6 0.2c0-0.2-0.1-0.4-0.2-0.6zm0.9 0.6c0.3 0.6 0.5 1.3 0.6 1.8l-0.6 0.2c-0.1-0.5-0.4-1.2-0.6-1.8zm3.6 2.6h2.4v0.7h-5.7v-0.7h2.5v-1.6h-1.9v-0.7h1.9v-1.4h0.7v1.4h2v0.7h-2v1.6zm2-7.5c-0.4 1.1-1 1.9-1.8 2.6 0.7 0.4 1.5 0.8 2.3 1-0.1 0.2-0.3 0.4-0.5 0.6-0.9-0.2-1.7-0.6-2.4-1.1-0.7 0.5-1.5 0.9-2.4 1.2-0.1-0.2-0.3-0.5-0.4-0.6 0.8-0.2 1.6-0.6 2.3-1-0.6-0.6-1.1-1.2-1.4-2l0.4-0.1h-1v-0.7h4.4zm-3.7 0.5c0.3 0.6 0.7 1.2 1.3 1.7 0.6-0.5 1-1 1.4-1.7z"/>
	<path class="st1" d="m71.55 64.884v1.9h-0.7v-1.3h-6.8v1.3h-0.7v-1.9h1.4c-0.2-0.4-0.5-0.8-0.8-1.2l0.6-0.3c0.4 0.4 0.8 0.9 0.9 1.3l-0.3 0.1h1.9c-0.1-0.4-0.5-0.9-0.7-1.4l0.6-0.2c0.3 0.4 0.7 1 0.8 1.4l-0.5 0.2h1.8c0.4-0.4 0.8-1 1-1.5l0.8 0.3c-0.3 0.4-0.6 0.9-1 1.2h1.7zm-3.9 3.7c-0.1 0.3-0.2 0.5-0.3 0.8h3.5v3h-0.7v-0.4h-5.3v0.4h-0.7v-3h2.5c0.1-0.2 0.2-0.5 0.2-0.8h-2v-2.3h5.3v2.3zm2.5 1.5h-5.3v1.3h5.3zm-4.6-2.1h3.8v-1.1h-3.8z"/>
	<path class="st1" d="m75.95 69.284c-0.2-0.3-0.6-1-0.9-1.5v4.6h-0.7v-4.6c-0.3 1.1-0.8 2.1-1.3 2.8-0.1-0.2-0.3-0.5-0.4-0.7 0.6-0.8 1.3-2.4 1.6-3.8h-1.4v-0.7h1.4v-2.1h0.7v2.1h1.2v0.7h-1.2v0.8c0.3 0.4 1.1 1.5 1.3 1.8zm3.9 0c0.6 0.8 1.5 1.7 2.3 2.1-0.2 0.1-0.4 0.4-0.5 0.6-0.7-0.5-1.6-1.4-2.2-2.3v2.7h-0.7v-2.6c-0.6 0.9-1.6 1.8-2.5 2.3-0.1-0.2-0.3-0.4-0.5-0.6 0.9-0.4 2-1.3 2.6-2.2h-1.7v-3.4h2v-0.8h-2.4v-0.7h2.5v-1.1h0.7v1.1h2.4v0.6h-2.4v0.8h2.1v3.4h-1.7zm-2.5-2h1.4v-0.8h-1.4zm0 1.4h1.4v-0.9h-1.4zm2.1-2.2v0.8h1.4v-0.8zm1.4 1.3h-1.4v0.9h1.4z"/>

<rect class="st0" x="9.45" y="94.784" width="83" height="29"/>

	<path class="st1" d="m36.65 111.88c0.7 1.1 2 1.7 3.7 2-0.2 0.2-0.3 0.5-0.5 0.6-1.9-0.3-3.3-1.2-4.1-2.6h-0.1c-0.5 1-1.6 1.9-3.9 2.6-0.1-0.2-0.3-0.4-0.5-0.6 1.9-0.5 3-1.2 3.5-2h-3.4v-0.7h3.7c0.1-0.3 0.2-0.6 0.2-0.9h-2.5v-0.6h2.8v-0.9h-2.9v-0.6h2.9v-0.8h0.7v0.8h3.1v-1.1h-6.9v1.2h-0.7v-1.9h3.8v-1h0.7v1h3.8v1.9h-0.7v0.5h-3.1v0.9h2.9v0.6h-3c0 0.3-0.1 0.6-0.2 0.9h4.2v0.7z"/>
	<path class="st1" d="m44.25 108.48c-0.9 0.4-1.8 0.8-2.5 1l-0.3-0.6c0.7-0.2 1.7-0.6 2.7-1zm0.5-2.1h-3.1v-0.6h3.8v3.3c0 0.3-0.1 0.5-0.3 0.6-0.3 0.1-0.7 0.1-1.3 0.1 0-0.2-0.1-0.4-0.2-0.5h1c0.1 0 0.1 0 0.1-0.2zm-2.3 0.1c0.5 0.2 1 0.6 1.3 0.9l-0.4 0.5c-0.3-0.3-0.8-0.7-1.3-1zm3.8 3.1c-0.1 0.3-0.3 0.5-0.4 0.8h3.3v4.1h-0.7v-0.4h-4.8v0.4h-0.9v-4.1h2.3c0.1-0.3 0.3-0.7 0.4-0.9zm2.1 1.3h-4.8v1h4.8zm0 2.6v-1h-4.8v1zm-2.5-4.7c0.7-0.2 1.8-0.6 2.8-1l0.1 0.5c-0.9 0.3-1.9 0.7-2.6 1zm4.1 0.3c0 0.3-0.1 0.5-0.3 0.6-0.3 0.1-0.7 0.1-1.3 0.1 0-0.2-0.1-0.4-0.2-0.6h1c0.1 0 0.2 0 0.2-0.2v-2.6h-3.1v-0.6h3.8v3.3zm-2.3-1.2c-0.3-0.3-0.8-0.7-1.3-1l0.4-0.4c0.5 0.2 1 0.6 1.3 0.9z"/>
	<path class="st1" d="m60.35 112.88v0.7h-8.9v-0.7h4v-5.7h-3.5v-0.8h7.9v0.8h-3.6v5.7z"/>
	<path class="st1" d="m64.55 111.18c-1 0.5-2.1 1-2.9 1.4l-0.3-0.7c0.4-0.2 0.8-0.4 1.4-0.6v-3.1h-1.2v-0.7h1.2v-2.1h0.7v2.1h1.1v0.7h-1.1v2.8l1-0.5zm1.8-1.2c-0.1 0.2-0.3 0.5-0.4 0.7h4.3v0.3c-0.2 2.1-0.3 2.8-0.6 3.1-0.1 0.2-0.3 0.2-0.6 0.2h-1c0-0.2-0.1-0.5-0.2-0.6h0.8c0.1 0 0.2 0 0.3-0.1 0.2-0.2 0.3-0.8 0.4-2.4h-0.6c-0.4 1.2-1.2 2.5-2 3.1-0.1-0.1-0.3-0.3-0.5-0.4 0.8-0.5 1.5-1.6 1.9-2.7h-1c-0.5 1-1.5 2.1-2.4 2.7-0.1-0.2-0.3-0.3-0.5-0.5 0.8-0.5 1.7-1.3 2.2-2.2h-1c-0.4 0.5-0.8 0.8-1.3 1.1l-0.5-0.5c0.8-0.5 1.5-1.2 2-2h-1.4v-0.4h6.3v0.6zm3.4-1.2h-4.6v-3.2h4.6zm-0.7-2.6h-3.2v0.8h3.2zm0 1.3h-3.2v0.8h3.2z"/>

<rect class="st0" x="9.45" y="246.58" width="64.4" height="33.8"/>

	<path class="st1" d="m31.05 265.98h-2.3v1.6c0 0.4-0.1 0.6-0.4 0.7s-0.9 0.1-1.7 0.1c0-0.2-0.2-0.5-0.2-0.6h1.4c0.2 0 0.2 0 0.2-0.2v-1.6h-5.9v-0.6h5.9v-0.8h-4.9v-3.2h3.1v-0.7h-3.8v-0.6h3.8v-0.8h0.7v0.8h3.9v0.6h-3.9v0.7h3.2v3.2h-1.3v0.8h2.3v0.6zm-6.8 0.2c0.6 0.4 1.2 1 1.6 1.4l-0.6 0.5c-0.3-0.4-1-1-1.5-1.4zm-0.4-3.5h2.4v-0.8h-2.4zm0 1.4h2.4v-0.8h-2.4zm3.1-2.2v0.8h2.4v-0.8zm2.4 1.4h-2.4v0.8h2.4z"/>
	<path class="st1" d="m36.05 265.48c-1.4 0.4-2.8 0.8-3.9 1.1l-0.2-0.8c0.4-0.1 1-0.2 1.6-0.4v-4.2h-1.5v-0.7h3.7v0.7h-1.5v4l1.7-0.4zm4.3-3.7c-0.3 1.7-0.8 3-1.6 4 0.7 0.8 1.5 1.5 2.5 1.9-0.2 0.2-0.4 0.4-0.5 0.6-1-0.4-1.9-1.1-2.5-1.9-0.8 0.8-1.8 1.5-3.1 2-0.1-0.2-0.3-0.5-0.4-0.7 1.3-0.4 2.3-1 3.1-1.9-0.5-0.9-1-1.9-1.3-3.1-0.2 0.5-0.5 0.9-0.8 1.3-0.1-0.1-0.5-0.3-0.6-0.4 0.9-1 1.6-2.7 2-4.4l0.6 0.2c-0.2 0.6-0.3 1.2-0.5 1.7h3.9v0.7zm-3.4 0c0.3 1.3 0.7 2.4 1.3 3.4 0.6-0.9 1-2 1.3-3.4z"/>
	<path class="st1" d="m45.45 265.28c-0.2-0.3-0.6-1-0.9-1.5v4.6h-0.8v-4.4c-0.4 1-0.9 2-1.4 2.6-0.1-0.2-0.2-0.5-0.4-0.7 0.6-0.7 1.3-2 1.7-3.1h-1.6v-0.7h1.7v-1.5c-0.5 0.1-0.9 0.2-1.4 0.2 0-0.2-0.1-0.4-0.2-0.6 1.1-0.2 2.4-0.5 3.2-0.8l0.4 0.6c-0.4 0.2-0.8 0.3-1.3 0.4v1.7h1.5v0.7h-1.5v0.2c0.3 0.4 1.2 1.4 1.4 1.7zm4.5 0.5v2.6h-0.7v-2.5l-3.3 0.5-0.1-0.7 3.4-0.5v-5.9h0.7v5.8l1.2-0.2 0.1 0.7zm-1.9-1.3c-0.4-0.4-1.1-1.1-1.8-1.5l0.5-0.4c0.6 0.4 1.4 1 1.8 1.4zm0.2-2.7c-0.3-0.4-1-1-1.6-1.4l0.5-0.4c0.6 0.4 1.3 1 1.6 1.4z"/>
	<path class="st1" d="m55.15 265.28c-0.2-0.3-0.6-1-0.9-1.5v4.6h-0.7v-4.6c-0.3 1.1-0.8 2.1-1.3 2.8-0.1-0.2-0.3-0.5-0.4-0.7 0.6-0.8 1.3-2.4 1.6-3.8h-1.4v-0.7h1.4v-2.1h0.7v2.1h1.2v0.7h-1.2v0.8c0.3 0.4 1.1 1.5 1.3 1.8zm3.9-0.1c0.6 0.8 1.5 1.7 2.3 2.1-0.2 0.1-0.4 0.4-0.5 0.6-0.7-0.5-1.6-1.4-2.2-2.3v2.8h-0.7v-2.6c-0.6 0.9-1.6 1.8-2.5 2.3-0.1-0.2-0.3-0.4-0.5-0.6 0.9-0.4 2-1.3 2.6-2.2h-1.7v-3.4h2v-0.8h-2.4v-0.7h2.4v-1.1h0.7v1.1h2.4v0.6h-2.4v0.8h2.2v3.4zm-2.5-1.9h1.4v-0.9h-1.4zm0 1.4h1.4v-0.9h-1.4zm2.1-2.3v0.8h1.4v-0.8zm1.4 1.4h-1.4v0.9h1.4z"/>

<rect class="st2" x="9.95" y="5.3989" width="89.286" height="32.962" style="stroke-width:1.0006"/>

	
	
	
	
	
	
	
	

<polygon class="st0" transform="translate(.75 44.384)" points="173.1 222.4 310.1 222.4 310.1 194.4 206.1 194.4 206.1 164.4 310.1 164.4 310.1 135.4 173.1 135.4"/>

	<path class="st1" d="m236.45 194.78v0.8h-9.1v-0.8z"/>
	<path class="st1" d="m241.05 195.48v3.6c0 0.3-0.1 0.5-0.3 0.6s-0.6 0.1-1.1 0.1c0-0.2-0.1-0.4-0.2-0.6h0.9c0.1 0 0.2 0 0.2-0.2v-3.5c-0.6 0.1-1.2 0.1-1.8 0.2 0 1.3-0.1 3-0.8 4.1-0.1-0.1-0.4-0.3-0.5-0.3 0.7-1 0.7-2.5 0.7-3.7l-0.6 0.1-0.1-0.6 0.7-0.1v-3.1h0.9c0.1-0.4 0.3-1 0.4-1.4l0.8 0.2c-0.2 0.4-0.3 0.8-0.5 1.2h1.5v2.8l0.5-0.1v0.6zm-2.4-0.4c0.5 0 1.2-0.1 1.8-0.2v-2.2h-1.8zm0.8-2c0.3 0.4 0.5 1 0.6 1.3l-0.5 0.2c-0.1-0.4-0.3-0.9-0.5-1.4zm0.3 5.2h-0.5v-2.3h0.5zm6.3-3.1c-0.3 1.2-0.9 2.2-1.6 2.9 0.6 0.5 1.3 0.9 2.2 1.1-0.2 0.1-0.4 0.4-0.5 0.6-0.9-0.3-1.6-0.7-2.2-1.2-0.7 0.6-1.4 1-2.2 1.3-0.1-0.2-0.3-0.5-0.4-0.6 0.8-0.2 1.5-0.6 2.1-1.1-0.5-0.6-1-1.4-1.3-2.2l0.6-0.1h-1v-0.7h3.8zm-3-2.8c0 0.8-0.2 1.7-1 2.4-0.1-0.1-0.4-0.4-0.5-0.4 0.7-0.6 0.8-1.3 0.8-2v-1.3h2.9v2.6h0.7s0.1-0.1 0.1-0.2v-0.8c0.1 0.1 0.4 0.2 0.5 0.3 0 0.4 0 0.8-0.1 0.9-0.1 0.2-0.2 0.3-0.3 0.3-0.1 0.1-0.3 0.1-0.4 0.1h-0.5c-0.2 0-0.4 0-0.5-0.2-0.1-0.1-0.2-0.3-0.2-0.8v-1.6h-1.5zm-0.3 3.3c0.3 0.7 0.7 1.4 1.2 1.9 0.5-0.5 0.9-1.2 1.2-1.9z"/>
	<path class="st1" d="m250.55 196.68c-0.2-0.3-0.6-1-0.9-1.5v4.6h-0.7v-4.6c-0.3 1.1-0.8 2.1-1.3 2.8-0.1-0.2-0.3-0.5-0.4-0.7 0.6-0.8 1.3-2.4 1.6-3.8h-1.4v-0.7h1.4v-2.1h0.7v2.1h1.2v0.7h-1.2v0.8c0.3 0.4 1.1 1.5 1.3 1.8zm3.8 0c0.6 0.8 1.5 1.7 2.3 2.1-0.2 0.1-0.4 0.4-0.5 0.6-0.7-0.5-1.6-1.4-2.2-2.3v2.8h-0.7v-2.6c-0.6 0.9-1.6 1.8-2.5 2.3-0.1-0.2-0.3-0.4-0.5-0.6 0.9-0.4 2-1.3 2.6-2.2h-1.7v-3.4h2v-0.8h-2.4v-0.6h2.4v-1.1h0.7v1.1h2.4v0.6h-2.4v0.8h2.1v3.4h-1.6zm-2.5-2h1.4v-0.8h-1.4zm0 1.4h1.4v-0.9h-1.4zm2.1-2.3v0.8h1.4v-0.8zm1.4 1.4h-1.4v0.9h1.4z"/>


	<path class="st1" d="m229.95 254.78v3.6h-0.7v-3.4c-0.6 0.2-1.2 0.4-1.6 0.5l-0.2-0.7c0.5-0.1 1.1-0.3 1.8-0.5v-2.2h-0.9c-0.1 0.6-0.3 1.1-0.4 1.5-0.1-0.1-0.4-0.3-0.6-0.3 0.4-0.8 0.6-2.1 0.7-3.3l0.6 0.1c0 0.5-0.1 0.9-0.2 1.3h0.8v-2h0.7v2h1v0.7h-1v2l1.2-0.4 0.1 0.7zm6.5-3.8v0.4c-0.2 4.5-0.4 6.1-0.8 6.6-0.2 0.3-0.4 0.4-0.7 0.4h-1.1c0-0.2-0.1-0.5-0.2-0.7h1c0.2 0 0.3 0 0.4-0.2 0.3-0.3 0.5-1.8 0.7-5.8h-0.5c-0.5 2.6-1.6 5.3-3.3 6.6-0.1-0.2-0.4-0.3-0.6-0.4 1.6-1.2 2.7-3.6 3.2-6.1h-0.8c-0.4 1.7-1.4 3.6-2.5 4.5-0.1-0.2-0.4-0.3-0.6-0.4 1.1-0.8 1.9-2.5 2.4-4.1h-0.9c-0.3 0.7-0.7 1.4-1.1 1.9-0.1-0.1-0.4-0.3-0.6-0.4 0.8-0.9 1.4-2.3 1.7-3.8l0.7 0.1c-0.1 0.5-0.3 1-0.4 1.5h4z"/>
	<path class="st1" d="m238.95 251.28c-0.1 0.6-0.4 1.3-0.9 1.8-0.1-0.2-0.3-0.4-0.5-0.5 0.7-0.6 0.8-1.4 0.8-2.1v-1l0.6 0.2c0.9-0.1 1.8-0.2 2.3-0.4l0.5 0.5c-0.7 0.2-1.8 0.4-2.7 0.4v0.6h3v0.6h-1.3v1.2h-0.7v-1.2h-1.1zm2.2 6c-0.8 0.5-2.1 0.9-3 1.2-0.1-0.1-0.4-0.4-0.5-0.6 1-0.2 2.2-0.6 2.9-1zm-2.3-4.5h6.5v4.1h-6.5zm0.7 1.2h5v-0.7h-5zm0 1.1h5v-0.7h-5zm0 1.2h5v-0.7h-5zm6.9-5.6v0.6h-1.5v1.3h-0.7v-1.3h-1.4c-0.1 0.5-0.4 1-1 1.4-0.1-0.2-0.3-0.4-0.5-0.5 0.8-0.5 1-1.2 1-1.7v-0.9l0.6 0.1c0.9-0.1 1.9-0.2 2.5-0.4l0.5 0.5c-0.8 0.2-1.9 0.3-2.9 0.4v0.5zm-3 6.3c1.1 0.3 2.3 0.8 3 1.1l-0.8 0.4c-0.6-0.3-1.7-0.7-2.8-1.1z"/>
	<path class="st1" d="m250.55 255.28c-0.2-0.3-0.6-1-0.9-1.5v4.6h-0.7v-4.6c-0.3 1.1-0.8 2.1-1.3 2.8-0.1-0.2-0.3-0.5-0.4-0.7 0.6-0.8 1.3-2.4 1.6-3.8h-1.4v-0.7h1.4v-2.1h0.7v2.1h1.2v0.7h-1.2v0.8c0.3 0.4 1.1 1.5 1.3 1.8zm3.9 0c0.6 0.8 1.5 1.7 2.3 2.1-0.2 0.1-0.4 0.4-0.5 0.6-0.7-0.5-1.6-1.4-2.2-2.3v2.8h-0.7v-2.6c-0.6 0.9-1.6 1.8-2.5 2.3-0.1-0.2-0.3-0.4-0.5-0.6 0.9-0.4 2-1.3 2.6-2.2h-1.7v-3.4h2v-0.8h-2.4v-0.8h2.4v-1.1h0.7v1.1h2.4v0.6h-2.4v0.8h2.1v3.4h-1.6zm-2.5-2h1.4v-0.9h-1.4zm0 1.4h1.4v-0.9h-1.4zm2.1-2.3v0.8h1.4v-0.8zm1.4 1.4h-1.4v0.9h1.4z"/>

<rect class="st0" x="98.45" y="94.784" width="26" height="29"/>

	<path class="st1" d="m103.45 108.68h1.7v0.5h-1.7v0.7h1.4v1.9c0 0.2 0 0.4-0.2 0.5s-0.4 0.1-0.8 0.1c0-0.1-0.1-0.3-0.2-0.5h0.6c0.1 0 0.1 0 0.1-0.1v-1.4h-1v2.5h-0.5v-2.5h-0.9v2h-0.5v-2.4h1.4v-0.7h-1.7v-0.5h1.7v-0.7h-0.9c-0.1 0.3-0.2 0.5-0.4 0.7-0.1-0.1-0.3-0.2-0.5-0.2 0.3-0.5 0.6-1.2 0.7-1.8l0.5 0.1c-0.1 0.2-0.1 0.5-0.2 0.7h0.7v-1h0.5v1h1.4v0.5h-1.4v0.6zm2.7 2.3h-0.5v-3.9h0.5zm1.2-4.4v5.6c0 0.3-0.1 0.5-0.3 0.6s-0.6 0.1-1.1 0.1c0-0.1-0.1-0.4-0.2-0.5h0.9c0.1 0 0.1 0 0.1-0.2v-5.6z"/>
	<path class="st1" d="m109.95 107.98c-0.1 0.3-0.3 0.6-0.5 0.9v4h-0.5v-3.3c-0.2 0.3-0.4 0.5-0.6 0.7-0.1-0.1-0.2-0.4-0.3-0.5 0.5-0.5 1.1-1.2 1.4-2zm-0.2-1.3c-0.3 0.6-0.9 1.2-1.4 1.6-0.1-0.1-0.2-0.3-0.3-0.4 0.4-0.4 0.9-0.9 1.2-1.4zm2.8 4.9v0.4c-1 0.2-2 0.3-2.8 0.4l-0.1-0.5h0.4v-2.2h0.4v2.1l0.6-0.1v-2.6h-1.2v-0.5h1.2v-1.1h-0.5c-0.1 0.3-0.3 0.6-0.4 0.9-0.1-0.1-0.3-0.2-0.4-0.2 0.3-0.5 0.6-1.1 0.7-1.8l0.5 0.1c0 0.2-0.1 0.4-0.2 0.7h1.7v0.5h-0.9v1.1h0.9v0.5h-0.9v0.8h0.9v0.4h-0.9v1.2zm1.9-0.3c0 0.2 0 0.4-0.2 0.5-0.1 0.1-0.4 0.1-0.7 0.1 0-0.1-0.1-0.3-0.1-0.5h0.5c0.1 0 0.1 0 0.1-0.1v-3.8h-0.8v5.4h-0.5v-5.9h1.8v4.3z"/>
	<path class="st1" d="m117.45 110.68c-0.1-0.2-0.4-0.7-0.6-1.1v3.3h-0.5v-3.3c-0.2 0.8-0.6 1.5-0.9 2-0.1-0.1-0.2-0.3-0.3-0.5 0.4-0.6 0.9-1.7 1.1-2.6h-1v-0.5h1v-1.5h0.5v1.5h0.9v0.5h-0.9v0.5c0.2 0.3 0.8 1.1 0.9 1.3zm2.7 0c0.4 0.6 1.1 1.2 1.6 1.5l-0.4 0.4c-0.5-0.4-1.1-1-1.5-1.6v1.9h-0.5v-1.9c-0.5 0.7-1.1 1.2-1.7 1.6-0.1-0.1-0.2-0.3-0.4-0.4 0.7-0.3 1.4-0.9 1.8-1.5h-1.2v-2.4h1.4v-0.6h-1.7v-0.4h1.7v-0.8h0.5v0.8h1.7v0.4h-1.7v0.6h1.5v2.4zm-1.8-1.4h1v-0.6h-1zm0 1h1v-0.6h-1zm1.5-1.6v0.6h1v-0.6zm1 1h-1v0.6h1z"/>

<polygon class="st0" transform="translate(.75 44.384)" points="203.1 42.4 242.1 42.4 242.1 8.4 173.1 8.4 173.1 42.4 190.1 42.4 190.1 60.4 173.1 60.4 173.1 94.4 242.1 94.4 242.1 60.4 203.1 60.4"/>

	<path class="st1" d="m197.65 66.384v8.6h-0.8v-0.5h-6.7v0.5h-0.7v-8.6zm-0.7 7.4v-6.7h-6.7v6.7zm-1.1-0.5c-0.5-0.5-1.3-1-2.2-1.5-0.8 0.7-1.6 1.3-2.6 1.8-0.1-0.1-0.3-0.4-0.5-0.6 0.9-0.4 1.7-0.9 2.4-1.6-0.7-0.4-1.4-0.7-2.1-1l0.4-0.5c0.7 0.3 1.5 0.6 2.2 1 0.8-0.9 1.5-1.9 2-3.1l0.7 0.2c-0.5 1.2-1.2 2.3-2.1 3.2 0.8 0.5 1.6 1 2.1 1.4zm-4.1-3.5c-0.1-0.5-0.5-1.2-0.9-1.7l0.5-0.2c0.4 0.5 0.8 1.2 0.9 1.7zm1.7-0.2c-0.1-0.5-0.4-1.3-0.7-1.9l0.6-0.2c0.4 0.6 0.7 1.3 0.8 1.8z"/>
	<path class="st1" d="m207.95 70.984v0.5h-8.8v-0.5h4v-0.6h-3.3v-0.5h3.3v-0.5h-3.1v-0.5h3.1v-0.6h-4v-0.6h4v-0.6h-2.9v-0.5h2.9v-0.7h0.7v0.7h2.9v1.1h1.2v0.6h-1.2v1.1h-2.9v0.5h3.4v0.5h-3.4v0.6zm-7.5 1h6.4v3.1h-0.7v-0.3h-4.9v0.3h-0.7v-3.1zm0.7 0.5v0.6h4.9v-0.6zm4.9 1.7v-0.6h-4.9v0.6zm-2.1-6.5h2.1v-0.6h-2.1zm0 1.1h2.1v-0.6h-2.1z"/>
	<path class="st1" d="m211.95 72.084c0.5 0.7 1.1 1.6 1.3 2.2l-0.6 0.3c-0.1-0.2-0.2-0.5-0.4-0.9-1 0.3-2.1 0.6-3 0.8l-0.2-0.7 0.7-0.2v-5.2c-0.1 0.1-0.3 0.2-0.4 0.4-0.1-0.1-0.3-0.4-0.5-0.5 1-0.7 1.6-1.8 2-2.6h0.7c0.6 0.5 1.3 1.2 1.6 1.7l-0.5 0.5c-0.3-0.5-0.9-1.2-1.4-1.7-0.3 0.6-0.8 1.3-1.5 2h1.2v-0.9h0.6v0.9h1.1v3.2h-2.4v1.9c0.5-0.1 1-0.2 1.5-0.4-0.2-0.3-0.4-0.6-0.5-0.8zm-1.6-3v0.8h1.7v-0.8zm1.7 2.1v-0.8h-1.7v0.8zm2.4-0.1v0.8h3.3v3.1h-0.7v-0.4h-2.7v0.5h-0.6v-6.4h-0.6v-1.7h2v-1.1h0.7v1.1h2.1v1.7h-0.6v2.4zm-0.6-3.5v1h3.5v-1zm2.9 1.6h-2.3v1.2h2.3zm-2.3 3.3v1.4h2.7v-1.4z"/>
	<path class="st1" d="m222.15 71.884c-0.2-0.3-0.6-1-0.9-1.5v4.6h-0.7v-4.6c-0.3 1.1-0.8 2.1-1.3 2.8-0.1-0.2-0.3-0.5-0.4-0.7 0.6-0.8 1.3-2.4 1.6-3.8h-1.4v-0.7h1.4v-2.1h0.7v2.1h1.2v0.7h-1.2v0.8c0.3 0.4 1.1 1.5 1.3 1.8zm3.9 0c0.6 0.8 1.5 1.7 2.3 2.1-0.2 0.1-0.4 0.4-0.5 0.6-0.7-0.5-1.6-1.4-2.2-2.3v2.8h-0.7v-2.7c-0.6 0.9-1.6 1.8-2.5 2.3-0.1-0.2-0.3-0.4-0.5-0.6 0.9-0.4 2-1.3 2.6-2.2h-1.7v-3.4h2v-0.8h-2.4v-0.6h2.4v-1.1h0.7v1.1h2.4v0.6h-2.4v0.8h2.1v3.4zm-2.5-2h1.4v-0.8h-1.4zm0 1.4h1.4v-0.9h-1.4zm2.1-2.2v0.8h1.4v-0.8zm1.4 1.3h-1.4v0.9h1.4z"/>


	<path class="st1" d="m197.75 124.68h-4v1.9c0 0.4-0.1 0.7-0.5 0.8s-0.9 0.1-1.8 0.1c0-0.2-0.2-0.5-0.3-0.7h1.6c0.2 0 0.3-0.1 0.3-0.2v-1.9h-4v-0.7h4v-0.7h0.4c0.5-0.2 1-0.6 1.4-0.9h-4.1v-0.7h5.1l0.5 0.4c-0.6 0.6-1.5 1.3-2.4 1.7v0.2h4v0.7zm-7.9-2.4h-0.7v-2.2h1.5c-0.2-0.4-0.5-0.9-0.8-1.2l0.6-0.3c0.4 0.4 0.8 1 1 1.4l-0.3 0.2h2c-0.1-0.4-0.4-1-0.7-1.5l0.6-0.2c0.3 0.5 0.7 1.1 0.8 1.5l-0.4 0.2h1.8c0.4-0.5 0.8-1.1 1.1-1.6l0.8 0.3c-0.3 0.4-0.7 0.9-1 1.3h1.5v2.2h-0.7v-1.5h-7v1.4z"/>
	<path class="st1" d="m207.75 126.48v0.7h-8.9v-0.7h4v-2.5h-3v-0.7h3v-2.2h-2.3c-0.3 0.6-0.7 1.2-1 1.6-0.1-0.1-0.5-0.3-0.7-0.4 0.8-0.9 1.5-2.3 1.8-3.7l0.7 0.2c-0.2 0.5-0.3 1.1-0.6 1.6h2v-2h0.8v1.9h3.6v0.7h-3.4v2.2h3.2v0.7h-3.2v2.5h4z"/>
	<path class="st1" d="m213.65 118.38c1 1.5 2.8 2.8 4.4 3.4-0.2 0.2-0.3 0.4-0.5 0.7-1.5-0.7-3.3-2.1-4.2-3.4-0.8 1.2-2.4 2.6-4.1 3.4-0.1-0.2-0.3-0.4-0.4-0.6 1.7-0.8 3.4-2.3 4.1-3.5zm-4.4 5h8.2v0.7h-4.7c-0.3 0.7-0.8 1.6-1.2 2.3 1.2 0 2.6-0.1 4-0.1-0.4-0.5-0.9-1-1.3-1.3l0.6-0.3c0.9 0.8 1.9 1.9 2.3 2.6l-0.7 0.4c-0.1-0.2-0.3-0.4-0.5-0.7-2.4 0.1-5 0.2-6.7 0.3l-0.1-0.7h1.5c0.4-0.7 0.8-1.6 1.1-2.3h-2.6v-0.9zm6.5-1.9v0.7h-4.7v-0.7z"/>
	<path class="st1" d="m221.75 124.58c0.5 0.7 1.1 1.6 1.3 2.2l-0.6 0.3c-0.1-0.2-0.2-0.5-0.4-0.9-1 0.3-2.1 0.6-3 0.8l-0.2-0.7 0.7-0.2v-5.2c-0.1 0.1-0.3 0.2-0.4 0.4-0.1-0.1-0.3-0.4-0.5-0.5 1-0.7 1.6-1.8 2-2.6h0.7c0.6 0.5 1.3 1.2 1.6 1.7l-0.5 0.5c-0.3-0.5-0.9-1.2-1.4-1.7-0.3 0.6-0.8 1.3-1.5 2h1.2v-0.9h0.6v0.9h1.1v3.2h-2.4v1.9c0.5-0.1 1-0.2 1.5-0.4-0.2-0.3-0.4-0.6-0.5-0.8zm-1.6-3v0.8h1.7v-0.8zm1.7 2.1v-0.8h-1.7v0.8zm2.4-0.1v0.8h3.3v3.1h-0.7v-0.4h-2.7v0.5h-0.7v-6.4h-0.6v-1.7h2v-1.1h0.7v1.1h2.1v1.7h-0.6v2.4zm-0.6-3.5v1h3.5v-1zm2.8 1.6h-2.3v1.2h2.3zm-2.2 3.3v1.4h2.7v-1.4z"/>

<rect class="st0" x="255.85" y="104.78" width="47" height="34"/>

	<path class="st1" d="m265.35 114.98c0 0.2-0.1 0.5-0.1 0.8 0.6 0 1.2 0 1.6-0.1v0.6c-0.5 0-1 0.1-1.6 0.1h-0.1c-0.1 0.5-0.1 1-0.2 1.4h0.2c0.5 0 1.1 0 1.7-0.1v0.6c-0.5 0.1-1 0.1-1.6 0.1h-0.3v0.8c0 0.8 0.4 1.3 1.3 1.3 1.2 0 2-0.5 2-1.4 0-0.5-0.3-1.1-0.9-1.6l0.7-0.1c0.6 0.6 0.8 1.2 0.8 1.8 0 1.2-1.1 1.9-2.6 1.9-1.1 0-2-0.5-2-1.8 0-0.2 0-0.5 0.1-0.9-0.6 0-1.2-0.1-1.7-0.3v-0.6c0.5 0.2 1.1 0.3 1.7 0.3 0-0.5 0.1-1 0.2-1.4-0.6 0-1.2-0.2-1.7-0.3v-0.6c0.5 0.2 1.2 0.3 1.8 0.3 0-0.3 0.1-0.6 0.1-0.8v-0.6h0.7c-0.1 0.2-0.1 0.4-0.1 0.6z"/>
	<path class="st1" d="m273.65 120.98-0.4-0.6c0.3 0 0.5-0.1 0.7-0.1 1-0.2 2-1 2-2.4 0-1.2-0.8-2.2-2.1-2.3-0.1 0.7-0.3 1.6-0.5 2.3-0.5 1.6-1.1 2.5-1.9 2.5-0.7 0-1.4-0.8-1.4-2.1 0-1.7 1.5-3.3 3.5-3.3 1.9 0 3.1 1.3 3.1 2.9 0 1.7-1.1 2.8-3 3.1zm-2.1-1.4c0.4 0 0.8-0.5 1.2-1.9 0.2-0.7 0.4-1.4 0.4-2.2-1.5 0.2-2.5 1.5-2.5 2.6s0.5 1.5 0.9 1.5z"/>
	<path class="st1" d="m278.45 116.38c0.7-0.2 2.2-0.8 3.4-0.8 1.3 0 2.4 0.8 2.4 2.1 0 1.9-1.9 2.8-4.4 3l-0.3-0.7c2.1-0.1 4-0.7 4-2.3 0-0.8-0.6-1.5-1.7-1.5-1.3 0-3.3 0.9-4 1.1l-0.3-0.7c0.3 0 0.6-0.1 0.9-0.2zm5.3-0.9-0.4 0.2c-0.2-0.3-0.4-0.8-0.6-1.1l0.4-0.2c0.2 0.3 0.5 0.8 0.6 1.1zm0.9-0.3-0.4 0.2c-0.2-0.3-0.4-0.8-0.7-1.1l0.4-0.2c0.3 0.3 0.6 0.8 0.7 1.1z"/>
	<path class="st1" d="m288.85 115.28c-0.5 0.5-1.7 1.4-2.3 1.9-0.5 0.4-0.5 0.5 0 1 0.7 0.6 2.1 1.7 3 2.6l-0.6 0.5-0.6-0.6c-0.6-0.6-1.8-1.6-2.5-2.2-0.8-0.6-0.7-1 0.1-1.6l2.4-2 0.5-0.5 0.6 0.5c-0.2 0-0.4 0.2-0.6 0.4z"/>
	<path class="st1" d="m292.25 116.58c0.3-0.8 1.2-1.8 2.2-1.8 1.1 0 1.8 1.1 1.8 2.7 0 2.2-1.4 3.2-3.4 3.6l-0.4-0.6c1.7-0.3 3.1-1 3.1-3 0-1.3-0.4-2.2-1.3-2.2-1 0-1.9 1.5-2 2.5v1h-0.6c0-0.3-0.1-0.8-0.1-1.3 0-0.8 0.2-1.9 0.2-2.6 0-0.2 0-0.5 0.1-0.7h0.7c-0.1 0.8-0.2 1.9-0.3 2.4z"/>
	<path class="st1" d="m279.05 129.68v0.6h-7.1v-0.6h3.2v-4.6h-2.8v-0.6h6.3v0.6h-2.9v4.6z"/>
	<path class="st1" d="m283.55 127.98c0 0.2-0.1 0.4-0.1 0.6h2.8v0.2c-0.1 1.2-0.2 1.7-0.4 1.9-0.1 0.1-0.3 0.2-0.5 0.2h-1.1c0-0.1-0.1-0.4-0.2-0.5h1c0.2 0 0.2 0 0.3-0.1s0.2-0.5 0.3-1.3h-2.3c-0.3 0.8-0.9 1.4-2.1 1.8-0.1-0.1-0.2-0.4-0.3-0.5 1.6-0.4 2-1.3 2.1-2.5h-1.7c-0.1 1-0.4 2-1 2.8-0.1-0.1-0.4-0.3-0.5-0.3 0.9-1 1-2.5 1-3.5v-1.8h5.6v1.7h-2.3v0.7h3v0.5h-3.6zm3.3-3.4h-6.7v-0.5h6.7zm-5.5 2.3v0.6h2.2v-0.7zm0-1.3v0.8h4.5v-0.8z"/>

<rect class="st2" x="332.35" y="179.78" width="58.5" height="82"/>

	<path class="st0" d="m346.35 218.18h-1.7c0.2 0.2 0.3 0.5 0.4 0.7l-0.9 0.4h1.4v2.6h-3.1v0.6h3.7v0.4c-0.1 1.3-0.2 2-0.5 2.2-0.2 0.2-0.4 0.3-0.8 0.3h-1.3c0-0.3-0.2-0.8-0.3-1.1 0.4 0 0.8 0.1 1 0 0.1 0 0.2 0 0.3-0.1s0.2-0.4 0.2-0.9h-2.4v2.5h-1.1v-2c-0.9 0.8-2 1.5-3.2 1.9-0.2-0.3-0.5-0.7-0.7-0.9 1-0.3 2.2-0.8 3-1.4h-1.2l-0.1 0.2-1.2-0.1c0.2-0.7 0.5-1.8 0.7-2.6h2.7v-0.6h-3.1v-1h1.3c-0.1-0.3-0.3-0.7-0.5-1h-0.1c-0.3 0.4-0.6 0.8-0.9 1.1-0.2-0.2-0.7-0.5-1-0.6 0.6-0.5 1.2-1.4 1.6-2.3l1.1 0.3c-0.1 0.2-0.2 0.4-0.2 0.5h2.2v0.8c0.4-0.5 0.7-1 1-1.6l1.1 0.3c-0.1 0.2-0.2 0.4-0.2 0.6h2.8zm-5.1 3.6h-1.7l-0.1 0.6h1.9v-0.6zm-1-3.6c0.1 0.2 0.2 0.5 0.3 0.7l-0.8 0.4h2.3c-0.2-0.2-0.7-0.5-0.9-0.6 0.1-0.1 0.3-0.2 0.4-0.4h-1.3zm3.8 1.1c-0.1-0.3-0.4-0.7-0.6-1h-0.4c-0.3 0.4-0.6 0.8-0.9 1zm0.3 0.9h-2v0.6h2z"/>
	<path class="st0" d="m356.45 220.48v1.3h-9.2v-1.3z"/>
	<path class="st0" d="m360.25 216.88c-0.2 0.6-0.5 1.3-0.8 1.9v7h-1.1v-5.1c-0.2 0.3-0.4 0.5-0.6 0.8-0.1-0.3-0.4-0.9-0.7-1.2 0.8-0.9 1.6-2.3 2.1-3.7zm4 2.5c0.5 1.5 1.5 3.1 2.4 4-0.3 0.2-0.7 0.6-0.9 0.9-0.3-0.3-0.5-0.7-0.8-1.1v0.9h-1.3v1.6h-1.2v-1.6h-1.3v-0.9c-0.3 0.4-0.6 0.8-0.9 1.1-0.2-0.3-0.6-0.7-0.8-0.9 1-0.9 1.9-2.5 2.5-4.1h-2v-1.1h2.5v-1.7h1.2v1.7h2.8v1.1h-2.2zm-1.7 3.7v-2.5c-0.3 0.9-0.8 1.8-1.2 2.5zm2.3 0c-0.5-0.8-0.9-1.7-1.2-2.6v2.6z"/>
	<path class="st0" d="m374.25 218.38c0.7 0.5 1.6 1.2 2 1.7l-1 0.7-0.6-0.6c-2.5 0.1-5.1 0.2-6.8 0.2v-1.1h1.4c0.2-0.3 0.4-0.6 0.5-0.8h-2.3v-1h3.8v-0.8h1.2v0.8h3.8v1h-2zm0.7 6.4c0 0.6-0.1 0.8-0.5 1-0.4 0.1-1 0.2-1.8 0.2-0.1-0.3-0.2-0.7-0.3-1h1.3c0.2 0 0.2 0 0.2-0.2v-0.5h-3.8v1.6h-1.3v-5.1h6.2zm-5-3.1v0.5h3.8v-0.5zm3.8 1.8v-0.5h-3.8v0.5zm-2.6-5.1c-0.2 0.3-0.5 0.6-0.7 0.8h3.1c-0.2-0.2-0.4-0.4-0.6-0.5l0.5-0.3z"/>
	<path class="st0" d="m383.05 221.88v0.6h3.1v3.2h-1.1v-0.3h-2v0.5h-1.1v-6.4h-0.6v-1.1l-0.6 0.7c-0.2-0.4-0.8-1.1-1.2-1.5-0.3 0.5-0.7 1.1-1.3 1.7h0.9v-0.9h1v0.8h1v3.4h-2.3v1.4c0.3-0.1 0.7-0.2 1.1-0.2-0.1-0.2-0.3-0.5-0.4-0.7l0.9-0.4c0.5 0.7 1 1.7 1.1 2.3l-1 0.5c-0.1-0.2-0.1-0.5-0.3-0.8-1 0.3-2 0.6-2.8 0.8l-0.3-1.1c0.2 0 0.4-0.1 0.6-0.1v-4.7l-0.1 0.1c-0.1-0.2-0.5-0.6-0.7-0.8 0.9-0.7 1.5-1.6 1.8-2.4h1.1c0.5 0.4 1.2 1 1.5 1.5v-0.5h1.9v-1h1.1v1h2v1.9h-0.6v2.5zm-4.2-1.8v0.5h1.2v-0.5zm1.2 1.7v-0.5h-1.2v0.5zm2.4-3.3v0.7h2.8v-0.7zm2.2 1.7h-1.6v0.8h1.6zm-1.6 3.3v0.9h2v-0.9z"/>
	<path class="st0" d="m336.85 226.68v-0.5h50v0.5z"/>

<polygon class="st0" transform="translate(.75 44.384)" points="69.7 109.4 110.7 109.4 110.7 89.4 8.7 89.4 8.7 109.4 49.7 109.4 49.7 135.9 8.7 135.9 8.7 155.9 110.7 155.9 110.7 135.9 69.7 135.9"/>

	<path class="st1" d="m54.05 145.78c-0.3 0.6-0.7 1.1-1.2 1.6 0.3 0.5 0.6 0.8 1 0.8 0.3 0 0.4-0.2 0.4-1.1 0.1 0.1 0.4 0.3 0.5 0.3-0.1 1.1-0.3 1.4-1 1.4-0.6 0-1.1-0.4-1.4-1-0.5 0.4-1.1 0.7-1.7 1-0.1-0.1-0.3-0.3-0.4-0.5 0.7-0.3 1.3-0.6 1.9-1.1-0.2-0.5-0.4-1.1-0.5-1.9h-1.6c0 0.2 0 0.4-0.1 0.6 0.5 0.3 1.1 0.7 1.4 1l-0.4 0.5c-0.2-0.2-0.7-0.5-1.1-0.8-0.2 0.9-0.6 1.7-1.3 2.2-0.1-0.1-0.3-0.4-0.4-0.5 0.9-0.6 1.2-1.7 1.3-2.9h-0.7v-0.6l-0.3 0.4c-0.1-0.3-0.4-0.9-0.7-1.4v5h-0.7v-4.6c-0.3 1.1-0.7 2.1-1.1 2.7-0.1-0.2-0.2-0.5-0.4-0.6 0.6-0.8 1.1-2.4 1.4-3.8h-1.2v-0.7h1.3v-2.2h0.7v2.2h1v0.7h-1.1v0.4c0.3 0.4 0.9 1.4 1.1 1.7v0.1h2.8c-0.2-1.4-0.3-3.2-0.3-5.1h0.7c0 1.9 0.1 3.7 0.3 5.1h1.4c-0.2-0.2-0.6-0.4-0.8-0.6l0.3-0.4c0.4 0.2 0.8 0.5 1.1 0.7l-0.2 0.2h0.8v0.6h-2.4c0.1 0.5 0.2 1 0.4 1.4 0.3-0.4 0.6-0.8 0.8-1.2zm-5.1-2.4c0.2-0.3 0.4-0.6 0.7-1-0.3-0.3-0.7-0.7-1.1-1l0.3-0.4c0.1 0.1 0.2 0.1 0.2 0.2 0.2-0.4 0.5-1 0.6-1.4l0.6 0.2c-0.3 0.5-0.6 1.1-0.8 1.5 0.2 0.1 0.3 0.3 0.4 0.4 0.2-0.4 0.5-0.8 0.6-1.2l0.5 0.3c-0.4 0.7-1 1.6-1.5 2.3l1-0.1-0.3-0.6 0.5-0.2c0.3 0.4 0.5 1.1 0.6 1.4l-0.5 0.4c0-0.1 0-0.2-0.1-0.3-0.7 0.1-1.4 0.1-2 0.2l-0.1-0.7zm3.4-0.1c0.2-0.2 0.4-0.5 0.6-0.9-0.2-0.3-0.7-0.7-1-1l0.3-0.4c0.1 0.1 0.2 0.1 0.2 0.2 0.2-0.4 0.5-1 0.6-1.4l0.6 0.2c-0.2 0.5-0.6 1.1-0.8 1.5l0.4 0.4c0.2-0.4 0.5-0.8 0.6-1.2l0.5 0.3c-0.4 0.7-1 1.6-1.4 2.2l1.1-0.1-0.3-0.6 0.5-0.2c0.3 0.5 0.5 1.1 0.6 1.4l-0.5 0.2c0-0.1-0.1-0.3-0.1-0.4-0.7 0.1-1.5 0.1-2.1 0.2l-0.1-0.6z"/>
	<path class="st1" d="m59.75 141.88h-3.1v1.4h-0.7v-1.9h3.8v-0.6h-3.2v-0.6h7.3v0.6h-3.3v0.6h3.9v1.9h-0.7v-1.4h-3.2v2.3h-0.8zm3.7 6.2c0.5 0 0.6-0.2 0.7-1.2 0.2 0.1 0.4 0.2 0.6 0.2-0.1 1.2-0.3 1.5-1.3 1.5h-2.3c-1.1 0-1.4-0.2-1.4-1v-0.2h-2.2v0.5h-0.7v-3.5h6.7v2.9h-3.1v0.3c0 0.3 0.1 0.4 0.8 0.4h2.2zm-6.5-4.7h2.3v0.5h-2.3zm2.3-0.5h-2.1v-0.5h2.1zm-1.7 2.1v0.7h2.2v-0.7zm2.2 1.9v-0.7h-2.2v0.7zm3.1-1.9h-2.4v0.7h2.4zm0 1.9v-0.7h-2.4v0.7zm0.3-4.5v0.5h-2.1v-0.5zm-2.1 1h2.4v0.5h-2.4z"/>
	<path class="st1" d="m68.75 145.68c-0.2-0.3-0.6-1-0.9-1.5v4.6h-0.7v-4.6c-0.3 1.1-0.8 2.1-1.3 2.8-0.1-0.2-0.3-0.5-0.4-0.7 0.6-0.8 1.3-2.4 1.6-3.8h-1.3v-0.7h1.4v-2.1h0.7v2.1h1.2v0.7h-1.2v0.8c0.3 0.4 1.1 1.5 1.3 1.8zm3.9 0c0.6 0.8 1.5 1.7 2.3 2.1-0.2 0.1-0.4 0.4-0.5 0.6-0.7-0.5-1.6-1.4-2.2-2.3v2.8h-0.7v-2.6c-0.6 0.9-1.6 1.8-2.5 2.3-0.1-0.2-0.3-0.4-0.5-0.6 0.9-0.4 2-1.3 2.6-2.2h-1.7v-3.4h2v-0.8h-2.4v-0.6h2.4v-1.1h0.7v1.1h2.4v0.6h-2.4v0.8h2.1v3.4h-1.6zm-2.5-2h1.4v-0.8h-1.4zm0 1.4h1.4v-0.9h-1.4zm2.1-2.3v0.8h1.4v-0.8zm1.4 1.4h-1.4v0.9h1.4z"/>


	<path class="st1" d="m54.95 187.58h-2.2c0.2 0.3 0.4 0.6 0.5 0.8l-0.7 0.2c-0.1-0.3-0.4-0.7-0.7-1h-0.8l-0.6 0.6h0.3v0.8h3.9v1.9h-0.7v-1.3h-6.9v1.3h-0.7v-1.9h3.8v-0.6c-0.1-0.1-0.3-0.2-0.4-0.2 0.2-0.2 0.4-0.3 0.6-0.5h-1.8c0.2 0.3 0.3 0.6 0.4 0.8l-0.7 0.2c-0.1-0.3-0.3-0.7-0.5-1h-0.4c-0.3 0.4-0.6 0.8-0.9 1.1-0.1-0.1-0.4-0.3-0.6-0.4 0.6-0.5 1.1-1.3 1.4-2.1l0.7 0.2-0.3 0.6h2.6v0.6c0.4-0.4 0.7-0.9 0.9-1.4l0.7 0.2-0.3 0.6h3.4zm-6.6 5.2h5.4v2.4h-0.7v-0.3h-4.7v0.3h-0.7v-5.1h5.5v2h-4.8zm0-2v0.8h4v-0.8zm0 2.6v1h4.7v-1z"/>
	<path class="st1" d="m59.05 193.18c-1.1 0.4-2.2 0.8-3.1 1l-0.2-0.8c0.4-0.1 0.8-0.2 1.3-0.4v-2.6h-1.1v-0.7h1.1v-2.2h-1.2v-0.7h3.1v0.7h-1.1v2.2h1v0.7h-1v2.5l1.1-0.4zm6 1.1v0.7h-6.4v-0.7h3v-1.4h-2.3v-0.7h2.3v-1.2h-2.1v-4.4h5.1v4.4h-2.2v1.2h2.3v0.7h-2.3v1.4zm-4.9-5.7h1.5v-1.3h-1.5zm0 1.8h1.5v-1.3h-1.5zm3.7-3.1h-1.5v1.3h1.5zm0 1.9h-1.5v1.3h1.5z"/>
	<path class="st1" d="m68.95 192.18c-0.2-0.3-0.6-1-0.9-1.5v4.6h-0.7v-4.6c-0.3 1.1-0.8 2.1-1.3 2.8-0.1-0.2-0.3-0.5-0.4-0.7 0.6-0.8 1.3-2.4 1.6-3.8h-1.4v-0.7h1.4v-2.1h0.7v2.1h1.2v0.7h-1.2v0.8c0.3 0.4 1.1 1.5 1.3 1.8zm3.9-0.1c0.6 0.8 1.5 1.7 2.3 2.1-0.2 0.1-0.4 0.4-0.5 0.6-0.7-0.5-1.6-1.4-2.2-2.3v2.8h-0.7v-2.6c-0.6 0.9-1.6 1.8-2.5 2.3-0.1-0.2-0.3-0.4-0.5-0.6 0.9-0.4 2-1.3 2.6-2.2h-1.7v-3.4h2v-0.8h-2.4v-0.6h2.5v-1.1h0.7v1.1h2.4v0.6h-2.4v0.8h2.1v3.4h-1.7zm-2.5-1.9h1.4v-0.8h-1.4zm0 1.4h1.4v-0.9h-1.4zm2.1-2.3v0.8h1.4v-0.8zm1.4 1.4h-1.4v0.9h1.4z"/>

<rect class="st0" x="332.35" y="117.78" width="58.5" height="23"/>

	<path class="st1" d="m357.15 125.48c1.1 1.2 2.8 2.3 4.4 2.9-0.2 0.2-0.3 0.4-0.5 0.6-0.8-0.3-1.6-0.8-2.4-1.3v0.4h-3.6v-0.4c-0.7 0.5-1.5 1-2.4 1.4-0.1-0.2-0.3-0.4-0.4-0.6 1.7-0.7 3.4-2 4.2-3zm-2.6 6c-0.2 1.1-0.6 2.3-1.6 3.1-0.1-0.1-0.4-0.4-0.6-0.5 1.3-1.2 1.5-2.8 1.5-4v-1.4h5.9v2.8zm4.5-0.6v-0.6h-4.5v0.6zm-4.4-1.7v0.6h4.5v-0.6zm0 2.8h5.5v2.6h-0.7v-0.3h-4.1v0.3h-0.7zm3.8-4.4c-0.6-0.5-1.2-0.9-1.6-1.4-0.4 0.4-0.9 0.9-1.5 1.4zm-3.1 5v1.2h4.1v-1.2z"/>
	<path class="st1" d="m363.75 127.08v2.4c0 1.5-0.1 3.7-1 5.2-0.1-0.1-0.4-0.4-0.6-0.4 0.8-1.4 0.9-3.3 0.9-4.7v-3.2h3.7v-0.9h0.8v0.9h3.8v0.7zm7.6 6.4h-3.5v1.2h-0.7v-1.2h-3.3v-0.6h3.3v-0.7h-2.5v-3h2.5v-0.7h-2.9v-0.6h2.9v-0.7h0.7v0.7h3.1v0.6h-3.1v0.7h2.6v3h-2.6v0.7h3.5zm-6-3.1h1.8v-0.7h-1.8zm1.8 1.2v-0.8h-1.8v0.8zm0.8-2v0.8h1.9v-0.7h-1.9zm1.9 1.3h-1.9v0.8h1.9z"/>


	<path class="st0" d="m148.95 281.38v4.1h-1v-0.6h-5.9v0.6h-0.9v-4.1h0.9v2.6h2.4v-3.2h-3v-3.5h0.9v2.6h2v-3.5h0.9v3.5h2.1v-2.6h1v3.5h-3.1v3.2h2.5v-2.6z"/>
	<path class="st0" d="m155.65 276.98c0 1.8 0.2 5.5 4 7.8-0.2 0.2-0.6 0.6-0.7 0.8-2.3-1.4-3.3-3.4-3.8-5.2-0.7 2.4-2 4.2-3.8 5.3-0.2-0.2-0.6-0.6-0.9-0.8 2.1-1.1 3.4-3.1 3.9-5.8l0.5 0.1c-0.1-0.4-0.1-0.8-0.1-1.2h-2.4v-0.9h3.3z"/>
	<path class="st0" d="m168.85 277.38v7.9h-1v-0.8h-5.6v0.8h-1v-8h7.6zm-1 6.2v-5.2h-5.6v5.2z"/>

<rect class="st0" x="81.45" y="262.78" width="50.9" height="17.5"/>

	<path class="st1" d="m91.85 270.58c0.7 1.5 2 3 3.5 3.7-0.2 0.1-0.4 0.4-0.5 0.6-1.4-0.7-2.6-2.1-3.4-3.7v2.8h1.7v0.7h-1.7v1.7h-0.7v-1.7h-1.8v-0.7h1.8v-2.8c-0.8 1.6-2 2.9-3.4 3.7-0.1-0.2-0.3-0.4-0.5-0.5 1.4-0.7 2.7-2.2 3.4-3.7h-3.1v-0.7h3.6v-1.9h0.7v1.9h3.6v0.7h-3.2z"/>
	<path class="st1" d="m96.05 271.48h4.6v0.6h-4.6zm4.5-1.9h-4.3v-0.6h1.8v-1h0.6v1h1.8v0.6zm-3.9 3.3h3.5v3.3h-0.6v-0.5h-2.2v0.5h-0.6v-3.3zm0.6-1.5c0-0.4-0.2-1-0.4-1.5l0.6-0.1c0.2 0.4 0.4 1.1 0.4 1.4zm0 2.1v1.7h2.2v-1.7zm1.6-2.2c0.2-0.4 0.4-1.1 0.5-1.5l0.6 0.2c-0.2 0.5-0.4 1.1-0.6 1.5zm5.4-2.4c-0.4 0.8-0.8 1.9-1.3 2.7 0.9 0.8 1.1 1.5 1.1 2.2 0 0.5-0.1 1-0.4 1.2-0.2 0.1-0.4 0.2-0.6 0.2h-0.8c0-0.2-0.1-0.5-0.2-0.7h0.7c0.1 0 0.3 0 0.4-0.1 0.2-0.1 0.2-0.4 0.2-0.7 0-0.6-0.3-1.2-1.2-2 0.4-0.8 0.8-1.7 1-2.4h-1.7v7.1h-0.6v-7.7h2.7z"/>
	<path class="st1" d="m107.85 272.18c0 0.5-0.4 1-1 1s-1-0.4-1-1 0.4-1 1-1 1 0.4 1 1z"/>
	<path class="st1" d="m116.35 272.48c-0.5 1-1.2 1.7-2.1 2.3 1 0.4 2.1 0.7 3.3 0.9-0.1 0.1-0.3 0.4-0.4 0.6-1.4-0.2-2.6-0.6-3.6-1.1-1.1 0.6-2.3 0.9-3.6 1.1-0.1-0.2-0.3-0.5-0.4-0.6 1.2-0.2 2.4-0.5 3.4-0.9-0.7-0.5-1.4-1.1-1.8-1.9h0.1-0.4v-0.6h5zm-5.9-0.1h-0.7v-1.8h1.4c-0.1-0.3-0.4-0.8-0.6-1.2l0.6-0.2c0.3 0.4 0.5 0.9 0.6 1.2l-0.5 0.2h3.9c0.3-0.5 0.6-1.1 0.8-1.5l0.7 0.2c-0.2 0.4-0.6 0.9-0.8 1.3h1.5v1.8h-0.6v-1.2h-6.4v1.2zm6.5-3.8c-1.8 0.4-4.6 0.6-6.9 0.7 0-0.2-0.1-0.4-0.2-0.6 2.3-0.1 5.1-0.3 6.6-0.7zm-5.1 4.3c0.4 0.6 1 1.1 1.8 1.5 0.7-0.4 1.3-0.9 1.7-1.5zm1.6-2.3c-0.1-0.4-0.2-0.9-0.5-1.3l0.6-0.1c0.2 0.4 0.4 1 0.5 1.3z"/>
	<path class="st1" d="m121.45 268.28c-0.3 0.7-0.6 1.3-1 2v6h-0.7v-4.9c-0.3 0.4-0.6 0.8-0.9 1.1-0.1-0.2-0.3-0.5-0.4-0.7 0.9-0.9 1.8-2.2 2.3-3.6zm5.2 2.4h-1.1v4.6c0 0.5-0.1 0.7-0.5 0.8s-1 0.1-1.9 0.1c0-0.2-0.2-0.5-0.3-0.7h1.7c0.2 0 0.3-0.1 0.3-0.3v-4.6h-3.6v-0.7h3.6v-1.9h0.7v1.9h1.1zm-3.5 3.5c-0.3-0.6-0.8-1.5-1.3-2.2l0.6-0.3c0.5 0.7 1.1 1.6 1.4 2.2z"/>


	<path class="st0" d="m404.85 150.48v4.1h-1v-0.6h-5.9v0.6h-0.9v-4.1h0.9v2.6h2.4v-3.2h-3v-3.5h0.9v2.6h2v-3.5h0.9v3.5h2.1v-2.6h1v3.5h-3.1v3.2h2.5v-2.6z"/>
	<path class="st0" d="m401.55 156.08c0 1.8 0.2 5.5 4 7.8-0.2 0.2-0.6 0.6-0.7 0.8-2.3-1.4-3.3-3.4-3.8-5.2-0.7 2.4-2 4.2-3.8 5.3-0.2-0.2-0.6-0.6-0.9-0.7 2.1-1.1 3.4-3.1 3.9-5.8l0.5 0.1c-0.1-0.4-0.1-0.8-0.1-1.2h-2.4v-0.9h3.3z"/>
	<path class="st0" d="m404.75 166.48v7.9h-1v-0.8h-5.6v0.8h-1v-8h7.6zm-1 6.2v-5.3h-5.6v5.2h5.6z"/>

<rect class="st0" x="430.35" y="108.98" width="70.2" height="70.2"/>

	<path class="st1" d="m458.05 141.48v8.2h-0.8v-0.7h-6.1v0.8h-0.8v-8.3h2.7c0.2-0.6 0.5-1.3 0.6-1.8l1 0.2c-0.2 0.5-0.5 1.1-0.7 1.6zm-7 0.8v2.5h6.1v-2.5zm6.2 5.8v-2.6h-6.1v2.6z"/>
	<path class="st1" d="m460.15 149.28c0.6-0.5 1-1.4 1.2-2.2l0.7 0.3c-0.2 0.8-0.6 1.8-1.2 2.3zm2.3-4v0.8h7.3v0.3c-0.1 2-0.3 2.8-0.6 3-0.2 0.2-0.4 0.3-0.7 0.3h-1.3c0-0.2-0.1-0.5-0.2-0.7h1.2c0.2 0 0.3 0 0.4-0.1 0.2-0.2 0.3-0.8 0.4-2.3h-7.3v-6.2h2.7c0.1-0.3 0.3-0.7 0.4-0.9l0.9 0.1c-0.1 0.3-0.3 0.6-0.4 0.8h3.4v3.4h-6.1v0.7h7.6v0.6h-7.7zm0-4.1v0.8h5.3v-0.8zm5.3 2.2v-0.8h-5.3v0.8zm-4.2 3.9c0.2 0.6 0.3 1.4 0.3 1.9l-0.7 0.1c0-0.5-0.1-1.3-0.3-2zm1.7-0.1c0.3 0.5 0.5 1.3 0.6 1.7l-0.7 0.2c-0.1-0.5-0.3-1.2-0.5-1.8zm1.9 1.4c-0.1-0.4-0.5-1-0.8-1.4l0.6-0.2c0.3 0.4 0.7 1 0.8 1.4z"/>
	<path class="st1" d="m480.45 143.28c-0.4 0.4-0.9 0.7-1.3 1 0.6 0.3 1.3 0.6 2 0.8-0.2 0.2-0.4 0.5-0.5 0.6-0.6-0.2-1.1-0.4-1.6-0.7v2.2h-2.5v1.6c0 0.4-0.1 0.6-0.4 0.7s-0.8 0.1-1.6 0.1c-0.1-0.2-0.2-0.5-0.3-0.7h1.3c0.2 0 0.2-0.1 0.2-0.2v-1.6h-2.5v-2.3c-0.5 0.3-1 0.5-1.5 0.7-0.1-0.2-0.4-0.5-0.6-0.6 0.7-0.2 1.3-0.5 1.9-0.8-0.3-0.3-0.7-0.7-1.1-0.9l0.5-0.4c0.4 0.3 0.9 0.6 1.2 0.9 0.4-0.3 0.7-0.6 0.9-1h-1.8v-0.7h2.3c0.2-0.3 0.3-0.6 0.4-1h-3.1v1.2h-0.7v-1.9h4.2v-0.8h0.8v0.8h4.2v1.9h-0.8v-1.2h-4.3l0.6 0.1c-0.1 0.3-0.2 0.6-0.3 0.8h3.7v0.7h-2c0.3 0.4 0.6 0.7 1.1 1 0.4-0.3 0.8-0.7 1.1-1.1zm-6.1 4.5c-0.5 0.7-1.4 1.4-2.2 1.8l-0.6-0.6c0.8-0.4 1.6-0.9 2-1.5zm3.9-3.1h-4.2v0.7h4.2zm0 1.3h-4.2v0.7h4.2zm-0.4-1.9c-0.4-0.4-0.7-0.8-1-1.2h-1.3c-0.3 0.5-0.6 0.9-1 1.2zm0.5 3.4c0.8 0.5 1.7 1.2 2.2 1.7l-0.7 0.4c-0.4-0.5-1.4-1.2-2.2-1.7z"/>

<rect class="st0" x="430.45" y="201.48" width="69.6" height="82"/>

	<path class="st1" d="m450.65 232.88-0.7 0.3 0.8 0.5c-0.1 0.2-0.2 0.5-0.3 0.7-0.3 0.9-0.8 2.2-1.7 3.3-0.9 1.2-2.1 2.1-4 2.8l-1.2-1.1c2-0.6 3.1-1.5 4-2.5 0.7-0.8 1.3-2 1.4-2.7h-2.8c-0.7 0.9-1.5 1.7-2.5 2.4l-1.1-0.8c1.7-1.1 2.6-2.4 3.1-3.2 0.2-0.2 0.4-0.7 0.5-1l1.5 0.5c-0.2 0.3-0.5 0.8-0.6 1h2c0.3 0 0.6 0 0.9-0.1h0.1c-0.2-0.4-0.5-0.9-0.7-1.3l0.8-0.3c0 0.4 0.4 1.1 0.5 1.5zm1.2-0.5-0.8 0.3c-0.2-0.4-0.5-1-0.8-1.4l0.8-0.3c0.3 0.4 0.7 1 0.8 1.4z"/>
	<path class="st1" d="m459.85 235.28c-0.3 1-0.7 1.9-1.5 2.8-1 1.1-2.3 1.8-3.6 2.2l-1-1.1c1.5-0.3 2.7-1 3.5-1.7 0.5-0.5 0.8-1.2 1-1.7h-6v-1.4c0.4 0 0.8 0.1 1.2 0.1h4.9c0.3 0 0.6 0 0.7-0.1l0.9 0.5c0 0.1-0.1 0.3-0.1 0.4zm-5.6-3.2h3.8c0.3 0 0.8 0 1.1-0.1v1.3h-5.9v-1.3c0.3 0 0.7 0.1 1 0.1z"/>
	<path class="st1" d="m466.15 232.38v0.8h1.7c0.4 0 0.7 0 0.8-0.1l0.9 0.5c-0.1 0.2-0.2 0.6-0.2 0.8-0.2 1-0.4 1.9-0.9 2.8-0.8 1.5-2.3 2.5-4.1 3l-1-1.2c0.4-0.1 1-0.2 1.4-0.4 0.8-0.3 1.7-0.9 2.3-1.7 0.5-0.7 0.8-1.7 0.9-2.6h-5v2.2h-1.4v-3.4h3.1v-0.7c0-0.3 0-0.5-0.1-0.9h1.5c0.2 0.4 0.1 0.6 0.1 0.9z"/>
	<path class="st1" d="m474.75 237.38c1.7-1 3-2.5 3.6-3.9l0.8 1.4c-0.8 1.3-2.1 2.7-3.7 3.7-1 0.6-2.3 1.2-3.7 1.4l-0.8-1.3c1.5-0.2 2.8-0.7 3.8-1.3zm0-3.2-1 1c-0.5-0.6-1.8-1.6-2.5-2.2l0.9-1c0.7 0.5 2 1.6 2.6 2.2z"/>
	<path class="st1" d="m481.45 233.08c0-0.4 0-0.8-0.1-1.2h1.6c0 0.3-0.1 0.8-0.1 1.2v1.5c1.3 0.4 3.3 1.1 4.2 1.6l-0.6 1.4c-1-0.5-2.5-1.1-3.6-1.5v2.8c0 0.3 0.1 1 0.1 1.4h-1.6c0.1-0.4 0.1-1 0.1-1.4zm4.9 0.6-0.9 0.4c-0.3-0.6-0.5-1-0.9-1.5l0.8-0.3c0.3 0.4 0.7 1 1 1.4zm1.3-0.5-0.8 0.4c-0.3-0.6-0.6-1-0.9-1.5l0.8-0.4c0.3 0.4 0.7 1 0.9 1.5z"/>
	<path class="st1" d="m449.25 245.08 0.9 0.4c-1 1.1-1.8 2.5-1.8 4.4s0.8 3.3 1.8 4.4l-0.9 0.4c-1.1-1.1-2-2.7-2-4.8s0.9-3.8 2-4.8z"/>
	<path class="st1" d="m450.35 253.78c0.4-0.5 0.5-1.4 0.5-2.2l0.7 0.1c-0.1 0.9-0.2 1.8-0.6 2.4zm4.6-3.7v0.4c-0.1 2.4-0.2 3.3-0.5 3.6-0.2 0.2-0.3 0.3-0.6 0.3h-0.9c0-0.3-0.1-0.7-0.2-0.9h0.6s0.2 0 0.3-0.1 0.1-0.4 0.2-0.9l-0.3 0.1c-0.1-0.4-0.3-0.9-0.5-1.3l0.5-0.2c0.1 0.2 0.2 0.5 0.3 0.8 0-0.3 0-0.6 0.1-1.1h-3v-5.5h3.8v1h-1.2v0.6h1.1v0.9h-1.1v0.6h1.1v0.9h-1.1v0.6h1.4zm-2.8 1.5c0.1 0.6 0.1 1.3 0.1 1.8l-0.5 0.1c0-0.5 0-1.3-0.1-1.8zm-0.2-5.1v0.6h0.6v-0.6zm0.6 1.5h-0.6v0.6h0.6zm-0.6 2.1h0.6v-0.6h-0.6zm0.9 1.4c0.2 0.5 0.3 1.2 0.3 1.6l-0.5 0.1c0-0.4-0.2-1.1-0.3-1.6zm7 1.6v1.1h-5.1v-1.1h2v-2.1h-1.5v-1.1h1.5v-1.8h-1.7v-1.1h2.4c-0.5-0.4-1.2-0.8-1.8-1l0.7-0.8c0.8 0.3 1.8 0.9 2.2 1.3l-0.4 0.6h1.5v1.1h-1.7v1.8h1.6v1.1h-1.6v2.1h1.9z"/>
	<path class="st1" d="m463.05 251.88h1.5v1h-1.5v1.6h-1v-1.6h-1.5v-1h1.5v-0.6h-1.3v-3.6h1.2v-0.5h-1.4v-1h1.4v-0.9h1v0.9h1.4v1h-1.4v0.5h1.3c0.9-0.6 1.8-1.6 2.2-2.5h1c0.6 1 1.5 2 2.4 2.5-0.2 0.3-0.5 0.7-0.6 1-0.2-0.2-0.5-0.3-0.7-0.5v0.7h-3.2v-0.7c-0.2 0.2-0.5 0.4-0.7 0.6-0.1-0.2-0.3-0.5-0.5-0.8v3.4h-1.3v0.5zm-1.4-2.8h0.5v-0.6h-0.5zm0 1.4h0.5v-0.6h-0.5zm1.8-2h-0.6v0.6h0.6zm0 1.4h-0.6v0.6h0.6zm6.1 3.6c0 0.4-0.1 0.7-0.3 0.8-0.2 0.2-0.5 0.2-0.9 0.2 0-0.3-0.2-0.7-0.3-0.9h0.4c0.1 0 0.1 0 0.1-0.1v-1.1h-0.5v2h-0.7v-2h-0.5v2h-0.7v-2h-0.5v2.2h-0.9v-5.1h4.8zm-3.5-2.1v-1h-0.5v1zm2.3-3.5c-0.5-0.5-1-1.1-1.3-1.6-0.3 0.5-0.8 1.1-1.3 1.6zm-1.1 3.5v-1h-0.5v1zm1.3 0v-1h-0.5v1z"/>
	<path class="st1" d="m475.85 250.18c-0.1 0.2-0.2 0.3-0.3 0.5h4.1v0.4c-0.1 1.9-0.3 2.7-0.6 3-0.2 0.2-0.4 0.3-0.7 0.3h-1c0-0.3-0.1-0.7-0.3-0.9h0.7c0.1 0 0.2 0 0.3-0.1s0.3-0.7 0.4-1.9h-0.4c-0.4 1.1-1.2 2.3-2 3-0.2-0.2-0.5-0.5-0.8-0.7 0.8-0.5 1.4-1.4 1.9-2.3h-0.6c-0.5 1-1.5 2-2.3 2.5-0.2-0.2-0.5-0.5-0.8-0.7 0.7-0.4 1.5-1.1 2-1.8h-0.6c-0.4 0.4-0.8 0.7-1.2 1-0.1-0.2-0.5-0.5-0.8-0.7-0.7 0.4-1.4 0.7-2 1l-0.4-1.2c0.3-0.1 0.8-0.3 1.2-0.5v-2.7h-1v-1.1h1v-2h1.1v2h0.9v1.1h-0.9v2.4l0.8-0.3 0.2 0.8c0.4-0.3 0.7-0.7 0.9-1.1h-1.1v-1h6.3v1zm3.3-1.4h-4.7v-3.4h4.7zm-1.1-2.5h-2.6v0.5h2.6zm0 1.2h-2.6v0.5h2.6z"/>
	<path class="st1" d="m481.15 254.68-0.9-0.4c1-1.1 1.8-2.5 1.8-4.4s-0.8-3.3-1.8-4.4l0.9-0.4c1.1 1.1 2 2.7 2 4.8s-0.9 3.7-2 4.8z"/>
	<path class="st1" d="m445.15 255.38v-0.5h40v0.5z"/>

<g style="fill:#262523" aria-label="メインステージ (第2体育館) "><path d="m26.15 10.675-1.5893-0.544c-0.05333 0.26667-0.16 0.704-0.256 0.98134-0.37334 1.0667-0.85334 2.1653-1.696 3.2747-1.1307 1.472-2.464 2.656-4.4053 3.584l1.184 1.088c2.0693-1.1413 3.3813-2.5173 4.3733-3.7973 0.88534-1.152 1.536-2.56 1.9413-3.616 0.096-0.256 0.29867-0.72534 0.448-0.97067zm-5.8667 1.0347-0.91734 1.088c1.344 0.82134 2.592 1.7813 3.36 2.4213 1.1307 0.93867 2.0693 1.8133 2.9973 2.9013l1.0987-1.2267c-0.864-0.91734-1.984-1.92-3.1253-2.8053-0.896-0.704-2.3573-1.7173-3.4133-2.3787z"/><path d="m28.486 14.376 0.66134 1.344c1.6853-0.50134 3.4133-1.3013 4.6187-2.016 1.2587-0.75734 2.56-1.76 3.5307-2.7413l-1.152-1.088c-0.69334 0.84267-1.9093 1.9093-2.9973 2.5813-1.1947 0.736-2.752 1.4293-4.6613 1.92zm4.4373-1.2267v4.448c0 0.46934-0.04267 1.1413-0.08533 1.3973h1.696c-0.07467-0.26667-0.096-0.928-0.096-1.3973v-4.8107z"/><path d="m41.062 10.408-1.0133 1.0773c0.77867 0.53334 2.1227 1.696 2.6773 2.2933l1.088-1.1093c-0.62934-0.65067-2.016-1.76-2.752-2.2613zm-1.344 7.104 0.90667 1.408c1.4933-0.256 2.8693-0.84267 3.9573-1.4933 1.7173-1.0347 3.136-2.5067 3.936-3.9573l-0.82134-1.4933c-0.68267 1.44-2.0693 3.0613-3.8933 4.1493-1.0347 0.608-2.4107 1.152-4.0853 1.3867z"/><path d="m57.831 11.293-0.864-0.65067c-0.224 0.07467-0.64 0.128-1.1093 0.128h-3.7653c-0.30933 0-0.97067-0.032-1.2587-0.07467v1.5253c0.23467-0.02133 0.82134-0.07467 1.2587-0.07467h3.6267c-0.24533 0.75734-0.896 1.8133-1.6 2.6133-1.0027 1.1093-2.6453 2.4107-4.3733 3.0507l1.1093 1.152c1.6533-0.77867 3.264-2.1013 4.4587-3.4773 0.91734-1.0667 1.7067-2.5173 2.144-3.5307 0.096-0.224 0.288-0.544 0.37333-0.66134zm-2.3787 3.3067-1.0027 0.992c1.1413 1.0347 2.304 2.304 3.0933 3.4027l1.216-1.056c-0.69334-0.85334-2.208-2.4427-3.3067-3.3387z"/><path d="m61.756 10.344v1.376c0.32-0.02133 0.77867-0.04267 1.1413-0.04267h4.288c0.36267 0 0.77867 0.02133 1.1413 0.04267v-1.376c-0.36267 0.04267-0.78934 0.07467-1.1413 0.07467h-4.288c-0.36267 0-0.8-0.032-1.1413-0.07467zm-1.248 2.72v1.3973c0.29867-0.02133 0.71467-0.032 1.024-0.032h6.9867c0.29867 0 0.704 0.01067 0.98134 0.02133v-1.3867c-0.288 0.05333-0.75734 0.064-0.98134 0.064h-6.9867c-0.33067 0-0.704-0.02133-1.024-0.064zm5.4614 0.74667-1.4827 0.01067c0 1.1413-0.14933 2.144-0.68267 2.9547-0.416 0.62934-1.1733 1.2373-1.9307 1.536l1.2587 0.90667c0.93867-0.49067 1.7707-1.312 2.1333-2.0587 0.45867-0.88534 0.704-1.952 0.704-3.3493z"/><path d="m71.249 13.576v1.6853c0.40534-0.032 1.12-0.064 1.7173-0.064h5.7387c0.448 0 0.992 0.05333 1.248 0.064v-1.6853c-0.288 0.02133-0.75734 0.07467-1.2587 0.07467h-5.728c-0.55467 0-1.3227-0.04267-1.7173-0.07467z"/><path d="m88.508 10.333-0.896 0.36267c0.39467 0.55467 0.62934 1.0133 0.94934 1.6853l0.91734-0.40534c-0.23467-0.49067-0.672-1.1947-0.97067-1.6427zm1.472-0.52267-0.90667 0.384c0.39467 0.53334 0.65067 0.94934 0.992 1.6213l0.91734-0.40533c-0.256-0.46934-0.672-1.1733-1.0027-1.6zm-6.1014 0.30933-0.77867 1.1733c0.704 0.39467 1.824 1.12 2.4107 1.536l0.8-1.184c-0.55467-0.384-1.728-1.1413-2.432-1.5253zm-1.9733 7.5734 0.8 1.408c0.93867-0.17067 2.4747-0.704 3.552-1.3227 1.7493-1.0027 3.2533-2.3573 4.2453-3.8293l-0.82134-1.4507c-0.85334 1.5253-2.336 2.9867-4.1493 4-1.1627 0.64-2.4427 0.992-3.6267 1.1947zm0.33067-5.1413-0.77867 1.184c0.72534 0.37334 1.824 1.0987 2.432 1.5147l0.77867-1.1947c-0.544-0.384-1.7173-1.12-2.432-1.504z"/><path d="m28.929 33.949 0.59734-0.27734c-0.91734-1.5147-1.3653-3.3173-1.3653-5.1307s0.448-3.616 1.3653-5.1307l-0.59734-0.288c-0.992 1.6-1.5787 3.328-1.5787 5.4187 0 2.1013 0.58667 3.808 1.5787 5.408z"/><path d="m32.278 27.571v0.68267h6.88v-2.432h-7.808v0.672h7.0187v1.0773zm-0.40534 0c-0.16 0.84267-0.43734 1.92-0.66134 2.6027l0.78934 0.11733c0.21333-0.704 0.48-1.8133 0.672-2.72zm0.11733 1.664-0.21333 0.69334h7.4027v-0.69334zm6.9867 0v0.10667c-0.11733 1.3867-0.24533 1.9413-0.43733 2.112-0.08533 0.08533-0.192 0.096-0.37334 0.096-0.192 0-0.704 0-1.216-0.064 0.11733 0.21333 0.20267 0.512 0.224 0.74667 0.544 0.02133 1.0667 0.02133 1.344 0 0.29867-0.01067 0.49067-0.07467 0.68267-0.256 0.26667-0.26667 0.416-0.928 0.55467-2.4107 0.02133-0.11733 0.032-0.33067 0.032-0.33067zm-4.064-3.2427v6.7094h0.78934v-6.7094zm-0.21333 3.456c-0.896 1.0453-2.688 2.0053-4.256 2.4427 0.17067 0.16 0.39467 0.448 0.512 0.64 1.5787-0.512 3.3813-1.5893 4.3733-2.7947zm-2.976-5.632v0.65067h3.4453v-0.65067zm4.1173 0v0.65067h4.3093v-0.65067zm-3.8933-0.97067c-0.352 0.94934-0.94934 1.888-1.6213 2.5173 0.192 0.096 0.52267 0.32 0.66134 0.42667 0.65067-0.66134 1.3013-1.7067 1.7067-2.752zm4.2027 0c-0.352 0.96-1.0027 1.856-1.76 2.432 0.20267 0.10667 0.52267 0.33067 0.672 0.46934 0.72534-0.65067 1.44-1.6427 1.8453-2.7093zm-3.8293 1.472c0.24534 0.448 0.48 1.0347 0.56534 1.408l0.704-0.27734c-0.096-0.36267-0.36267-0.94934-0.59734-1.376zm4.4587-0.01067c0.37334 0.448 0.75734 1.0453 0.90667 1.4507l0.69334-0.288c-0.17067-0.39467-0.56534-0.98134-0.928-1.408z"/><path d="m41.121 31.848h4.9067v-0.832h-2.1653c-0.39467 0-0.864 0.032-1.28 0.07467 1.8453-1.7387 3.072-3.328 3.072-4.896 0-1.3973-0.87467-2.304-2.272-2.304-0.992 0-1.6747 0.45867-2.3147 1.152l0.56534 0.544c0.43734-0.512 0.992-0.90667 1.632-0.90667 0.97067 0 1.4293 0.66134 1.4293 1.5573 0 1.3333-1.12 2.9013-3.5733 5.0454z"/><path d="m49.239 22.931c-0.52267 1.6107-1.3973 3.2107-2.3467 4.256 0.14933 0.192 0.384 0.608 0.46934 0.78934 1.0453-1.2053 2.016-3.0187 2.6347-4.8213zm-0.96 2.752v7.008h0.75734v-7.7547l-0.01067-0.01067zm4.48-2.752v9.7174h0.77867v-9.7174zm-3.008 2.112v0.768h6.9867v-0.768zm1.248 4.9493v0.72534h4.2667v-0.72534zm2.9227-4.5547-0.59734 0.18133c0.62934 2.08 1.7707 4.2027 3.0187 5.344 0.14933-0.21333 0.416-0.49067 0.608-0.62934-1.248-1.0027-2.4213-2.9867-3.0293-4.896zm-1.4933-0.04267c-0.62934 1.952-1.8453 3.9787-3.0933 4.992 0.18133 0.128 0.448 0.40533 0.56534 0.608 1.2907-1.1733 2.4533-3.2853 3.1147-5.4187z"/><path d="m59.404 27.411v5.3014h0.8v-4.6187h5.056v-0.68267zm5.5894 0v4.4373c0 0.14933-0.05333 0.192-0.23467 0.20267-0.17067 0.01067-0.8 0.01067-1.4187-0.01067 0.096 0.192 0.21333 0.46934 0.256 0.66134 0.864 0 1.4187 0 1.7493-0.10667 0.34133-0.10667 0.448-0.30934 0.448-0.74667v-4.4373zm-5.1093 1.4933v0.59734h5.44v-0.59734zm-2.0053-4.9707v0.71467h9.3867v-0.71467zm2.9653 0.43734c-0.30933 0.56534-0.85334 1.376-1.2907 1.8773l0.64 0.24533c0.45867-0.48 1.056-1.216 1.5253-1.8667zm2.976 0.672c0.97067 0.64 2.1227 1.5787 2.6773 2.2187l0.672-0.48c-0.58667-0.64-1.7707-1.536-2.72-2.144zm-5.5147 0.97067 0.032 0.74667c1.9413-0.04267 4.928-0.128 7.712-0.224l0.04267-0.66134c-2.848 0.064-5.888 0.128-7.7867 0.13867zm1.5787 4.32v0.58667h5.408v-0.58667zm2.2507-7.4454v1.3973h0.82134v-1.3973z"/><path d="m73.783 31.464v0.69334h3.68v-0.69334zm-0.34134-5.696v6.9334h0.736v-6.9334zm0.34134 0v0.66134h2.816v1.3333h-2.816v0.66134h3.552v-2.656zm-0.98134-1.7173v1.8027h0.72534v-1.1307h3.7653v1.1307h0.74667v-1.8027zm2.1653-1.1627v1.5253h0.77867v-1.5253zm-1.184 6.4427v0.672h3.2533v2.624h0.74667v-3.296zm-3.3387-4.6293v1.3227h0.68267v-1.3227zm-1.3973 1.0027v5.952h0.71467v-5.952zm0.448 1.4507v0.56534h2.4747v-0.56534zm-1.184 4.3733 0.24533 0.74667c0.96-0.256 2.2293-0.608 3.4133-0.96l-0.07467-0.65067c-1.3227 0.33067-2.6773 0.672-3.584 0.864zm2.5173-1.664c0.55467 0.75734 1.0987 1.792 1.312 2.4533l0.672-0.32c-0.20267-0.672-0.77867-1.6747-1.3547-2.4213zm-1.3867-4.16v0.61867h2.1653v2.2507h-2.1653v0.61867h2.88v-3.488zm0.77867-2.8053c-0.384 0.85334-1.0987 1.9413-2.1227 2.752 0.17067 0.10667 0.39467 0.34133 0.50134 0.512 1.12-0.91734 1.856-2.0587 2.2933-2.88v-0.21333h-0.23467v-0.17067zm0.20267 0v0.544h0.14933c0.62934 0.512 1.3227 1.3867 1.6533 1.92l0.53334-0.58667c-0.352-0.544-1.1093-1.3333-1.76-1.8773z"/><path d="m79.628 33.949c0.98134-1.6 1.568-3.3067 1.568-5.408 0-2.0907-0.58667-3.8187-1.568-5.4187l-0.608 0.288c0.91734 1.5147 1.3653 3.3173 1.3653 5.1307s-0.448 3.616-1.3653 5.1307z"/></g></svg>
