<svg enable-background="new 0 0 510.2 255.1" version="1.1" viewBox="0 0 510.2 255.1" xml:space="preserve" xmlns="http://www.w3.org/2000/svg">
<style type="text/css">
	.st0{fill:#262523;}
	.st1{fill:#e3e2dd;}
	.st2{fill:#fd6b5b;}
</style>
<rect class="st0" x="9.2" y="7.9" width="115" height="30"/>

	<path class="st1" d="m53.2 24.7c-0.1 0.9-0.4 1.9-0.7 2.5-0.1 0-0.4-0.2-0.5-0.2 0.3-0.6 0.5-1.5 0.6-2.4l0.6 0.1zm1.1-0.8v4.2h-0.7v-4.1c-0.6 0-1.1 0.1-1.6 0.1v-0.7h0.7c0.2-0.3 0.4-0.6 0.7-0.9-0.3-0.4-0.8-1-1.3-1.4l0.4-0.5 0.3 0.3c0.3-0.6 0.7-1.3 0.9-1.9l0.7 0.3c-0.3 0.7-0.8 1.4-1.1 2l0.6 0.6c0.4-0.6 0.7-1.3 1-1.8l0.6 0.3c-0.6 0.9-1.3 2.1-2 3l1.5-0.1c-0.1-0.3-0.3-0.6-0.5-0.9l0.5-0.2c0.4 0.6 0.8 1.5 0.9 2l-0.6 0.2c0-0.2-0.1-0.4-0.2-0.6l-0.8 0.1zm0.9 0.6c0.3 0.6 0.5 1.3 0.6 1.8l-0.6 0.2c-0.1-0.5-0.4-1.2-0.6-1.8l0.6-0.2zm3.6 2.6h2.4v0.7h-5.7v-0.7h2.5v-1.6h-1.9v-0.7h1.9v-1.4h0.7v1.4h2v0.7h-2v1.6zm2-7.5c-0.4 1.1-1 1.9-1.8 2.6 0.7 0.4 1.5 0.8 2.3 1-0.1 0.2-0.3 0.4-0.5 0.6-0.9-0.2-1.7-0.6-2.4-1.1-0.7 0.5-1.5 0.9-2.4 1.2-0.1-0.2-0.3-0.5-0.4-0.6 0.8-0.2 1.6-0.6 2.3-1-0.6-0.6-1.1-1.2-1.4-2l0.4-0.1h-1v-0.7h4.3 0.1l0.5 0.1zm-3.7 0.5c0.3 0.6 0.7 1.2 1.3 1.7 0.6-0.5 1-1 1.4-1.7h-2.7z"/>
	<path class="st1" d="m70.8 20.5v1.9h-0.7v-1.3h-6.8v1.3h-0.7v-1.9h1.4c-0.2-0.4-0.5-0.8-0.8-1.2l0.6-0.3c0.4 0.4 0.8 0.9 0.9 1.3l-0.3 0.1h1.9c-0.1-0.4-0.5-0.9-0.7-1.4l0.6-0.2c0.3 0.4 0.7 1 0.8 1.4l-0.5 0.2h1.8c0.4-0.4 0.8-1 1-1.5l0.8 0.3c-0.3 0.4-0.6 0.9-1 1.2h1.7zm-3.9 3.7c-0.1 0.3-0.2 0.5-0.3 0.8h3.5v3h-0.7v-0.4h-5.3v0.4h-0.7v-3h2.5c0.1-0.2 0.2-0.5 0.2-0.8h-2v-2.3h5.3v2.3h-2.5zm2.5 1.5h-5.3v1.3h5.3v-1.3zm-4.6-2.1h3.8v-1.1h-3.8v1.1z"/>
	<path class="st1" d="m75.2 24.9c-0.2-0.3-0.6-1-0.9-1.5v4.6h-0.7v-4.6c-0.3 1.1-0.8 2.1-1.3 2.8-0.1-0.2-0.3-0.5-0.4-0.7 0.6-0.8 1.3-2.4 1.6-3.8h-1.4v-0.7h1.4v-2.1h0.7v2.1h1.2v0.7h-1.2v0.8c0.3 0.4 1.1 1.5 1.3 1.8l-0.3 0.6zm3.9 0c0.6 0.8 1.5 1.7 2.3 2.1-0.2 0.1-0.4 0.4-0.5 0.6-0.7-0.5-1.6-1.4-2.2-2.3v2.7h-0.7v-2.6c-0.6 0.9-1.6 1.8-2.5 2.3-0.1-0.2-0.3-0.4-0.5-0.6 0.9-0.4 2-1.3 2.6-2.2h-1.7v-3.4h2v-0.8h-2.4v-0.7h2.5v-1.1h0.7v1.1h2.4v0.6h-2.4v0.8h2.1v3.4h-1.7zm-2.5-2h1.4v-0.8h-1.4v0.8zm0 1.4h1.4v-0.9h-1.4v0.9zm2.1-2.2v0.8h1.4v-0.8h-1.4zm1.4 1.3h-1.4v0.9h1.4v-0.9z"/>

<rect class="st0" x="8.7" y="50.4" width="83" height="29"/>

	<path class="st1" d="m35.9 67.5c0.7 1.1 2 1.7 3.7 2-0.2 0.2-0.3 0.5-0.5 0.6-1.9-0.3-3.3-1.2-4.1-2.6h-0.1c-0.5 1-1.6 1.9-3.9 2.6-0.1-0.2-0.3-0.4-0.5-0.6 1.9-0.5 3-1.2 3.5-2h-3.4v-0.7h3.7c0.1-0.3 0.2-0.6 0.2-0.9h-2.5v-0.6h2.8v-0.9h-2.9v-0.6h2.9v-0.8h0.7v0.8h3.1v-1.1h-6.9v1.2h-0.7v-1.9h3.8v-1h0.7v1h3.8v1.9h-0.7v0.5h-3.1v0.9h2.9v0.6h-3c0 0.3-0.1 0.6-0.2 0.9h4.2v0.7h-3.5z"/>
	<path class="st1" d="m43.5 64.1c-0.9 0.4-1.8 0.8-2.5 1l-0.3-0.6c0.7-0.2 1.7-0.6 2.7-1l0.1 0.6zm0.5-2.1h-3.1v-0.6h3.8v3.3c0 0.3-0.1 0.5-0.3 0.6-0.3 0.1-0.7 0.1-1.3 0.1 0-0.2-0.1-0.4-0.2-0.5h1c0.1 0 0.1 0 0.1-0.2v-2.7zm-2.3 0.1c0.5 0.2 1 0.6 1.3 0.9l-0.4 0.5c-0.3-0.3-0.8-0.7-1.3-1l0.4-0.4zm3.8 3.1c-0.1 0.3-0.3 0.5-0.4 0.8h3.3v4.1h-0.7v-0.4h-4.8v0.4h-0.9v-4.1h2.3c0.1-0.3 0.3-0.7 0.4-0.9l0.8 0.1zm2.1 1.3h-4.8v1h4.8v-1zm0 2.6v-1h-4.8v1h4.8zm-2.5-4.7c0.7-0.2 1.8-0.6 2.8-1l0.1 0.5c-0.9 0.3-1.9 0.7-2.6 1l-0.3-0.5zm4.1 0.3c0 0.3-0.1 0.5-0.3 0.6-0.3 0.1-0.7 0.1-1.3 0.1 0-0.2-0.1-0.4-0.2-0.6h1c0.1 0 0.2 0 0.2-0.2v-2.6h-3.1v-0.6h3.8v3.3zm-2.3-1.2c-0.3-0.3-0.8-0.7-1.3-1l0.4-0.4c0.5 0.2 1 0.6 1.3 0.9l-0.4 0.5z"/>
	<path class="st1" d="M59.6,68.5v0.7h-8.9v-0.7h4v-5.7h-3.5V62h7.9v0.8h-3.6v5.7H59.6z"/>
	<path class="st1" d="m63.8 66.8c-1 0.5-2.1 1-2.9 1.4l-0.3-0.7c0.4-0.2 0.8-0.4 1.4-0.6v-3.1h-1.2v-0.7h1.2v-2.1h0.7v2.1h1.1v0.7h-1.1v2.8l1-0.5 0.1 0.7zm1.8-1.2c-0.1 0.2-0.3 0.5-0.4 0.7h4.3v0.3c-0.2 2.1-0.3 2.8-0.6 3.1-0.1 0.2-0.3 0.2-0.6 0.2h-1c0-0.2-0.1-0.5-0.2-0.6h0.8c0.1 0 0.2 0 0.3-0.1 0.2-0.2 0.3-0.8 0.4-2.4h-0.6c-0.4 1.2-1.2 2.5-2 3.1-0.1-0.1-0.3-0.3-0.5-0.4 0.8-0.5 1.5-1.6 1.9-2.7h-1c-0.5 1-1.5 2.1-2.4 2.7-0.1-0.2-0.3-0.3-0.5-0.5 0.8-0.5 1.7-1.3 2.2-2.2h-1c-0.4 0.5-0.8 0.8-1.3 1.1l-0.5-0.5c0.8-0.5 1.5-1.2 2-2h-1.4v-0.4h6.3v0.6h-4.2zm3.4-1.2h-4.6v-3.2h4.6v3.2zm-0.7-2.6h-3.2v0.8h3.2v-0.8zm0 1.3h-3.2v0.8h3.2v-0.8z"/>

<rect class="st0" x="8.7" y="202.2" width="64.4" height="33.8"/>

	<path class="st1" d="m30.3 221.6h-2.3v1.6c0 0.4-0.1 0.6-0.4 0.7s-0.9 0.1-1.7 0.1c0-0.2-0.2-0.5-0.2-0.6h1.4c0.2 0 0.2 0 0.2-0.2v-1.6h-5.9v-0.6h5.9v-0.8h-4.9v-3.2h3.1v-0.7h-3.8v-0.6h3.8v-0.8h0.7v0.8h3.9v0.6h-3.9v0.7h3.2v3.2h-1.3v0.8h2.3v0.6zm-6.8 0.2c0.6 0.4 1.2 1 1.6 1.4l-0.6 0.5c-0.3-0.4-1-1-1.5-1.4l0.5-0.5zm-0.4-3.5h2.4v-0.8h-2.4v0.8zm0 1.4h2.4v-0.8h-2.4v0.8zm3.1-2.2v0.8h2.4v-0.8h-2.4zm2.4 1.4h-2.4v0.8h2.4v-0.8z"/>
	<path class="st1" d="m35.3 221.1c-1.4 0.4-2.8 0.8-3.9 1.1l-0.2-0.8c0.4-0.1 1-0.2 1.6-0.4v-4.2h-1.5v-0.7h3.7v0.7h-1.5v4l1.7-0.4 0.1 0.7zm4.3-3.7c-0.3 1.7-0.8 3-1.6 4 0.7 0.8 1.5 1.5 2.5 1.9-0.2 0.2-0.4 0.4-0.5 0.6-1-0.4-1.9-1.1-2.5-1.9-0.8 0.8-1.8 1.5-3.1 2-0.1-0.2-0.3-0.5-0.4-0.7 1.3-0.4 2.3-1 3.1-1.9-0.5-0.9-1-1.9-1.3-3.1-0.2 0.5-0.5 0.9-0.8 1.3-0.1-0.1-0.5-0.3-0.6-0.4 0.9-1 1.6-2.7 2-4.4l0.6 0.2c-0.2 0.6-0.3 1.2-0.5 1.7h3.9v0.7h-0.8zm-3.4 0c0.3 1.3 0.7 2.4 1.3 3.4 0.6-0.9 1-2 1.3-3.4h-2.6z"/>
	<path class="st1" d="m44.7 220.9c-0.2-0.3-0.6-1-0.9-1.5v4.6h-0.8v-4.4c-0.4 1-0.9 2-1.4 2.6-0.1-0.2-0.2-0.5-0.4-0.7 0.6-0.7 1.3-2 1.7-3.1h-1.6v-0.7h1.7v-1.5c-0.5 0.1-0.9 0.2-1.4 0.2 0-0.2-0.1-0.4-0.2-0.6 1.1-0.2 2.4-0.5 3.2-0.8l0.4 0.6c-0.4 0.2-0.8 0.3-1.3 0.4v1.7h1.5v0.7h-1.5v0.2c0.3 0.4 1.2 1.4 1.4 1.7l-0.4 0.6zm4.5 0.5v2.6h-0.7v-2.5l-3.3 0.5-0.1-0.7 3.4-0.5v-5.9h0.7v5.8l1.2-0.2 0.1 0.7-1.3 0.2zm-1.9-1.3c-0.4-0.4-1.1-1.1-1.8-1.5l0.5-0.4c0.6 0.4 1.4 1 1.8 1.4l-0.5 0.5zm0.2-2.7c-0.3-0.4-1-1-1.6-1.4l0.5-0.4c0.6 0.4 1.3 1 1.6 1.4l-0.5 0.4z"/>
	<path class="st1" d="m54.4 220.9c-0.2-0.3-0.6-1-0.9-1.5v4.6h-0.7v-4.6c-0.3 1.1-0.8 2.1-1.3 2.8-0.1-0.2-0.3-0.5-0.4-0.7 0.6-0.8 1.3-2.4 1.6-3.8h-1.4v-0.7h1.4v-2.1h0.7v2.1h1.2v0.7h-1.2v0.8c0.3 0.4 1.1 1.5 1.3 1.8l-0.3 0.6zm3.9-0.1c0.6 0.8 1.5 1.7 2.3 2.1-0.2 0.1-0.4 0.4-0.5 0.6-0.7-0.5-1.6-1.4-2.2-2.3v2.8h-0.7v-2.6c-0.6 0.9-1.6 1.8-2.5 2.3-0.1-0.2-0.3-0.4-0.5-0.6 0.9-0.4 2-1.3 2.6-2.2h-1.7v-3.4h2v-0.8h-2.4v-0.7h2.4v-1.1h0.7v1.1h2.4v0.6h-2.4v0.8h2.2v3.4h-1.7zm-2.5-1.9h1.4v-0.9h-1.4v0.9zm0 1.4h1.4v-0.9h-1.4v0.9zm2.1-2.3v0.8h1.4v-0.8h-1.4zm1.4 1.4h-1.4v0.9h1.4v-0.9z"/>

<rect class="st2" x="80.7" y="174.4" width="74.6" height="39.4"/>

	<path class="st0" d="m92.8 191.9c-0.3 0.8-0.8 1.8-1.3 2.7 0.9 0.7 1.7 1.5 2.4 2.2l-1 1.1c-0.7-0.8-1.4-1.5-2.2-2.2-0.9 1.1-2 2.2-3.7 3.1l-1.1-1c1.6-0.8 2.8-1.8 3.8-2.9-0.7-0.6-1.7-1.3-2.7-1.9l0.8-1c0.8 0.5 1.8 1.2 2.7 1.8 0.5-0.8 0.8-1.6 1.1-2.4 0.1-0.3 0.2-0.7 0.2-0.9l1.5 0.5c-0.2 0.2-0.4 0.6-0.5 0.9z"/>
	<path class="st0" d="m99 192.6c1-0.6 2.2-1.6 2.8-2.4l1.1 1c-0.8 0.8-1.7 1.5-2.7 2.2v4c0 0.4 0 1.1 0.1 1.3h-1.6c0-0.2 0.1-0.9 0.1-1.3v-3.2c-1 0.5-2.3 1.1-3.5 1.4l-0.6-1.3c1.7-0.3 3.2-1 4.3-1.7z"/>
	<path class="st0" d="m107.8 196.1c1.7-1 3-2.5 3.6-3.9l0.8 1.4c-0.8 1.3-2.1 2.7-3.7 3.7-1 0.6-2.3 1.2-3.7 1.4l-0.8-1.3c1.5-0.2 2.8-0.7 3.8-1.3zm0-3.3-1 1c-0.5-0.6-1.8-1.6-2.5-2.2l0.9-1c0.7 0.6 2 1.6 2.6 2.2z"/>
	<path class="st0" d="m119.7 192.2c-0.3 0.8-0.9 1.8-1.6 2.7 1 0.9 2.2 2.1 2.8 2.9l-1.1 1c-0.6-0.9-1.6-1.9-2.5-2.8-1.1 1.1-2.4 2.2-3.8 2.8l-1-1.1c1.6-0.6 3.2-1.8 4.1-2.9 0.7-0.8 1.3-1.7 1.5-2.4h-3.4c-0.4 0-1 0.1-1.2 0.1v-1.5c0.3 0 0.9 0.1 1.2 0.1h3.5c0.4 0 0.8-0.1 1-0.1l0.8 0.6c0 0.1-0.2 0.4-0.3 0.6z"/>
	<path class="st0" d="m123 193.3h6.5c0.2 0 0.6 0 0.9-0.1v1.3h-0.9-2.4c-0.1 1-0.3 1.9-0.6 2.6s-1.1 1.5-2 1.9l-1.2-0.8c0.7-0.3 1.4-0.8 1.8-1.4s0.6-1.4 0.6-2.2h-2.7-1v-1.3c0.3-0.1 0.6 0 1 0zm1.2-2.6h4c0.3 0 0.7 0 1.1-0.1v1.3h-1.1-4-1.1v-1.3c0.4 0.1 0.8 0.1 1.1 0.1z"/>
	<path class="st0" d="m133.2 193.8h5.4c0.5 0 0.9 0 1.2-0.1v1.6c-0.2 0-0.8-0.1-1.2-0.1h-5.4c-0.6 0-1.2 0-1.6 0.1v-1.6c0.3 0 1.1 0.1 1.6 0.1z"/>
	<path class="st0" d="m144 194.1-0.7 1.1c-0.6-0.4-1.6-1.1-2.3-1.4l0.7-1.1c0.6 0.4 1.7 1.1 2.3 1.4zm0.8 2.3c1.7-1 3.1-2.3 3.9-3.7l0.8 1.4c-0.9 1.4-2.3 2.6-4 3.6-1 0.6-2.5 1.1-3.3 1.2l-0.7-1.3c1-0.2 2.2-0.6 3.3-1.2zm0.7-4.5-0.7 1.1c-0.6-0.4-1.6-1.1-2.3-1.4l0.7-1.1c0.7 0.3 1.8 1 2.3 1.4zm3 0.3-0.9 0.4c-0.3-0.6-0.5-1.1-0.9-1.6l0.8-0.3c0.3 0.4 0.7 1 1 1.5zm1.4-0.5-0.9 0.3c-0.3-0.6-0.6-1-0.9-1.5l0.8-0.3c0.3 0.4 0.7 1 1 1.5z"/>
	<path class="st0" d="M85.4,200.1v-0.5h64.7v0.5H85.4z"/>

<polygon class="st0" points="310.1 164.4 310.1 135.4 173.1 135.4 173.1 222.4 310.1 222.4 310.1 194.4 206.1 194.4 206.1 164.4"/>

	<path class="st1" d="m235.7 150.4v0.8h-9.1v-0.8h9.1z"/>
	<path class="st1" d="m240.3 151.1v3.6c0 0.3-0.1 0.5-0.3 0.6s-0.6 0.1-1.1 0.1c0-0.2-0.1-0.4-0.2-0.6h0.9c0.1 0 0.2 0 0.2-0.2v-3.5c-0.6 0.1-1.2 0.1-1.8 0.2 0 1.3-0.1 3-0.8 4.1-0.1-0.1-0.4-0.3-0.5-0.3 0.7-1 0.7-2.5 0.7-3.7l-0.6 0.1-0.1-0.6 0.7-0.1v-3.1h0.9c0.1-0.4 0.3-1 0.4-1.4l0.8 0.2c-0.2 0.4-0.3 0.8-0.5 1.2h1.5v2.8l0.5-0.1v0.6l-0.7 0.1zm-2.4-0.4c0.5 0 1.2-0.1 1.8-0.2v-2.2h-1.8v2.4zm0.8-2c0.3 0.4 0.5 1 0.6 1.3l-0.5 0.2c-0.1-0.4-0.3-0.9-0.5-1.4l0.4-0.1zm0.3 5.2h-0.5v-2.3h0.5v2.3zm6.3-3.1c-0.3 1.2-0.9 2.2-1.6 2.9 0.6 0.5 1.3 0.9 2.2 1.1-0.2 0.1-0.4 0.4-0.5 0.6-0.9-0.3-1.6-0.7-2.2-1.2-0.7 0.6-1.4 1-2.2 1.3-0.1-0.2-0.3-0.5-0.4-0.6 0.8-0.2 1.5-0.6 2.1-1.1-0.5-0.6-1-1.4-1.3-2.2l0.6-0.1h-1v-0.7h3.7 0.1 0.5zm-3-2.8c0 0.8-0.2 1.7-1 2.4-0.1-0.1-0.4-0.4-0.5-0.4 0.7-0.6 0.8-1.3 0.8-2v-1.3h2.9v2.3 0.3h0.2 0.3 0.2s0.1-0.1 0.1-0.2v-0.8c0.1 0.1 0.4 0.2 0.5 0.3 0 0.4 0 0.8-0.1 0.9-0.1 0.2-0.2 0.3-0.3 0.3-0.1 0.1-0.3 0.1-0.4 0.1h-0.5c-0.2 0-0.4 0-0.5-0.2-0.1-0.1-0.2-0.3-0.2-0.8v-1.6h-1.5v0.7zm-0.3 3.3c0.3 0.7 0.7 1.4 1.2 1.9 0.5-0.5 0.9-1.2 1.2-1.9h-2.4z"/>
	<path class="st1" d="m249.8 152.3c-0.2-0.3-0.6-1-0.9-1.5v4.6h-0.7v-4.6c-0.3 1.1-0.8 2.1-1.3 2.8-0.1-0.2-0.3-0.5-0.4-0.7 0.6-0.8 1.3-2.4 1.6-3.8h-1.4v-0.7h1.4v-2.1h0.7v2.1h1.2v0.7h-1.2v0.8c0.3 0.4 1.1 1.5 1.3 1.8l-0.3 0.6zm3.8 0c0.6 0.8 1.5 1.7 2.3 2.1-0.2 0.1-0.4 0.4-0.5 0.6-0.7-0.5-1.6-1.4-2.2-2.3v2.8h-0.7v-2.6c-0.6 0.9-1.6 1.8-2.5 2.3-0.1-0.2-0.3-0.4-0.5-0.6 0.9-0.4 2-1.3 2.6-2.2h-1.7v-3.4h2v-0.8h-2.4v-0.6h2.4v-1.1h0.7v1.1h2.4v0.6h-2.4v0.8h2.1v3.4h-1.6zm-2.5-2h1.4v-0.8h-1.4v0.8zm0 1.4h1.4v-0.9h-1.4v0.9zm2.1-2.3v0.8h1.4v-0.8h-1.4zm1.4 1.4h-1.4v0.9h1.4v-0.9z"/>


	<path class="st1" d="m229.2 210.4v3.6h-0.7v-3.4c-0.6 0.2-1.2 0.4-1.6 0.5l-0.2-0.7c0.5-0.1 1.1-0.3 1.8-0.5v-2.2h-0.9c-0.1 0.6-0.3 1.1-0.4 1.5-0.1-0.1-0.4-0.3-0.6-0.3 0.4-0.8 0.6-2.1 0.7-3.3l0.6 0.1c0 0.5-0.1 0.9-0.2 1.3h0.8v-2h0.7v2h1v0.7h-1v2l1.2-0.4 0.1 0.7-1.3 0.4zm6.5-3.8v0.4c-0.2 4.5-0.4 6.1-0.8 6.6-0.2 0.3-0.4 0.4-0.7 0.4h-1.1c0-0.2-0.1-0.5-0.2-0.7h1c0.2 0 0.3 0 0.4-0.2 0.3-0.3 0.5-1.8 0.7-5.8h-0.5c-0.5 2.6-1.6 5.3-3.3 6.6-0.1-0.2-0.4-0.3-0.6-0.4 1.6-1.2 2.7-3.6 3.2-6.1h-0.8c-0.4 1.7-1.4 3.6-2.5 4.5-0.1-0.2-0.4-0.3-0.6-0.4 1.1-0.8 1.9-2.5 2.4-4.1h-0.9c-0.3 0.7-0.7 1.4-1.1 1.9-0.1-0.1-0.4-0.3-0.6-0.4 0.8-0.9 1.4-2.3 1.7-3.8l0.7 0.1c-0.1 0.5-0.3 1-0.4 1.5h4z"/>
	<path class="st1" d="m238.2 206.9c-0.1 0.6-0.4 1.3-0.9 1.8-0.1-0.2-0.3-0.4-0.5-0.5 0.7-0.6 0.8-1.4 0.8-2.1v-1l0.6 0.2c0.9-0.1 1.8-0.2 2.3-0.4l0.5 0.5c-0.7 0.2-1.8 0.4-2.7 0.4v0.6h3v0.6h-1.3v1.2h-0.7v-1.2h-1.1zm2.2 6c-0.8 0.5-2.1 0.9-3 1.2-0.1-0.1-0.4-0.4-0.5-0.6 1-0.2 2.2-0.6 2.9-1l0.6 0.4zm-2.3-4.5h6.5v4.1h-6.5v-4.1zm0.7 1.2h5v-0.7h-5v0.7zm0 1.1h5v-0.7h-5v0.7zm0 1.2h5v-0.7h-5v0.7zm6.9-5.6v0.6h-1.5v1.3h-0.7v-1.3h-1.4c-0.1 0.5-0.4 1-1 1.4-0.1-0.2-0.3-0.4-0.5-0.5 0.8-0.5 1-1.2 1-1.7v-0.9l0.6 0.1c0.9-0.1 1.9-0.2 2.5-0.4l0.5 0.5c-0.8 0.2-1.9 0.3-2.9 0.4v0.3 0.2h3.4zm-3 6.3c1.1 0.3 2.3 0.8 3 1.1l-0.8 0.4c-0.6-0.3-1.7-0.7-2.8-1.1l0.6-0.4z"/>
	<path class="st1" d="m249.8 210.9c-0.2-0.3-0.6-1-0.9-1.5v4.6h-0.7v-4.6c-0.3 1.1-0.8 2.1-1.3 2.8-0.1-0.2-0.3-0.5-0.4-0.7 0.6-0.8 1.3-2.4 1.6-3.8h-1.4v-0.7h1.4v-2.1h0.7v2.1h1.2v0.7h-1.2v0.8c0.3 0.4 1.1 1.5 1.3 1.8l-0.3 0.6zm3.9 0c0.6 0.8 1.5 1.7 2.3 2.1-0.2 0.1-0.4 0.4-0.5 0.6-0.7-0.5-1.6-1.4-2.2-2.3v2.8h-0.7v-2.6c-0.6 0.9-1.6 1.8-2.5 2.3-0.1-0.2-0.3-0.4-0.5-0.6 0.9-0.4 2-1.3 2.6-2.2h-1.7v-3.4h2v-0.8h-2.4v-0.8h2.4v-1.1h0.7v1.1h2.4v0.6h-2.4v0.8h2.1v3.4h-1.6zm-2.5-2h1.4v-0.9h-1.4v0.9zm0 1.4h1.4v-0.9h-1.4v0.9zm2.1-2.3v0.8h1.4v-0.8h-1.4zm1.4 1.4h-1.4v0.9h1.4v-0.9z"/>

<rect class="st0" x="97.7" y="50.4" width="26" height="29"/>

	<path class="st1" d="m102.7 64.3h1.7v0.5h-1.7v0.7h1.4v1.9c0 0.2 0 0.4-0.2 0.5s-0.4 0.1-0.8 0.1c0-0.1-0.1-0.3-0.2-0.5h0.6c0.1 0 0.1 0 0.1-0.1v-1.4h-1v2.5h-0.5v-2.5h-0.9v2h-0.5v-2.4h1.4v-0.7h-1.7v-0.5h1.7v-0.7h-0.9c-0.1 0.3-0.2 0.5-0.4 0.7-0.1-0.1-0.3-0.2-0.5-0.2 0.3-0.5 0.6-1.2 0.7-1.8l0.5 0.1c-0.1 0.2-0.1 0.5-0.2 0.7h0.7v-1h0.5v1h1.4v0.5h-1.4v0.6zm2.7 2.3h-0.5v-3.9h0.5v3.9zm1.2-4.4v5.6c0 0.3-0.1 0.5-0.3 0.6s-0.6 0.1-1.1 0.1c0-0.1-0.1-0.4-0.2-0.5h0.9c0.1 0 0.1 0 0.1-0.2v-5.6h0.6z"/>
	<path class="st1" d="m109.2 63.6c-0.1 0.3-0.3 0.6-0.5 0.9v4h-0.5v-3.3c-0.2 0.3-0.4 0.5-0.6 0.7-0.1-0.1-0.2-0.4-0.3-0.5 0.5-0.5 1.1-1.2 1.4-2l0.5 0.2zm-0.2-1.3c-0.3 0.6-0.9 1.2-1.4 1.6-0.1-0.1-0.2-0.3-0.3-0.4 0.4-0.4 0.9-0.9 1.2-1.4l0.5 0.2zm2.8 4.9v0.4c-1 0.2-2 0.3-2.8 0.4l-0.1-0.5h0.4v-2.2h0.4v2.1l0.6-0.1v-2.6h-1.2v-0.5h1.2v-1.1h-0.5c-0.1 0.3-0.3 0.6-0.4 0.9-0.1-0.1-0.3-0.2-0.4-0.2 0.3-0.5 0.6-1.1 0.7-1.8l0.5 0.1c0 0.2-0.1 0.4-0.2 0.7h1.7v0.5h-0.9v1.1h0.9v0.5h-0.9v0.8h0.9v0.4h-0.9v1.2l1-0.1zm1.9-0.3c0 0.2 0 0.4-0.2 0.5-0.1 0.1-0.4 0.1-0.7 0.1 0-0.1-0.1-0.3-0.1-0.5h0.5c0.1 0 0.1 0 0.1-0.1v-3.8h-0.8v5.4h-0.5v-5.9h1.8v4.3z"/>
	<path class="st1" d="m116.7 66.3c-0.1-0.2-0.4-0.7-0.6-1.1v3.3h-0.5v-3.3c-0.2 0.8-0.6 1.5-0.9 2-0.1-0.1-0.2-0.3-0.3-0.5 0.4-0.6 0.9-1.7 1.1-2.6h-1v-0.5h1v-1.5h0.5v1.5h0.9v0.5h-0.9v0.5c0.2 0.3 0.8 1.1 0.9 1.3l-0.2 0.4zm2.7 0c0.4 0.6 1.1 1.2 1.6 1.5l-0.4 0.4c-0.5-0.4-1.1-1-1.5-1.6v1.9h-0.5v-1.9c-0.5 0.7-1.1 1.2-1.7 1.6-0.1-0.1-0.2-0.3-0.4-0.4 0.7-0.3 1.4-0.9 1.8-1.5h-1.2v-2.4h1.4v-0.6h-1.7v-0.4h1.7v-0.8h0.5v0.8h1.7v0.4h-1.7v0.6h1.5v2.4h-1.1zm-1.8-1.4h1v-0.6h-1v0.6zm0 1h1v-0.6h-1v0.6zm1.5-1.6v0.6h1v-0.6h-1zm1 1h-1v0.6h1v-0.6z"/>

<polygon class="st0" points="242.1 42.4 242.1 8.4 173.1 8.4 173.1 42.4 190.1 42.4 190.1 60.4 173.1 60.4 173.1 94.4 242.1 94.4 242.1 60.4 203.1 60.4 203.1 42.4"/>

	<path class="st1" d="m196.9 22v8.6h-0.8v-0.5h-6.7v0.5h-0.7v-8.6h8.2zm-0.7 7.4v-6.7h-6.7v6.7h6.7zm-1.1-0.5c-0.5-0.5-1.3-1-2.2-1.5-0.8 0.7-1.6 1.3-2.6 1.8-0.1-0.1-0.3-0.4-0.5-0.6 0.9-0.4 1.7-0.9 2.4-1.6-0.7-0.4-1.4-0.7-2.1-1l0.4-0.5c0.7 0.3 1.5 0.6 2.2 1 0.8-0.9 1.5-1.9 2-3.1l0.7 0.2c-0.5 1.2-1.2 2.3-2.1 3.2 0.8 0.5 1.6 1 2.1 1.4l-0.3 0.7zm-4.1-3.5c-0.1-0.5-0.5-1.2-0.9-1.7l0.5-0.2c0.4 0.5 0.8 1.2 0.9 1.7l-0.5 0.2zm1.7-0.2c-0.1-0.5-0.4-1.3-0.7-1.9l0.6-0.2c0.4 0.6 0.7 1.3 0.8 1.8l-0.7 0.3z"/>
	<path class="st1" d="m207.2 26.6v0.5h-8.8v-0.5h4v-0.6h-3.3v-0.5h3.3v-0.5h-3.1v-0.5h3.1v-0.6h-4v-0.6h4v-0.6h-2.9v-0.5h2.9v-0.7h0.7v0.7h2.9v1.1h1.2v0.6h-1.2v1.1h-2.9v0.5h3.4v0.5h-3.4v0.6h4.1zm-7.5 1h6.4v3.1h-0.7v-0.3h-4.9v0.3h-0.7v-3.1zm0.7 0.5v0.6h4.9v-0.6h-4.9zm4.9 1.7v-0.6h-4.9v0.6h4.9zm-2.1-6.5h2.1v-0.6h-2.1v0.6zm0 1.1h2.1v-0.6h-2.1v0.6z"/>
	<path class="st1" d="m211.2 27.7c0.5 0.7 1.1 1.6 1.3 2.2l-0.6 0.3c-0.1-0.2-0.2-0.5-0.4-0.9-1 0.3-2.1 0.6-3 0.8l-0.2-0.7 0.7-0.2v-5.2c-0.1 0.1-0.3 0.2-0.4 0.4-0.1-0.1-0.3-0.4-0.5-0.5 1-0.7 1.6-1.8 2-2.6h0.7c0.6 0.5 1.3 1.2 1.6 1.7l-0.5 0.5c-0.3-0.5-0.9-1.2-1.4-1.7-0.3 0.6-0.8 1.3-1.5 2h1.2v-0.9h0.6v0.9h1.1v3.2h-2.4v1.9c0.5-0.1 1-0.2 1.5-0.4-0.2-0.3-0.4-0.6-0.5-0.8h0.7zm-1.6-3v0.8h1.7v-0.8h-1.7zm1.7 2.1v-0.8h-1.7v0.8h1.7zm2.4-0.1v0.8h3.3v3.1h-0.7v-0.4h-2.7v0.5h-0.6v-6.4h-0.6v-1.7h2v-1.1h0.7v1.1h2.1v1.7h-0.6v2.4h-2.9zm-0.6-3.5v1h3.5v-1h-3.5zm2.9 1.6h-2.3v1.2h2.3v-1.2zm-2.3 3.3v1.4h2.7v-1.4h-2.7z"/>
	<path class="st1" d="m221.4 27.5c-0.2-0.3-0.6-1-0.9-1.5v4.6h-0.7v-4.6c-0.3 1.1-0.8 2.1-1.3 2.8-0.1-0.2-0.3-0.5-0.4-0.7 0.6-0.8 1.3-2.4 1.6-3.8h-1.4v-0.7h1.4v-2.1h0.7v2.1h1.2v0.7h-1.2v0.8c0.3 0.4 1.1 1.5 1.3 1.8l-0.3 0.6zm3.9 0c0.6 0.8 1.5 1.7 2.3 2.1-0.2 0.1-0.4 0.4-0.5 0.6-0.7-0.5-1.6-1.4-2.2-2.3v2.8h-0.7v-2.7c-0.6 0.9-1.6 1.8-2.5 2.3-0.1-0.2-0.3-0.4-0.5-0.6 0.9-0.4 2-1.3 2.6-2.2h-1.7v-3.4h2v-0.8h-2.4v-0.6h2.4v-1.1h0.7v1.1h2.4v0.6h-2.4v0.8h2.1v3.4h-1.6zm-2.5-2h1.4v-0.8h-1.4v0.8zm0 1.4h1.4v-0.9h-1.4v0.9zm2.1-2.2v0.8h1.4v-0.8h-1.4zm1.4 1.3h-1.4v0.9h1.4v-0.9z"/>


	<path class="st1" d="m197 80.3h-4v1.9c0 0.4-0.1 0.7-0.5 0.8s-0.9 0.1-1.8 0.1c0-0.2-0.2-0.5-0.3-0.7h1.6c0.2 0 0.3-0.1 0.3-0.2v-1.9h-4v-0.7h4v-0.7h0.4c0.5-0.2 1-0.6 1.4-0.9h-4.1v-0.7h4.9 0.2l0.5 0.4c-0.6 0.6-1.5 1.3-2.4 1.7v0.2h4v0.7zm-7.9-2.4h-0.7v-2.2h1.5c-0.2-0.4-0.5-0.9-0.8-1.2l0.6-0.3c0.4 0.4 0.8 1 1 1.4l-0.3 0.2h2c-0.1-0.4-0.4-1-0.7-1.5l0.6-0.2c0.3 0.5 0.7 1.1 0.8 1.5l-0.4 0.2h1.8c0.4-0.5 0.8-1.1 1.1-1.6l0.8 0.3c-0.3 0.4-0.7 0.9-1 1.3h1.5v2.2h-0.7v-1.5h-7v1.4z"/>
	<path class="st1" d="m207 82.1v0.7h-8.9v-0.7h4v-2.5h-3v-0.7h3v-2.2h-2.3c-0.3 0.6-0.7 1.2-1 1.6-0.1-0.1-0.5-0.3-0.7-0.4 0.8-0.9 1.5-2.3 1.8-3.7l0.7 0.2c-0.2 0.5-0.3 1.1-0.6 1.6h2v-2h0.8v1.9h3.6v0.7h-3.4v2.2h3.2v0.7h-3.2v2.5h4z"/>
	<path class="st1" d="m212.9 74c1 1.5 2.8 2.8 4.4 3.4-0.2 0.2-0.3 0.4-0.5 0.7-1.5-0.7-3.3-2.1-4.2-3.4-0.8 1.2-2.4 2.6-4.1 3.4-0.1-0.2-0.3-0.4-0.4-0.6 1.7-0.8 3.4-2.3 4.1-3.5h0.7zm-4.4 5h8.2v0.7h-4.7c-0.3 0.7-0.8 1.6-1.2 2.3 1.2 0 2.6-0.1 4-0.1-0.4-0.5-0.9-1-1.3-1.3l0.6-0.3c0.9 0.8 1.9 1.9 2.3 2.6l-0.7 0.4c-0.1-0.2-0.3-0.4-0.5-0.7-2.4 0.1-5 0.2-6.7 0.3l-0.1-0.7h1.5c0.4-0.7 0.8-1.6 1.1-2.3h-2.6v-0.9zm6.5-1.9v0.7h-4.7v-0.7h4.7z"/>
	<path class="st1" d="m221 80.2c0.5 0.7 1.1 1.6 1.3 2.2l-0.6 0.3c-0.1-0.2-0.2-0.5-0.4-0.9-1 0.3-2.1 0.6-3 0.8l-0.2-0.7 0.7-0.2v-5.2c-0.1 0.1-0.3 0.2-0.4 0.4-0.1-0.1-0.3-0.4-0.5-0.5 1-0.7 1.6-1.8 2-2.6h0.7c0.6 0.5 1.3 1.2 1.6 1.7l-0.5 0.5c-0.3-0.5-0.9-1.2-1.4-1.7-0.3 0.6-0.8 1.3-1.5 2h1.2v-0.9h0.6v0.9h1.1v3.2h-2.4v1.9c0.5-0.1 1-0.2 1.5-0.4-0.2-0.3-0.4-0.6-0.5-0.8h0.7zm-1.6-3v0.8h1.7v-0.8h-1.7zm1.7 2.1v-0.8h-1.7v0.8h1.7zm2.4-0.1v0.8h3.3v3.1h-0.7v-0.4h-2.7v0.5h-0.7v-6.4h-0.6v-1.7h2v-1.1h0.7v1.1h2.1v1.7h-0.6v2.4h-2.8zm-0.6-3.5v1h3.5v-1h-3.5zm2.8 1.6h-2.3v1.2h2.3v-1.2zm-2.2 3.3v1.4h2.7v-1.4h-2.7z"/>

<rect class="st0" x="255.1" y="60.4" width="47" height="34"/>

	<path class="st1" d="m264.6 70.6c0 0.2-0.1 0.5-0.1 0.8 0.6 0 1.2 0 1.6-0.1v0.6c-0.5 0-1 0.1-1.6 0.1h-0.1c-0.1 0.5-0.1 1-0.2 1.4h0.2c0.5 0 1.1 0 1.7-0.1v0.6c-0.5 0.1-1 0.1-1.6 0.1h-0.3v0.8c0 0.8 0.4 1.3 1.3 1.3 1.2 0 2-0.5 2-1.4 0-0.5-0.3-1.1-0.9-1.6l0.7-0.1c0.6 0.6 0.8 1.2 0.8 1.8 0 1.2-1.1 1.9-2.6 1.9-1.1 0-2-0.5-2-1.8 0-0.2 0-0.5 0.1-0.9-0.6 0-1.2-0.1-1.7-0.3v-0.6c0.5 0.2 1.1 0.3 1.7 0.3 0-0.5 0.1-1 0.2-1.4-0.6 0-1.2-0.2-1.7-0.3v-0.6c0.5 0.2 1.2 0.3 1.8 0.3 0-0.3 0.1-0.6 0.1-0.8v-0.6h0.7c-0.1 0.2-0.1 0.4-0.1 0.6z"/>
	<path class="st1" d="m272.9 76.6-0.4-0.6c0.3 0 0.5-0.1 0.7-0.1 1-0.2 2-1 2-2.4 0-1.2-0.8-2.2-2.1-2.3-0.1 0.7-0.3 1.6-0.5 2.3-0.5 1.6-1.1 2.5-1.9 2.5-0.7 0-1.4-0.8-1.4-2.1 0-1.7 1.5-3.3 3.5-3.3 1.9 0 3.1 1.3 3.1 2.9 0 1.7-1.1 2.8-3 3.1zm-2.1-1.4c0.4 0 0.8-0.5 1.2-1.9 0.2-0.7 0.4-1.4 0.4-2.2-1.5 0.2-2.5 1.5-2.5 2.6s0.5 1.5 0.9 1.5z"/>
	<path class="st1" d="m277.7 72c0.7-0.2 2.2-0.8 3.4-0.8 1.3 0 2.4 0.8 2.4 2.1 0 1.9-1.9 2.8-4.4 3l-0.3-0.7c2.1-0.1 4-0.7 4-2.3 0-0.8-0.6-1.5-1.7-1.5-1.3 0-3.3 0.9-4 1.1l-0.3-0.7c0.3 0 0.6-0.1 0.9-0.2zm5.3-0.9-0.4 0.2c-0.2-0.3-0.4-0.8-0.6-1.1l0.4-0.2c0.2 0.3 0.5 0.8 0.6 1.1zm0.9-0.3-0.4 0.2c-0.2-0.3-0.4-0.8-0.7-1.1l0.4-0.2c0.3 0.3 0.6 0.8 0.7 1.1z"/>
	<path class="st1" d="m288.1 70.9c-0.5 0.5-1.7 1.4-2.3 1.9-0.5 0.4-0.5 0.5 0 1 0.7 0.6 2.1 1.7 3 2.6l-0.6 0.5-0.6-0.6c-0.6-0.6-1.8-1.6-2.5-2.2-0.8-0.6-0.7-1 0.1-1.6l2.4-2 0.5-0.5 0.6 0.5c-0.2 0-0.4 0.2-0.6 0.4z"/>
	<path class="st1" d="m291.5 72.2c0.3-0.8 1.2-1.8 2.2-1.8 1.1 0 1.8 1.1 1.8 2.7 0 2.2-1.4 3.2-3.4 3.6l-0.4-0.6c1.7-0.3 3.1-1 3.1-3 0-1.3-0.4-2.2-1.3-2.2-1 0-1.9 1.5-2 2.5v1h-0.6c0-0.3-0.1-0.8-0.1-1.3 0-0.8 0.2-1.9 0.2-2.6 0-0.2 0-0.5 0.1-0.7h0.7c-0.1 0.8-0.2 1.9-0.3 2.4z"/>
	<path class="st1" d="m278.3 85.3v0.6h-7.1v-0.6h3.2v-4.6h-2.8v-0.6h6.3v0.6h-2.9v4.6h3.3z"/>
	<path class="st1" d="m282.8 83.6c0 0.2-0.1 0.4-0.1 0.6h2.8v0.2c-0.1 1.2-0.2 1.7-0.4 1.9-0.1 0.1-0.3 0.2-0.5 0.2h-1.1c0-0.1-0.1-0.4-0.2-0.5h1c0.2 0 0.2 0 0.3-0.1s0.2-0.5 0.3-1.3h-2.3c-0.3 0.8-0.9 1.4-2.1 1.8-0.1-0.1-0.2-0.4-0.3-0.5 1.6-0.4 2-1.3 2.1-2.5h-1.7c-0.1 1-0.4 2-1 2.8-0.1-0.1-0.4-0.3-0.5-0.3 0.9-1 1-2.5 1-3.5v-1.8h5.6v1.7h-2.3v0.7h3v0.5h-3.6zm3.3-3.4h-6.7v-0.5h6.7v0.5zm-5.5 2.3v0.6h2.2v-0.7l-2.2 0.1zm0-1.3v0.8h4.5v-0.8h-4.5z"/>

<rect class="st2" x="331.6" y="135.4" width="58.5" height="82"/>

	<path class="st0" d="m345.6 173.8h-1.7c0.2 0.2 0.3 0.5 0.4 0.7l-0.9 0.4h1.4v2.6h-3.1v0.6h3.7v0.4c-0.1 1.3-0.2 2-0.5 2.2-0.2 0.2-0.4 0.3-0.8 0.3h-1.3c0-0.3-0.2-0.8-0.3-1.1 0.4 0 0.8 0.1 1 0 0.1 0 0.2 0 0.3-0.1s0.2-0.4 0.2-0.9h-2.4v2.5h-1.1v-2c-0.9 0.8-2 1.5-3.2 1.9-0.2-0.3-0.5-0.7-0.7-0.9 1-0.3 2.2-0.8 3-1.4h-1.2l-0.1 0.2-1.2-0.1c0.2-0.7 0.5-1.8 0.7-2.6h2.7v-0.6h-3.1v-1h1.3c-0.1-0.3-0.3-0.7-0.5-1h-0.1c-0.3 0.4-0.6 0.8-0.9 1.1-0.2-0.2-0.7-0.5-1-0.6 0.6-0.5 1.2-1.4 1.6-2.3l1.1 0.3c-0.1 0.2-0.2 0.4-0.2 0.5h2.2v0.8c0.4-0.5 0.7-1 1-1.6l1.1 0.3c-0.1 0.2-0.2 0.4-0.2 0.6h2.8v0.8zm-5.1 3.6h-1.7l-0.1 0.6h1.9v-0.6zm-1-3.6c0.1 0.2 0.2 0.5 0.3 0.7l-0.8 0.4h2.3c-0.2-0.2-0.7-0.5-0.9-0.6 0.1-0.1 0.3-0.2 0.4-0.4h-1.3zm3.8 1.1c-0.1-0.3-0.4-0.7-0.6-1h-0.4c-0.3 0.4-0.6 0.8-0.9 1h1.9zm0.3 0.9h-2v0.6h2v-0.6z"/>
	<path class="st0" d="m355.7 176.1v1.3h-9.2v-1.3h9.2z"/>
	<path class="st0" d="m359.5 172.5c-0.2 0.6-0.5 1.3-0.8 1.9v7h-1.1v-5.1c-0.2 0.3-0.4 0.5-0.6 0.8-0.1-0.3-0.4-0.9-0.7-1.2 0.8-0.9 1.6-2.3 2.1-3.7l1.1 0.3zm4 2.5c0.5 1.5 1.5 3.1 2.4 4-0.3 0.2-0.7 0.6-0.9 0.9-0.3-0.3-0.5-0.7-0.8-1.1v0.9h-1.3v1.6h-1.2v-1.6h-1.3v-0.9c-0.3 0.4-0.6 0.8-0.9 1.1-0.2-0.3-0.6-0.7-0.8-0.9 1-0.9 1.9-2.5 2.5-4.1h-2v-1.1h2.5v-1.7h1.2v1.7h2.8v1.1h-2.2zm-1.7 3.7v-2.5c-0.3 0.9-0.8 1.8-1.2 2.5h1.2zm2.3 0c-0.5-0.8-0.9-1.7-1.2-2.6v2.6h1.2z"/>
	<path class="st0" d="m373.5 174c0.7 0.5 1.6 1.2 2 1.7l-1 0.7-0.6-0.6c-2.5 0.1-5.1 0.2-6.8 0.2v-1.1h1.4c0.2-0.3 0.4-0.6 0.5-0.8h-2.3v-1h3.8v-0.8h1.2v0.8h3.8v1h-2zm0.7 6.4c0 0.6-0.1 0.8-0.5 1-0.4 0.1-1 0.2-1.8 0.2-0.1-0.3-0.2-0.7-0.3-1h1.3c0.2 0 0.2 0 0.2-0.2v-0.5h-3.8v1.6h-1.3v-5.1h6.2v4zm-5-3.1v0.5h3.8v-0.5h-3.8zm3.8 1.8v-0.5h-3.8v0.5h3.8zm-2.6-5.1c-0.2 0.3-0.5 0.6-0.7 0.8h3.1c-0.2-0.2-0.4-0.4-0.6-0.5l0.5-0.3h-2.3z"/>
	<path class="st0" d="m382.3 177.5v0.6h3.1v3.2h-1.1v-0.3h-2v0.5h-1.1v-6.4h-0.6v-1.1l-0.6 0.7c-0.2-0.4-0.8-1.1-1.2-1.5-0.3 0.5-0.7 1.1-1.3 1.7h0.9v-0.9h1v0.8h1v3.4h-2.3v1.4c0.3-0.1 0.7-0.2 1.1-0.2-0.1-0.2-0.3-0.5-0.4-0.7l0.9-0.4c0.5 0.7 1 1.7 1.1 2.3l-1 0.5c-0.1-0.2-0.1-0.5-0.3-0.8-1 0.3-2 0.6-2.8 0.8l-0.3-1.1c0.2 0 0.4-0.1 0.6-0.1v-4.7l-0.1 0.1c-0.1-0.2-0.5-0.6-0.7-0.8 0.9-0.7 1.5-1.6 1.8-2.4h1.1c0.5 0.4 1.2 1 1.5 1.5v-0.5h1.9v-1h1.1v1h2v1.9h-0.6v2.5h-2.7zm-4.2-1.8v0.5h1.2v-0.5h-1.2zm1.2 1.7v-0.5h-1.2v0.5h1.2zm2.4-3.3v0.7h2.8v-0.7h-2.8zm2.2 1.7h-1.6v0.8h1.6v-0.8zm-1.6 3.3v0.9h2v-0.9h-2z"/>
	<path class="st0" d="m336.1 182.3v-0.5h50v0.5h-50z"/>

<polygon class="st0" points="110.7 109.4 110.7 89.4 8.7 89.4 8.7 109.4 49.7 109.4 49.7 135.9 8.7 135.9 8.7 155.9 110.7 155.9 110.7 135.9 69.7 135.9 69.7 109.4"/>

	<path class="st1" d="m53.3 101.4c-0.3 0.6-0.7 1.1-1.2 1.6 0.3 0.5 0.6 0.8 1 0.8 0.3 0 0.4-0.2 0.4-1.1 0.1 0.1 0.4 0.3 0.5 0.3-0.1 1.1-0.3 1.4-1 1.4-0.6 0-1.1-0.4-1.4-1-0.5 0.4-1.1 0.7-1.7 1-0.1-0.1-0.3-0.3-0.4-0.5 0.7-0.3 1.3-0.6 1.9-1.1-0.2-0.5-0.4-1.1-0.5-1.9h-1.6c0 0.2 0 0.4-0.1 0.6 0.5 0.3 1.1 0.7 1.4 1l-0.4 0.5c-0.2-0.2-0.7-0.5-1.1-0.8-0.2 0.9-0.6 1.7-1.3 2.2-0.1-0.1-0.3-0.4-0.4-0.5 0.9-0.6 1.2-1.7 1.3-2.9h-0.7v-0.6l-0.3 0.4c-0.1-0.3-0.4-0.9-0.7-1.4v5h-0.7v-4.6c-0.3 1.1-0.7 2.1-1.1 2.7-0.1-0.2-0.2-0.5-0.4-0.6 0.6-0.8 1.1-2.4 1.4-3.8h-1.2v-0.7h1.3v-2.2h0.7v2.2h1v0.7h-1.1v0.4c0.3 0.4 0.9 1.4 1.1 1.7v0.1h2.8c-0.2-1.4-0.3-3.2-0.3-5.1h0.7c0 1.9 0.1 3.7 0.3 5.1h1.4c-0.2-0.2-0.6-0.4-0.8-0.6l0.3-0.4c0.4 0.2 0.8 0.5 1.1 0.7l-0.2 0.2h0.8v0.6h-2.4c0.1 0.5 0.2 1 0.4 1.4 0.3-0.4 0.6-0.8 0.8-1.2l0.4 0.4zm-5.1-2.4c0.2-0.3 0.4-0.6 0.7-1-0.3-0.3-0.7-0.7-1.1-1l0.3-0.4c0.1 0.1 0.2 0.1 0.2 0.2 0.2-0.4 0.5-1 0.6-1.4l0.6 0.2c-0.3 0.5-0.6 1.1-0.8 1.5 0.2 0.1 0.3 0.3 0.4 0.4 0.2-0.4 0.5-0.8 0.6-1.2l0.5 0.3c-0.4 0.7-1 1.6-1.5 2.3l1-0.1-0.3-0.6 0.5-0.2c0.3 0.4 0.5 1.1 0.6 1.4l-0.5 0.4c0-0.1 0-0.2-0.1-0.3-0.7 0.1-1.4 0.1-2 0.2l-0.1-0.7h0.4zm3.4-0.1c0.2-0.2 0.4-0.5 0.6-0.9-0.2-0.3-0.7-0.7-1-1l0.3-0.4c0.1 0.1 0.2 0.1 0.2 0.2 0.2-0.4 0.5-1 0.6-1.4l0.6 0.2c-0.2 0.5-0.6 1.1-0.8 1.5l0.4 0.4c0.2-0.4 0.5-0.8 0.6-1.2l0.5 0.3c-0.4 0.7-1 1.6-1.4 2.2l1.1-0.1-0.3-0.6 0.5-0.2c0.3 0.5 0.5 1.1 0.6 1.4l-0.5 0.2c0-0.1-0.1-0.3-0.1-0.4-0.7 0.1-1.5 0.1-2.1 0.2l-0.1-0.6 0.3 0.2z"/>
	<path class="st1" d="m59 97.5h-3.1v1.4h-0.7v-1.9h3.8v-0.6h-3.2v-0.6h7.3v0.6h-3.3v0.6h3.9v1.9h-0.7v-1.4h-3.2v2.3h-0.8v-2.3zm3.7 6.2c0.5 0 0.6-0.2 0.7-1.2 0.2 0.1 0.4 0.2 0.6 0.2-0.1 1.2-0.3 1.5-1.3 1.5h-2.3c-1.1 0-1.4-0.2-1.4-1v-0.2h-2.2v0.5h-0.7v-3.5h6.7v2.9h-3.1v0.3c0 0.3 0.1 0.4 0.8 0.4h2.2zm-6.5-4.7h2.3v0.5h-2.3v-0.5zm2.3-0.5h-2.1v-0.5h2.1v0.5zm-1.7 2.1v0.7h2.2v-0.7h-2.2zm2.2 1.9v-0.7h-2.2v0.7h2.2zm3.1-1.9h-2.4v0.7h2.4v-0.7zm0 1.9v-0.7h-2.4v0.7h2.4zm0.3-4.5v0.5h-2.1v-0.5h2.1zm-2.1 1h2.4v0.5h-2.4v-0.5z"/>
	<path class="st1" d="m68 101.3c-0.2-0.3-0.6-1-0.9-1.5v4.6h-0.7v-4.6c-0.3 1.1-0.8 2.1-1.3 2.8-0.1-0.2-0.3-0.5-0.4-0.7 0.6-0.8 1.3-2.4 1.6-3.8h-1.3v-0.7h1.4v-2.1h0.7v2.1h1.2v0.7h-1.2v0.8c0.3 0.4 1.1 1.5 1.3 1.8l-0.4 0.6zm3.9 0c0.6 0.8 1.5 1.7 2.3 2.1-0.2 0.1-0.4 0.4-0.5 0.6-0.7-0.5-1.6-1.4-2.2-2.3v2.8h-0.7v-2.6c-0.6 0.9-1.6 1.8-2.5 2.3-0.1-0.2-0.3-0.4-0.5-0.6 0.9-0.4 2-1.3 2.6-2.2h-1.7v-3.4h2v-0.8h-2.4v-0.6h2.4v-1.1h0.7v1.1h2.4v0.6h-2.4v0.8h2.1v3.4h-1.6zm-2.5-2h1.4v-0.8h-1.4v0.8zm0 1.4h1.4v-0.9h-1.4v0.9zm2.1-2.3v0.8h1.4v-0.8h-1.4zm1.4 1.4h-1.4v0.9h1.4v-0.9z"/>


	<path class="st1" d="m54.2 143.2h-2.2c0.2 0.3 0.4 0.6 0.5 0.8l-0.7 0.2c-0.1-0.3-0.4-0.7-0.7-1h-0.8l-0.6 0.6h0.3v0.8h3.9v1.9h-0.7v-1.3h-6.9v1.3h-0.7v-1.9h3.8v-0.6c-0.1-0.1-0.3-0.2-0.4-0.2 0.2-0.2 0.4-0.3 0.6-0.5h-1.8c0.2 0.3 0.3 0.6 0.4 0.8l-0.7 0.2c-0.1-0.3-0.3-0.7-0.5-1h-0.4c-0.3 0.4-0.6 0.8-0.9 1.1-0.1-0.1-0.4-0.3-0.6-0.4 0.6-0.5 1.1-1.3 1.4-2.1l0.7 0.2-0.3 0.6h2.6v0.6c0.4-0.4 0.7-0.9 0.9-1.4l0.7 0.2-0.3 0.6h3.4v0.5zm-6.6 5.2h5.4v2.4h-0.7v-0.3h-4.7v0.3h-0.7v-5.1h5.5v2h-4.8v0.7zm0-2v0.8h4v-0.8h-4zm0 2.6v1h4.7v-1h-4.7z"/>
	<path class="st1" d="m58.3 148.8c-1.1 0.4-2.2 0.8-3.1 1l-0.2-0.8c0.4-0.1 0.8-0.2 1.3-0.4v-2.6h-1.1v-0.7h1.1v-2.2h-1.2v-0.7h3.1v0.7h-1.1v2.2h1v0.7h-1v2.5l1.1-0.4 0.1 0.7zm6 1.1v0.7h-6.4v-0.7h3v-1.4h-2.3v-0.7h2.3v-1.2h-2.1v-4.4h5.1v4.4h-2.2v1.2h2.3v0.7h-2.3v1.4h2.6zm-4.9-5.7h1.5v-1.3h-1.5v1.3zm0 1.8h1.5v-1.3h-1.5v1.3zm3.7-3.1h-1.5v1.3h1.5v-1.3zm0 1.9h-1.5v1.3h1.5v-1.3z"/>
	<path class="st1" d="m68.2 147.8c-0.2-0.3-0.6-1-0.9-1.5v4.6h-0.7v-4.6c-0.3 1.1-0.8 2.1-1.3 2.8-0.1-0.2-0.3-0.5-0.4-0.7 0.6-0.8 1.3-2.4 1.6-3.8h-1.4v-0.7h1.4v-2.1h0.7v2.1h1.2v0.7h-1.2v0.8c0.3 0.4 1.1 1.5 1.3 1.8l-0.3 0.6zm3.9-0.1c0.6 0.8 1.5 1.7 2.3 2.1-0.2 0.1-0.4 0.4-0.5 0.6-0.7-0.5-1.6-1.4-2.2-2.3v2.8h-0.7v-2.6c-0.6 0.9-1.6 1.8-2.5 2.3-0.1-0.2-0.3-0.4-0.5-0.6 0.9-0.4 2-1.3 2.6-2.2h-1.7v-3.4h2v-0.8h-2.4v-0.6h2.5v-1.1h0.7v1.1h2.4v0.6h-2.4v0.8h2.1v3.4h-1.7zm-2.5-1.9h1.4v-0.8h-1.4v0.8zm0 1.4h1.4v-0.9h-1.4v0.9zm2.1-2.3v0.8h1.4v-0.8h-1.4zm1.4 1.4h-1.4v0.9h1.4v-0.9z"/>

<rect class="st0" x="331.6" y="73.4" width="58.5" height="23"/>

	<path class="st1" d="m356.4 81.1c1.1 1.2 2.8 2.3 4.4 2.9-0.2 0.2-0.3 0.4-0.5 0.6-0.8-0.3-1.6-0.8-2.4-1.3v0.4h-3.6v-0.4c-0.7 0.5-1.5 1-2.4 1.4-0.1-0.2-0.3-0.4-0.4-0.6 1.7-0.7 3.4-2 4.2-3h0.7zm-2.6 6c-0.2 1.1-0.6 2.3-1.6 3.1-0.1-0.1-0.4-0.4-0.6-0.5 1.3-1.2 1.5-2.8 1.5-4v-1.4h5.9v2.8h-5.2zm4.5-0.6v-0.6h-4.5v0.6h4.5zm-4.4-1.7v0.6h4.5v-0.6h-4.5zm0 2.8h5.5v2.6h-0.7v-0.3h-4.1v0.3h-0.7v-2.6zm3.8-4.4c-0.6-0.5-1.2-0.9-1.6-1.4-0.4 0.4-0.9 0.9-1.5 1.4h3.1zm-3.1 5v1.2h4.1v-1.2h-4.1z"/>
	<path class="st1" d="m363 82.7v2.4c0 1.5-0.1 3.7-1 5.2-0.1-0.1-0.4-0.4-0.6-0.4 0.8-1.4 0.9-3.3 0.9-4.7v-3.2h3.7v-0.9h0.8v0.9h3.8v0.7h-7.6zm7.6 6.4h-3.5v1.2h-0.7v-1.2h-3.3v-0.6h3.3v-0.7h-2.5v-3h2.5v-0.7h-2.9v-0.6h2.9v-0.7h0.7v0.7h3.1v0.6h-3.1v0.7h2.6v3h-2.6v0.7h3.5v0.6zm-6-3.1h1.8v-0.7h-1.8v0.7zm1.8 1.2v-0.8h-1.8v0.8h1.8zm0.8-2v0.8h1.9v-0.7h-1.9zm1.9 1.3h-1.9v0.8h1.9v-0.8z"/>


	<path class="st0" d="m148.2 237v4.1h-1v-0.6h-5.9v0.6h-0.9v-4.1h0.9v2.6h2.4v-3.2h-3v-3.5h0.9v2.6h2v-3.5h0.9v3.5h2.1v-2.6h1v3.5h-3.1v3.2h2.5v-2.6h1.2z"/>
	<path class="st0" d="m154.9 232.6c0 1.8 0.2 5.5 4 7.8-0.2 0.2-0.6 0.6-0.7 0.8-2.3-1.4-3.3-3.4-3.8-5.2-0.7 2.4-2 4.2-3.8 5.3-0.2-0.2-0.6-0.6-0.9-0.8 2.1-1.1 3.4-3.1 3.9-5.8l0.5 0.1c-0.1-0.4-0.1-0.8-0.1-1.2h-2.4v-0.9h3.3z"/>
	<path class="st0" d="m168.1 233v7.9h-1v-0.8h-5.6v0.8h-1v-8h7.6zm-1 6.2v-5.2h-5.6v5.2h5.6z"/>

<rect class="st0" x="80.7" y="218.4" width="50.9" height="17.5"/>

	<path class="st1" d="m91.1 226.2c0.7 1.5 2 3 3.5 3.7-0.2 0.1-0.4 0.4-0.5 0.6-1.4-0.7-2.6-2.1-3.4-3.7v2.8h1.7v0.7h-1.7v1.7h-0.7v-1.7h-1.8v-0.7h1.8v-2.8c-0.8 1.6-2 2.9-3.4 3.7-0.1-0.2-0.3-0.4-0.5-0.5 1.4-0.7 2.7-2.2 3.4-3.7h-3.1v-0.7h3.6v-1.9h0.7v1.9h3.6v0.7h-3.2z"/>
	<path class="st1" d="m95.3 227.1h4.6v0.6h-4.6v-0.6zm4.5-1.9h-4.3v-0.6h1.8v-1h0.6v1h1.8v0.6zm-3.9 3.3h3.5v3.3h-0.6v-0.5h-2.2v0.5h-0.6v-3.3zm0.6-1.5c0-0.4-0.2-1-0.4-1.5l0.6-0.1c0.2 0.4 0.4 1.1 0.4 1.4l-0.6 0.2zm0 2.1v1.7h2.2v-1.7h-2.2zm1.6-2.2c0.2-0.4 0.4-1.1 0.5-1.5l0.6 0.2c-0.2 0.5-0.4 1.1-0.6 1.5l-0.5-0.2zm5.4-2.4c-0.4 0.8-0.8 1.9-1.3 2.7 0.9 0.8 1.1 1.5 1.1 2.2 0 0.5-0.1 1-0.4 1.2-0.2 0.1-0.4 0.2-0.6 0.2h-0.8c0-0.2-0.1-0.5-0.2-0.7h0.7c0.1 0 0.3 0 0.4-0.1 0.2-0.1 0.2-0.4 0.2-0.7 0-0.6-0.3-1.2-1.2-2 0.4-0.8 0.8-1.7 1-2.4h-1.7v7.1h-0.6v-7.7h2.6 0.1l0.7 0.2z"/>
	<path class="st1" d="m107.1 227.8c0 0.5-0.4 1-1 1s-1-0.4-1-1 0.4-1 1-1 1 0.4 1 1z"/>
	<path class="st1" d="m115.6 228.1c-0.5 1-1.2 1.7-2.1 2.3 1 0.4 2.1 0.7 3.3 0.9-0.1 0.1-0.3 0.4-0.4 0.6-1.4-0.2-2.6-0.6-3.6-1.1-1.1 0.6-2.3 0.9-3.6 1.1-0.1-0.2-0.3-0.5-0.4-0.6 1.2-0.2 2.4-0.5 3.4-0.9-0.7-0.5-1.4-1.1-1.8-1.9h0.1-0.4v-0.6h4.9 0.1l0.5 0.2zm-5.9-0.1h-0.7v-1.8h1.4c-0.1-0.3-0.4-0.8-0.6-1.2l0.6-0.2c0.3 0.4 0.5 0.9 0.6 1.2l-0.5 0.2h3.9c0.3-0.5 0.6-1.1 0.8-1.5l0.7 0.2c-0.2 0.4-0.6 0.9-0.8 1.3h1.5v1.8h-0.6v-1.2h-6.4v1.2zm6.5-3.8c-1.8 0.4-4.6 0.6-6.9 0.7 0-0.2-0.1-0.4-0.2-0.6 2.3-0.1 5.1-0.3 6.6-0.7l0.5 0.6zm-5.1 4.3c0.4 0.6 1 1.1 1.8 1.5 0.7-0.4 1.3-0.9 1.7-1.5h-3.5zm1.6-2.3c-0.1-0.4-0.2-0.9-0.5-1.3l0.6-0.1c0.2 0.4 0.4 1 0.5 1.3l-0.6 0.1z"/>
	<path class="st1" d="m120.7 223.9c-0.3 0.7-0.6 1.3-1 2v6h-0.7v-4.9c-0.3 0.4-0.6 0.8-0.9 1.1-0.1-0.2-0.3-0.5-0.4-0.7 0.9-0.9 1.8-2.2 2.3-3.6l0.7 0.1zm5.2 2.4h-1.1v4.6c0 0.5-0.1 0.7-0.5 0.8s-1 0.1-1.9 0.1c0-0.2-0.2-0.5-0.3-0.7h1.7c0.2 0 0.3-0.1 0.3-0.3v-4.6h-3.6v-0.7h3.6v-1.9h0.7v1.9h1.1v0.8zm-3.5 3.5c-0.3-0.6-0.8-1.5-1.3-2.2l0.6-0.3c0.5 0.7 1.1 1.6 1.4 2.2l-0.7 0.3z"/>


	<path class="st0" d="m404.1 106.1v4.1h-1v-0.6h-5.9v0.6h-0.9v-4.1h0.9v2.6h2.4v-3.2h-3v-3.5h0.9v2.6h2v-3.5h0.9v3.5h2.1v-2.6h1v3.5h-3.1v3.2h2.5v-2.6h1.2z"/>
	<path class="st0" d="m400.8 111.7c0 1.8 0.2 5.5 4 7.8-0.2 0.2-0.6 0.6-0.7 0.8-2.3-1.4-3.3-3.4-3.8-5.2-0.7 2.4-2 4.2-3.8 5.3-0.2-0.2-0.6-0.6-0.9-0.7 2.1-1.1 3.4-3.1 3.9-5.8l0.5 0.1c-0.1-0.4-0.1-0.8-0.1-1.2h-2.4v-0.9h3.3z"/>
	<path class="st0" d="m404 122.1v7.9h-1v-0.8h-5.6v0.8h-1v-8h7.6zm-1 6.2v-5.3h-5.6v5.2h5.6z"/>

<rect class="st0" x="429.6" y="64.6" width="70.2" height="70.2"/>

	<path class="st1" d="m457.3 97.1v8.2h-0.8v-0.7h-6.1v0.8h-0.8v-8.3h2.7c0.2-0.6 0.5-1.3 0.6-1.8l1 0.2c-0.2 0.5-0.5 1.1-0.7 1.6h4.1zm-7 0.8v2.5h6.1v-2.5h-6.1zm6.2 5.8v-2.6h-6.1v2.6h6.1z"/>
	<path class="st1" d="m459.4 104.9c0.6-0.5 1-1.4 1.2-2.2l0.7 0.3c-0.2 0.8-0.6 1.8-1.2 2.3l-0.7-0.4zm2.3-4v0.8h7.3v0.3c-0.1 2-0.3 2.8-0.6 3-0.2 0.2-0.4 0.3-0.7 0.3h-1.3c0-0.2-0.1-0.5-0.2-0.7h1.2c0.2 0 0.3 0 0.4-0.1 0.2-0.2 0.3-0.8 0.4-2.3h-7.3v-6.2h2.7c0.1-0.3 0.3-0.7 0.4-0.9l0.9 0.1c-0.1 0.3-0.3 0.6-0.4 0.8h3.4v3.4h-6.1v0.7h7.6v0.6h-7.7zm0-4.1v0.8h5.3v-0.8h-5.3zm5.3 2.2v-0.8h-5.3v0.8h5.3zm-4.2 3.9c0.2 0.6 0.3 1.4 0.3 1.9l-0.7 0.1c0-0.5-0.1-1.3-0.3-2h0.7zm1.7-0.1c0.3 0.5 0.5 1.3 0.6 1.7l-0.7 0.2c-0.1-0.5-0.3-1.2-0.5-1.8l0.6-0.1zm1.9 1.4c-0.1-0.4-0.5-1-0.8-1.4l0.6-0.2c0.3 0.4 0.7 1 0.8 1.4l-0.6 0.2z"/>
	<path class="st1" d="m479.7 98.9c-0.4 0.4-0.9 0.7-1.3 1 0.6 0.3 1.3 0.6 2 0.8-0.2 0.2-0.4 0.5-0.5 0.6-0.6-0.2-1.1-0.4-1.6-0.7v2.2h-2.5v1.6c0 0.4-0.1 0.6-0.4 0.7s-0.8 0.1-1.6 0.1c-0.1-0.2-0.2-0.5-0.3-0.7h1.3c0.2 0 0.2-0.1 0.2-0.2v-1.6h-2.5v-2.3c-0.5 0.3-1 0.5-1.5 0.7-0.1-0.2-0.4-0.5-0.6-0.6 0.7-0.2 1.3-0.5 1.9-0.8-0.3-0.3-0.7-0.7-1.1-0.9l0.5-0.4c0.4 0.3 0.9 0.6 1.2 0.9 0.4-0.3 0.7-0.6 0.9-1h-1.8v-0.7h2.3c0.2-0.3 0.3-0.6 0.4-1h-3.1v1.2h-0.7v-1.9h4.2v-0.8h0.8v0.8h4.2v1.9h-0.8v-1.2h-4.3l0.6 0.1c-0.1 0.3-0.2 0.6-0.3 0.8h3.7v0.7h-2c0.3 0.4 0.6 0.7 1.1 1 0.4-0.3 0.8-0.7 1.1-1.1l0.5 0.8zm-6.1 4.5c-0.5 0.7-1.4 1.4-2.2 1.8l-0.6-0.6c0.8-0.4 1.6-0.9 2-1.5l0.8 0.3zm3.9-3.1h-4.2v0.7h4.2v-0.7zm0 1.3h-4.2v0.7h4.2v-0.7zm-0.4-1.9c-0.4-0.4-0.7-0.8-1-1.2h-1.3c-0.3 0.5-0.6 0.9-1 1.2h3.3zm0.5 3.4c0.8 0.5 1.7 1.2 2.2 1.7l-0.7 0.4c-0.4-0.5-1.4-1.2-2.2-1.7l0.7-0.4z"/>

<rect class="st0" x="429.7" y="157.1" width="69.6" height="82"/>

	<path class="st1" d="m449.9 188.5-0.7 0.3 0.8 0.5c-0.1 0.2-0.2 0.5-0.3 0.7-0.3 0.9-0.8 2.2-1.7 3.3-0.9 1.2-2.1 2.1-4 2.8l-1.2-1.1c2-0.6 3.1-1.5 4-2.5 0.7-0.8 1.3-2 1.4-2.7h-2.8c-0.7 0.9-1.5 1.7-2.5 2.4l-1.1-0.8c1.7-1.1 2.6-2.4 3.1-3.2 0.2-0.2 0.4-0.7 0.5-1l1.5 0.5c-0.2 0.3-0.5 0.8-0.6 1h2c0.3 0 0.6 0 0.9-0.1h0.1c-0.2-0.4-0.5-0.9-0.7-1.3l0.8-0.3c0 0.4 0.4 1.1 0.5 1.5zm1.2-0.5-0.8 0.3c-0.2-0.4-0.5-1-0.8-1.4l0.8-0.3c0.3 0.4 0.7 1 0.8 1.4z"/>
	<path class="st1" d="m459.1 190.9c-0.3 1-0.7 1.9-1.5 2.8-1 1.1-2.3 1.8-3.6 2.2l-1-1.1c1.5-0.3 2.7-1 3.5-1.7 0.5-0.5 0.8-1.2 1-1.7h-4.8-1.2v-1.4c0.4 0 0.8 0.1 1.2 0.1h4.9c0.3 0 0.6 0 0.7-0.1l0.9 0.5c0 0.1-0.1 0.3-0.1 0.4zm-5.6-3.2h3.8c0.3 0 0.8 0 1.1-0.1v1.3h-1.1-3.8-1v-1.3c0.3 0 0.7 0.1 1 0.1z"/>
	<path class="st1" d="m465.4 188v0.8h1.7c0.4 0 0.7 0 0.8-0.1l0.9 0.5c-0.1 0.2-0.2 0.6-0.2 0.8-0.2 1-0.4 1.9-0.9 2.8-0.8 1.5-2.3 2.5-4.1 3l-1-1.2c0.4-0.1 1-0.2 1.4-0.4 0.8-0.3 1.7-0.9 2.3-1.7 0.5-0.7 0.8-1.7 0.9-2.6h-5v1.5 0.7h-1.4v-0.8-1.7-0.9h1 2.1v-0.7c0-0.3 0-0.5-0.1-0.9h1.5c0.2 0.4 0.1 0.6 0.1 0.9z"/>
	<path class="st1" d="m474 193c1.7-1 3-2.5 3.6-3.9l0.8 1.4c-0.8 1.3-2.1 2.7-3.7 3.7-1 0.6-2.3 1.2-3.7 1.4l-0.8-1.3c1.5-0.2 2.8-0.7 3.8-1.3zm0-3.2-1 1c-0.5-0.6-1.8-1.6-2.5-2.2l0.9-1c0.7 0.5 2 1.6 2.6 2.2z"/>
	<path class="st1" d="m480.7 188.7c0-0.4 0-0.8-0.1-1.2h1.6c0 0.3-0.1 0.8-0.1 1.2v1.5c1.3 0.4 3.3 1.1 4.2 1.6l-0.6 1.4c-1-0.5-2.5-1.1-3.6-1.5v2.8c0 0.3 0.1 1 0.1 1.4h-1.6c0.1-0.4 0.1-1 0.1-1.4v-5.8zm4.9 0.6-0.9 0.4c-0.3-0.6-0.5-1-0.9-1.5l0.8-0.3c0.3 0.4 0.7 1 1 1.4zm1.3-0.5-0.8 0.4c-0.3-0.6-0.6-1-0.9-1.5l0.8-0.4c0.3 0.4 0.7 1 0.9 1.5z"/>
	<path class="st1" d="m448.5 200.7 0.9 0.4c-1 1.1-1.8 2.5-1.8 4.4s0.8 3.3 1.8 4.4l-0.9 0.4c-1.1-1.1-2-2.7-2-4.8s0.9-3.8 2-4.8z"/>
	<path class="st1" d="m449.6 209.4c0.4-0.5 0.5-1.4 0.5-2.2l0.7 0.1c-0.1 0.9-0.2 1.8-0.6 2.4l-0.6-0.3zm4.6-3.7v0.4c-0.1 2.4-0.2 3.3-0.5 3.6-0.2 0.2-0.3 0.3-0.6 0.3h-0.9c0-0.3-0.1-0.7-0.2-0.9h0.6s0.2 0 0.3-0.1 0.1-0.4 0.2-0.9l-0.3 0.1c-0.1-0.4-0.3-0.9-0.5-1.3l0.5-0.2c0.1 0.2 0.2 0.5 0.3 0.8 0-0.3 0-0.6 0.1-1.1h-3v-5.5h3.8v1h-1.2v0.6h1.1v0.9h-1.1v0.6h1.1v0.9h-1.1v0.6h1.4zm-2.8 1.5c0.1 0.6 0.1 1.3 0.1 1.8l-0.5 0.1c0-0.5 0-1.3-0.1-1.8l0.5-0.1zm-0.2-5.1v0.6h0.6v-0.6h-0.6zm0.6 1.5h-0.6v0.6h0.6v-0.6zm-0.6 2.1h0.6v-0.6h-0.6v0.6zm0.9 1.4c0.2 0.5 0.3 1.2 0.3 1.6l-0.5 0.1c0-0.4-0.2-1.1-0.3-1.6l0.5-0.1zm7 1.6v1.1h-5.1v-1.1h2v-2.1h-1.5v-1.1h1.5v-1.8h-1.7v-1.1h2.4c-0.5-0.4-1.2-0.8-1.8-1l0.7-0.8c0.8 0.3 1.8 0.9 2.2 1.3l-0.4 0.6h1.5v1.1h-1.7v1.8h1.6v1.1h-1.6v2.1h1.9z"/>
	<path class="st1" d="m462.3 207.5h1.5v1h-1.5v1.6h-1v-1.6h-1.5v-1h1.5v-0.6h-1.3v-3.6h1.2v-0.5h-1.4v-1h1.4v-0.9h1v0.9h1.4v1h-1.4v0.5h1.3c0.9-0.6 1.8-1.6 2.2-2.5h1c0.6 1 1.5 2 2.4 2.5-0.2 0.3-0.5 0.7-0.6 1-0.2-0.2-0.5-0.3-0.7-0.5v0.7h-3.2v-0.7c-0.2 0.2-0.5 0.4-0.7 0.6-0.1-0.2-0.3-0.5-0.5-0.8v3.4h-1.3v0.5zm-1.4-2.8h0.5v-0.6h-0.5v0.6zm0 1.4h0.5v-0.6h-0.5v0.6zm1.8-2h-0.6v0.6h0.6v-0.6zm0 1.4h-0.6v0.6h0.6v-0.6zm6.1 3.6c0 0.4-0.1 0.7-0.3 0.8-0.2 0.2-0.5 0.2-0.9 0.2 0-0.3-0.2-0.7-0.3-0.9h0.4c0.1 0 0.1 0 0.1-0.1v-1.1h-0.5v2h-0.7v-2h-0.5v2h-0.7v-2h-0.5v2.2h-0.9v-5.1h4.8v4zm-3.5-2.1v-1h-0.5v1h0.5zm2.3-3.5c-0.5-0.5-1-1.1-1.3-1.6-0.3 0.5-0.8 1.1-1.3 1.6h2.6zm-1.1 3.5v-1h-0.5v1h0.5zm1.3 0v-1h-0.5v1h0.5z"/>
	<path class="st1" d="m475.1 205.8c-0.1 0.2-0.2 0.3-0.3 0.5h4.1v0.4c-0.1 1.9-0.3 2.7-0.6 3-0.2 0.2-0.4 0.3-0.7 0.3h-1c0-0.3-0.1-0.7-0.3-0.9h0.7c0.1 0 0.2 0 0.3-0.1s0.3-0.7 0.4-1.9h-0.4c-0.4 1.1-1.2 2.3-2 3-0.2-0.2-0.5-0.5-0.8-0.7 0.8-0.5 1.4-1.4 1.9-2.3h-0.6c-0.5 1-1.5 2-2.3 2.5-0.2-0.2-0.5-0.5-0.8-0.7 0.7-0.4 1.5-1.1 2-1.8h-0.6c-0.4 0.4-0.8 0.7-1.2 1-0.1-0.2-0.5-0.5-0.8-0.7-0.7 0.4-1.4 0.7-2 1l-0.4-1.2c0.3-0.1 0.8-0.3 1.2-0.5v-2.7h-1v-1.1h1v-2h1.1v2h0.9v1.1h-0.9v2.4l0.8-0.3 0.2 0.8c0.4-0.3 0.7-0.7 0.9-1.1h-1.1v-1h6.3v1h-4zm3.3-1.4h-4.7v-3.4h4.7v3.4zm-1.1-2.5h-2.6v0.5h2.6v-0.5zm0 1.2h-2.6v0.5h2.6v-0.5z"/>
	<path class="st1" d="m480.4 210.3-0.9-0.4c1-1.1 1.8-2.5 1.8-4.4s-0.8-3.3-1.8-4.4l0.9-0.4c1.1 1.1 2 2.7 2 4.8s-0.9 3.7-2 4.8z"/>
	<path class="st1" d="m444.4 211v-0.5h40v0.5h-40z"/>

</svg>
